<svg xmlns="http://www.w3.org/2000/svg" width="1000" height="420" viewBox="0 0 1000 420" font-family="monospace">
<rect width="1000" height="420" fill="#ffffff"/>
<line x1="46" y1="46.0" x2="954" y2="46.0" stroke="#c00" stroke-width="1" stroke-dasharray="4 3"/>
<line x1="46" y1="374.0" x2="954" y2="374.0" stroke="#06c" stroke-width="1" stroke-dasharray="4 3"/>
<text x="954" y="42.0" text-anchor="end" font-size="11" fill="#c00">HOD 1.53718</text>
<text x="954" y="387.0" text-anchor="end" font-size="11" fill="#06c">LOD 1.52520</text>
<line x1="46" y1="182.9" x2="954" y2="182.9" stroke="#c00" stroke-width="1" stroke-dasharray="1 4" opacity=".7"/>
<line x1="46" y1="237.1" x2="954" y2="237.1" stroke="#06c" stroke-width="1" stroke-dasharray="1 4" opacity=".7"/>
<line x1="50.7" y1="71.2" x2="50.7" y2="87.9" stroke="#1a7f37" stroke-width="1"/>
<rect x="47.4" y="81.6" width="6.6" height="3.3" fill="#1a7f37"/>
<line x1="60.2" y1="72.6" x2="60.2" y2="84.9" stroke="#1a7f37" stroke-width="1"/>
<rect x="56.9" y="80.5" width="6.6" height="1.1" fill="#1a7f37"/>
<line x1="69.6" y1="73.7" x2="69.6" y2="82.1" stroke="#1a7f37" stroke-width="1"/>
<rect x="66.3" y="75.6" width="6.6" height="4.1" fill="#1a7f37"/>
<line x1="79.1" y1="72.6" x2="79.1" y2="81.0" stroke="#b32020" stroke-width="1"/>
<rect x="75.8" y="76.4" width="6.6" height="1.1" fill="#b32020"/>
<line x1="88.6" y1="70.1" x2="88.6" y2="81.0" stroke="#1a7f37" stroke-width="1"/>
<rect x="85.3" y="73.1" width="6.6" height="5.5" fill="#1a7f37"/>
<line x1="98.0" y1="63.5" x2="98.0" y2="73.1" stroke="#1a7f37" stroke-width="1"/>
<rect x="94.7" y="68.5" width="6.6" height="4.4" fill="#1a7f37"/>
<line x1="107.5" y1="57.8" x2="107.5" y2="73.9" stroke="#1a7f37" stroke-width="1"/>
<rect x="104.2" y="58.3" width="6.6" height="10.1" fill="#1a7f37"/>
<line x1="116.9" y1="58.9" x2="116.9" y2="63.5" stroke="#b32020" stroke-width="1"/>
<rect x="113.6" y="58.9" width="6.6" height="1.6" fill="#b32020"/>
<line x1="126.4" y1="60.8" x2="126.4" y2="77.2" stroke="#b32020" stroke-width="1"/>
<rect x="123.1" y="61.3" width="6.6" height="15.3" fill="#b32020"/>
<line x1="135.9" y1="71.5" x2="135.9" y2="78.3" stroke="#1a7f37" stroke-width="1"/>
<rect x="132.5" y="72.3" width="6.6" height="4.4" fill="#1a7f37"/>
<line x1="145.3" y1="51.7" x2="145.3" y2="74.7" stroke="#1a7f37" stroke-width="1"/>
<rect x="142.0" y="51.7" width="6.6" height="23.0" fill="#1a7f37"/>
<line x1="154.8" y1="46.0" x2="154.8" y2="60.5" stroke="#b32020" stroke-width="1"/>
<rect x="151.5" y="52.0" width="6.6" height="4.4" fill="#b32020"/>
<line x1="164.2" y1="55.0" x2="164.2" y2="67.4" stroke="#b32020" stroke-width="1"/>
<rect x="160.9" y="57.0" width="6.6" height="9.6" fill="#b32020"/>
<line x1="173.7" y1="62.7" x2="173.7" y2="73.9" stroke="#b32020" stroke-width="1"/>
<rect x="170.4" y="66.5" width="6.6" height="7.4" fill="#b32020"/>
<line x1="183.1" y1="63.8" x2="183.1" y2="74.2" stroke="#1a7f37" stroke-width="1"/>
<rect x="179.8" y="72.0" width="6.6" height="1.9" fill="#1a7f37"/>
<line x1="192.6" y1="66.0" x2="192.6" y2="75.6" stroke="#1a7f37" stroke-width="1"/>
<rect x="189.3" y="70.6" width="6.6" height="1.0" fill="#1a7f37"/>
<line x1="202.1" y1="70.1" x2="202.1" y2="89.3" stroke="#b32020" stroke-width="1"/>
<rect x="198.8" y="71.2" width="6.6" height="14.0" fill="#b32020"/>
<line x1="211.5" y1="81.3" x2="211.5" y2="89.5" stroke="#b32020" stroke-width="1"/>
<rect x="208.2" y="84.6" width="6.6" height="1.0" fill="#b32020"/>
<line x1="221.0" y1="82.1" x2="221.0" y2="91.4" stroke="#b32020" stroke-width="1"/>
<rect x="217.7" y="84.9" width="6.6" height="1.9" fill="#b32020"/>
<line x1="230.4" y1="83.5" x2="230.4" y2="88.7" stroke="#1a7f37" stroke-width="1"/>
<rect x="227.1" y="86.2" width="6.6" height="1.0" fill="#1a7f37"/>
<line x1="239.9" y1="82.7" x2="239.9" y2="89.5" stroke="#b32020" stroke-width="1"/>
<rect x="236.6" y="86.0" width="6.6" height="1.9" fill="#b32020"/>
<line x1="249.4" y1="83.0" x2="249.4" y2="89.5" stroke="#1a7f37" stroke-width="1"/>
<rect x="246.0" y="85.2" width="6.6" height="2.7" fill="#1a7f37"/>
<line x1="258.8" y1="81.9" x2="258.8" y2="86.5" stroke="#1a7f37" stroke-width="1"/>
<rect x="255.5" y="85.2" width="6.6" height="1.0" fill="#1a7f37"/>
<line x1="268.3" y1="85.2" x2="268.3" y2="90.1" stroke="#b32020" stroke-width="1"/>
<rect x="265.0" y="85.2" width="6.6" height="4.1" fill="#b32020"/>
<line x1="277.7" y1="89.3" x2="277.7" y2="99.1" stroke="#b32020" stroke-width="1"/>
<rect x="274.4" y="89.3" width="6.6" height="8.2" fill="#b32020"/>
<line x1="287.2" y1="96.7" x2="287.2" y2="116.1" stroke="#b32020" stroke-width="1"/>
<rect x="283.9" y="97.2" width="6.6" height="18.6" fill="#b32020"/>
<line x1="296.6" y1="104.3" x2="296.6" y2="119.1" stroke="#1a7f37" stroke-width="1"/>
<rect x="293.3" y="107.3" width="6.6" height="8.2" fill="#1a7f37"/>
<line x1="306.1" y1="106.8" x2="306.1" y2="115.5" stroke="#1a7f37" stroke-width="1"/>
<rect x="302.8" y="107.6" width="6.6" height="1.0" fill="#1a7f37"/>
<line x1="315.6" y1="102.9" x2="315.6" y2="113.4" stroke="#b32020" stroke-width="1"/>
<rect x="312.3" y="107.6" width="6.6" height="5.5" fill="#b32020"/>
<line x1="325.0" y1="104.6" x2="325.0" y2="114.2" stroke="#1a7f37" stroke-width="1"/>
<rect x="321.7" y="108.7" width="6.6" height="4.9" fill="#1a7f37"/>
<line x1="334.5" y1="104.3" x2="334.5" y2="110.9" stroke="#1a7f37" stroke-width="1"/>
<rect x="331.2" y="107.1" width="6.6" height="1.6" fill="#1a7f37"/>
<line x1="343.9" y1="100.5" x2="343.9" y2="111.7" stroke="#1a7f37" stroke-width="1"/>
<rect x="340.6" y="101.0" width="6.6" height="6.0" fill="#1a7f37"/>
<line x1="353.4" y1="93.6" x2="353.4" y2="108.2" stroke="#b32020" stroke-width="1"/>
<rect x="350.1" y="100.5" width="6.6" height="1.6" fill="#b32020"/>
<line x1="362.9" y1="95.6" x2="362.9" y2="104.6" stroke="#b32020" stroke-width="1"/>
<rect x="359.5" y="101.9" width="6.6" height="1.4" fill="#b32020"/>
<line x1="372.3" y1="99.9" x2="372.3" y2="105.4" stroke="#1a7f37" stroke-width="1"/>
<rect x="369.0" y="102.7" width="6.6" height="1.0" fill="#1a7f37"/>
<line x1="381.8" y1="95.8" x2="381.8" y2="124.9" stroke="#b32020" stroke-width="1"/>
<rect x="378.5" y="103.2" width="6.6" height="19.7" fill="#b32020"/>
<line x1="391.2" y1="120.5" x2="391.2" y2="133.1" stroke="#b32020" stroke-width="1"/>
<rect x="387.9" y="122.9" width="6.6" height="6.8" fill="#b32020"/>
<line x1="400.7" y1="101.9" x2="400.7" y2="130.6" stroke="#1a7f37" stroke-width="1"/>
<rect x="397.4" y="103.2" width="6.6" height="26.8" fill="#1a7f37"/>
<line x1="410.1" y1="69.0" x2="410.1" y2="103.8" stroke="#1a7f37" stroke-width="1"/>
<rect x="406.8" y="78.3" width="6.6" height="24.9" fill="#1a7f37"/>
<line x1="419.6" y1="61.6" x2="419.6" y2="86.0" stroke="#1a7f37" stroke-width="1"/>
<rect x="416.3" y="66.5" width="6.6" height="11.8" fill="#1a7f37"/>
<line x1="429.1" y1="55.3" x2="429.1" y2="74.2" stroke="#1a7f37" stroke-width="1"/>
<rect x="425.8" y="61.1" width="6.6" height="6.0" fill="#1a7f37"/>
<line x1="438.5" y1="55.9" x2="438.5" y2="78.3" stroke="#b32020" stroke-width="1"/>
<rect x="435.2" y="61.3" width="6.6" height="13.7" fill="#b32020"/>
<line x1="448.0" y1="73.1" x2="448.0" y2="113.9" stroke="#b32020" stroke-width="1"/>
<rect x="444.7" y="75.0" width="6.6" height="16.2" fill="#b32020"/>
<line x1="457.4" y1="59.7" x2="457.4" y2="105.1" stroke="#1a7f37" stroke-width="1"/>
<rect x="454.1" y="71.5" width="6.6" height="19.2" fill="#1a7f37"/>
<line x1="466.9" y1="59.1" x2="466.9" y2="87.3" stroke="#b32020" stroke-width="1"/>
<rect x="463.6" y="72.0" width="6.6" height="13.1" fill="#b32020"/>
<line x1="476.4" y1="77.2" x2="476.4" y2="101.0" stroke="#b32020" stroke-width="1"/>
<rect x="473.0" y="85.2" width="6.6" height="15.9" fill="#b32020"/>
<line x1="485.8" y1="96.7" x2="485.8" y2="142.1" stroke="#b32020" stroke-width="1"/>
<rect x="482.5" y="105.7" width="6.6" height="17.0" fill="#b32020"/>
<line x1="495.3" y1="120.5" x2="495.3" y2="151.1" stroke="#b32020" stroke-width="1"/>
<rect x="492.0" y="123.2" width="6.6" height="25.2" fill="#b32020"/>
<line x1="504.7" y1="138.8" x2="504.7" y2="172.8" stroke="#b32020" stroke-width="1"/>
<rect x="501.4" y="148.4" width="6.6" height="6.0" fill="#b32020"/>
<line x1="514.2" y1="125.4" x2="514.2" y2="154.4" stroke="#1a7f37" stroke-width="1"/>
<rect x="510.9" y="132.5" width="6.6" height="21.6" fill="#1a7f37"/>
<line x1="523.6" y1="129.5" x2="523.6" y2="149.8" stroke="#b32020" stroke-width="1"/>
<rect x="520.3" y="132.5" width="6.6" height="9.3" fill="#b32020"/>
<line x1="533.1" y1="137.2" x2="533.1" y2="152.2" stroke="#b32020" stroke-width="1"/>
<rect x="529.8" y="141.8" width="6.6" height="7.9" fill="#b32020"/>
<line x1="542.6" y1="149.2" x2="542.6" y2="173.3" stroke="#b32020" stroke-width="1"/>
<rect x="539.3" y="149.2" width="6.6" height="10.4" fill="#b32020"/>
<line x1="552.0" y1="142.1" x2="552.0" y2="165.1" stroke="#1a7f37" stroke-width="1"/>
<rect x="548.7" y="142.4" width="6.6" height="16.7" fill="#1a7f37"/>
<line x1="561.5" y1="129.8" x2="561.5" y2="145.7" stroke="#1a7f37" stroke-width="1"/>
<rect x="558.2" y="132.2" width="6.6" height="9.9" fill="#1a7f37"/>
<line x1="570.9" y1="112.0" x2="570.9" y2="132.8" stroke="#1a7f37" stroke-width="1"/>
<rect x="567.6" y="129.8" width="6.6" height="2.2" fill="#1a7f37"/>
<line x1="580.4" y1="107.1" x2="580.4" y2="130.1" stroke="#1a7f37" stroke-width="1"/>
<rect x="577.1" y="115.8" width="6.6" height="13.7" fill="#1a7f37"/>
<line x1="589.9" y1="89.0" x2="589.9" y2="117.7" stroke="#1a7f37" stroke-width="1"/>
<rect x="586.5" y="104.0" width="6.6" height="11.5" fill="#1a7f37"/>
<line x1="599.3" y1="102.1" x2="599.3" y2="141.8" stroke="#b32020" stroke-width="1"/>
<rect x="596.0" y="103.2" width="6.6" height="35.9" fill="#b32020"/>
<line x1="608.8" y1="133.1" x2="608.8" y2="151.7" stroke="#b32020" stroke-width="1"/>
<rect x="605.5" y="138.0" width="6.6" height="8.2" fill="#b32020"/>
<line x1="618.2" y1="137.4" x2="618.2" y2="181.8" stroke="#b32020" stroke-width="1"/>
<rect x="614.9" y="146.5" width="6.6" height="32.0" fill="#b32020"/>
<line x1="627.7" y1="122.4" x2="627.7" y2="182.6" stroke="#1a7f37" stroke-width="1"/>
<rect x="624.4" y="136.4" width="6.6" height="46.3" fill="#1a7f37"/>
<line x1="637.1" y1="136.1" x2="637.1" y2="160.4" stroke="#b32020" stroke-width="1"/>
<rect x="633.8" y="136.9" width="6.6" height="17.5" fill="#b32020"/>
<line x1="646.6" y1="149.5" x2="646.6" y2="175.0" stroke="#b32020" stroke-width="1"/>
<rect x="643.3" y="154.1" width="6.6" height="19.2" fill="#b32020"/>
<line x1="656.1" y1="170.6" x2="656.1" y2="213.3" stroke="#b32020" stroke-width="1"/>
<rect x="652.8" y="173.9" width="6.6" height="39.2" fill="#b32020"/>
<line x1="665.5" y1="175.0" x2="665.5" y2="217.1" stroke="#1a7f37" stroke-width="1"/>
<rect x="662.2" y="179.3" width="6.6" height="33.1" fill="#1a7f37"/>
<line x1="675.0" y1="175.5" x2="675.0" y2="213.8" stroke="#b32020" stroke-width="1"/>
<rect x="671.7" y="178.5" width="6.6" height="18.6" fill="#b32020"/>
<line x1="684.4" y1="197.1" x2="684.4" y2="261.7" stroke="#b32020" stroke-width="1"/>
<rect x="681.1" y="197.4" width="6.6" height="51.7" fill="#b32020"/>
<line x1="693.9" y1="247.8" x2="693.9" y2="288.3" stroke="#b32020" stroke-width="1"/>
<rect x="690.6" y="249.2" width="6.6" height="39.2" fill="#b32020"/>
<line x1="703.4" y1="281.7" x2="703.4" y2="342.0" stroke="#b32020" stroke-width="1"/>
<rect x="700.0" y="288.3" width="6.6" height="25.7" fill="#b32020"/>
<line x1="712.8" y1="295.4" x2="712.8" y2="331.8" stroke="#1a7f37" stroke-width="1"/>
<rect x="709.5" y="296.2" width="6.6" height="17.8" fill="#1a7f37"/>
<line x1="722.3" y1="294.9" x2="722.3" y2="346.9" stroke="#b32020" stroke-width="1"/>
<rect x="719.0" y="296.2" width="6.6" height="31.8" fill="#b32020"/>
<line x1="731.7" y1="316.5" x2="731.7" y2="343.9" stroke="#b32020" stroke-width="1"/>
<rect x="728.4" y="327.7" width="6.6" height="8.8" fill="#b32020"/>
<line x1="741.2" y1="303.9" x2="741.2" y2="341.1" stroke="#1a7f37" stroke-width="1"/>
<rect x="737.9" y="332.7" width="6.6" height="3.8" fill="#1a7f37"/>
<line x1="750.6" y1="328.3" x2="750.6" y2="361.1" stroke="#b32020" stroke-width="1"/>
<rect x="747.3" y="332.9" width="6.6" height="23.8" fill="#b32020"/>
<line x1="760.1" y1="334.0" x2="760.1" y2="362.5" stroke="#1a7f37" stroke-width="1"/>
<rect x="756.8" y="339.8" width="6.6" height="16.4" fill="#1a7f37"/>
<line x1="769.6" y1="313.5" x2="769.6" y2="341.7" stroke="#1a7f37" stroke-width="1"/>
<rect x="766.3" y="331.8" width="6.6" height="8.5" fill="#1a7f37"/>
<line x1="779.0" y1="331.3" x2="779.0" y2="355.9" stroke="#b32020" stroke-width="1"/>
<rect x="775.7" y="331.8" width="6.6" height="14.5" fill="#b32020"/>
<line x1="788.5" y1="338.7" x2="788.5" y2="350.7" stroke="#1a7f37" stroke-width="1"/>
<rect x="785.2" y="343.3" width="6.6" height="4.1" fill="#1a7f37"/>
<line x1="797.9" y1="329.9" x2="797.9" y2="351.5" stroke="#b32020" stroke-width="1"/>
<rect x="794.6" y="343.3" width="6.6" height="1.4" fill="#b32020"/>
<line x1="807.4" y1="336.8" x2="807.4" y2="349.6" stroke="#1a7f37" stroke-width="1"/>
<rect x="804.1" y="336.8" width="6.6" height="8.8" fill="#1a7f37"/>
<line x1="816.9" y1="334.3" x2="816.9" y2="364.7" stroke="#b32020" stroke-width="1"/>
<rect x="813.5" y="335.1" width="6.6" height="15.3" fill="#b32020"/>
<line x1="826.3" y1="346.6" x2="826.3" y2="364.4" stroke="#b32020" stroke-width="1"/>
<rect x="823.0" y="350.2" width="6.6" height="5.7" fill="#b32020"/>
<line x1="835.8" y1="352.9" x2="835.8" y2="372.4" stroke="#b32020" stroke-width="1"/>
<rect x="832.5" y="355.7" width="6.6" height="16.7" fill="#b32020"/>
<line x1="845.2" y1="355.4" x2="845.2" y2="374.0" stroke="#1a7f37" stroke-width="1"/>
<rect x="841.9" y="355.7" width="6.6" height="14.8" fill="#1a7f37"/>
<line x1="854.7" y1="352.9" x2="854.7" y2="364.4" stroke="#1a7f37" stroke-width="1"/>
<rect x="851.4" y="355.7" width="6.6" height="1.0" fill="#1a7f37"/>
<line x1="864.1" y1="354.6" x2="864.1" y2="364.1" stroke="#b32020" stroke-width="1"/>
<rect x="860.8" y="355.7" width="6.6" height="2.7" fill="#b32020"/>
<line x1="873.6" y1="345.0" x2="873.6" y2="363.6" stroke="#1a7f37" stroke-width="1"/>
<rect x="870.3" y="351.0" width="6.6" height="7.1" fill="#1a7f37"/>
<line x1="883.1" y1="345.8" x2="883.1" y2="358.4" stroke="#b32020" stroke-width="1"/>
<rect x="879.8" y="351.0" width="6.6" height="2.5" fill="#b32020"/>
<line x1="892.5" y1="345.0" x2="892.5" y2="354.8" stroke="#1a7f37" stroke-width="1"/>
<rect x="889.2" y="349.9" width="6.6" height="3.6" fill="#1a7f37"/>
<line x1="902.0" y1="343.3" x2="902.0" y2="352.6" stroke="#b32020" stroke-width="1"/>
<rect x="898.7" y="349.6" width="6.6" height="2.2" fill="#b32020"/>
<line x1="911.4" y1="340.3" x2="911.4" y2="353.2" stroke="#1a7f37" stroke-width="1"/>
<rect x="908.1" y="345.3" width="6.6" height="6.6" fill="#1a7f37"/>
<line x1="920.9" y1="339.2" x2="920.9" y2="349.6" stroke="#b32020" stroke-width="1"/>
<rect x="917.6" y="344.7" width="6.6" height="4.4" fill="#b32020"/>
<line x1="930.4" y1="347.2" x2="930.4" y2="352.4" stroke="#b32020" stroke-width="1"/>
<rect x="927.0" y="349.1" width="6.6" height="3.0" fill="#b32020"/>
<line x1="939.8" y1="344.2" x2="939.8" y2="356.8" stroke="#1a7f37" stroke-width="1"/>
<rect x="936.5" y="346.9" width="6.6" height="5.2" fill="#1a7f37"/>
<line x1="949.3" y1="333.8" x2="949.3" y2="348.0" stroke="#1a7f37" stroke-width="1"/>
<rect x="946.0" y="342.0" width="6.6" height="6.0" fill="#1a7f37"/>
<circle cx="154.8" cy="46.0" r="4" fill="none" stroke="#c00" stroke-width="2"/>
<text x="161.8" y="50.0" font-size="11" fill="#c00">SHORT@HOD HIT 50p</text>
<circle cx="845.2" cy="374.0" r="4" fill="none" stroke="#06c" stroke-width="2"/>
<text x="852.2" y="378.0" font-size="11" fill="#06c">LONG@LOD NO 50p</text>
<text x="46" y="20" font-size="14" font-weight="bold">POSITIVE — session day 2015-03-04  (17:00 -> 17:00, D-031 Arm A)</text>
<text x="46" y="36" font-size="11" fill="#444">range 119.8 pips · bars 96 · dotted lines are 50 pips from each extreme · SHORT hit=True LONG hit=False</text>
<text x="46" y="410" font-size="10" fill="#666">GBP/USD 15m · HistData M1-&gt;M15 · drawn from CSV numbers, nothing measured off this image (E06 / D-036a)</text>
</svg>