<svg xmlns="http://www.w3.org/2000/svg" viewBox="0 0 1920 1080" width="1920" height="1080">
<defs>
<style>
text { font-family: -apple-system, BlinkMacSystemFont, "Segoe UI", Roboto, monospace; }
.grid { stroke: #1e222d; stroke-width: 1; }
.axis-txt { fill: #787b86; font-size: 11px; }
.hud-txt { fill: #d1d4dc; font-size: 13px; font-family: monospace; font-weight: 500; }
</style>
</defs>
<rect width="1920" height="1080" fill="#131722"/>
<rect x="70" y="40" width="1760" height="700" fill="#131722" stroke="#2a2e39" stroke-width="1"/>
<rect x="70" y="770" width="1760" height="259" fill="#131722" stroke="#2a2e39" stroke-width="1"/>
<line x1="70" y1="127.5" x2="1830" y2="127.5" class="grid"/>
<text x="1838" y="131.5" class="axis-txt">1.45751</text>
<line x1="70" y1="215.0" x2="1830" y2="215.0" class="grid"/>
<text x="1838" y="219.0" class="axis-txt">1.45454</text>
<line x1="70" y1="302.5" x2="1830" y2="302.5" class="grid"/>
<text x="1838" y="306.5" class="axis-txt">1.45156</text>
<line x1="70" y1="390.0" x2="1830" y2="390.0" class="grid"/>
<text x="1838" y="394.0" class="axis-txt">1.44858</text>
<line x1="70" y1="477.5" x2="1830" y2="477.5" class="grid"/>
<text x="1838" y="481.5" class="axis-txt">1.44560</text>
<line x1="70" y1="565.0" x2="1830" y2="565.0" class="grid"/>
<text x="1838" y="569.0" class="axis-txt">1.44262</text>
<line x1="70" y1="652.5" x2="1830" y2="652.5" class="grid"/>
<text x="1838" y="656.5" class="axis-txt">1.43965</text>
<rect x="429.4" y="416.7" width="175.1" height="55.2" fill="#2a2e39" fill-opacity="0.45" stroke="#787b86" stroke-dasharray="4,4"/>
<rect x="1314.0" y="161.7" width="175.1" height="112.8" fill="#2a2e39" fill-opacity="0.45" stroke="#787b86" stroke-dasharray="4,4"/>
<line x1="70" y1="119.1" x2="1830" y2="119.1" stroke="#29b6f6" stroke-width="1.5" opacity="0.85"/>
<line x1="70" y1="525.1" x2="1830" y2="525.1" stroke="#29b6f6" stroke-width="1.5" opacity="0.85"/>
<text x="1650" y="115.1" fill="#29b6f6" font-size="10">Blue Tracer (High)</text>
<line x1="70" y1="88.3" x2="1830" y2="88.3" stroke="#ab47bc" stroke-width="1.2" stroke-dasharray="2,3" opacity="0.75"/>
<line x1="70" y1="14.8" x2="1830" y2="14.8" stroke="#ab47bc" stroke-width="1.2" stroke-dasharray="2,3" opacity="0.75"/>
<line x1="70" y1="421.4" x2="1830" y2="421.4" stroke="#ab47bc" stroke-width="1.2" stroke-dasharray="2,3" opacity="0.75"/>
<line x1="70" y1="348.0" x2="1830" y2="348.0" stroke="#ab47bc" stroke-width="1.2" stroke-dasharray="2,3" opacity="0.75"/>
<line x1="70.0" y1="561.3" x2="70.0" y2="620.3" stroke="#f23645" stroke-width="1.2"/>
<rect x="67.0" y="587.1" width="6.0" height="32.0" fill="#f23645" stroke="#f23645"/>
<line x1="79.2" y1="501.6" x2="79.2" y2="623.6" stroke="#089981" stroke-width="1.2"/>
<rect x="76.2" y="507.8" width="6.0" height="109.0" fill="#089981" stroke="#089981"/>
<line x1="88.4" y1="381.5" x2="88.4" y2="509.6" stroke="#089981" stroke-width="1.2"/>
<rect x="85.5" y="398.5" width="6.0" height="110.2" fill="#089981" stroke="#089981"/>
<line x1="97.6" y1="348.3" x2="97.6" y2="426.7" stroke="#089981" stroke-width="1.2"/>
<rect x="94.7" y="380.0" width="6.0" height="18.8" fill="#089981" stroke="#089981"/>
<line x1="106.9" y1="357.1" x2="106.9" y2="390.0" stroke="#f23645" stroke-width="1.2"/>
<rect x="103.9" y="380.0" width="6.0" height="2.4" fill="#f23645" stroke="#f23645"/>
<line x1="116.1" y1="330.9" x2="116.1" y2="387.1" stroke="#089981" stroke-width="1.2"/>
<rect x="113.1" y="332.1" width="6.0" height="50.8" fill="#089981" stroke="#089981"/>
<line x1="125.3" y1="302.5" x2="125.3" y2="383.8" stroke="#f23645" stroke-width="1.2"/>
<rect x="122.3" y="331.5" width="6.0" height="52.0" fill="#f23645" stroke="#f23645"/>
<line x1="134.5" y1="361.5" x2="134.5" y2="389.4" stroke="#089981" stroke-width="1.2"/>
<rect x="131.5" y="374.7" width="6.0" height="6.5" fill="#089981" stroke="#089981"/>
<line x1="143.7" y1="326.2" x2="143.7" y2="377.1" stroke="#089981" stroke-width="1.2"/>
<rect x="140.7" y="357.7" width="6.0" height="16.5" fill="#089981" stroke="#089981"/>
<line x1="152.9" y1="348.3" x2="152.9" y2="385.6" stroke="#f23645" stroke-width="1.2"/>
<rect x="150.0" y="357.1" width="6.0" height="21.2" fill="#f23645" stroke="#f23645"/>
<line x1="162.1" y1="371.8" x2="162.1" y2="403.5" stroke="#f23645" stroke-width="1.2"/>
<rect x="159.2" y="378.5" width="6.0" height="16.7" fill="#f23645" stroke="#f23645"/>
<line x1="171.4" y1="384.4" x2="171.4" y2="448.2" stroke="#f23645" stroke-width="1.2"/>
<rect x="168.4" y="396.5" width="6.0" height="47.6" fill="#f23645" stroke="#f23645"/>
<line x1="180.6" y1="417.0" x2="180.6" y2="460.5" stroke="#089981" stroke-width="1.2"/>
<rect x="177.6" y="438.8" width="6.0" height="5.6" fill="#089981" stroke="#089981"/>
<line x1="189.8" y1="428.2" x2="189.8" y2="480.8" stroke="#f23645" stroke-width="1.2"/>
<rect x="186.8" y="439.4" width="6.0" height="35.8" fill="#f23645" stroke="#f23645"/>
<line x1="199.0" y1="462.6" x2="199.0" y2="509.3" stroke="#f23645" stroke-width="1.2"/>
<rect x="196.0" y="474.9" width="6.0" height="32.6" fill="#f23645" stroke="#f23645"/>
<line x1="208.2" y1="466.4" x2="208.2" y2="507.8" stroke="#089981" stroke-width="1.2"/>
<rect x="205.2" y="476.7" width="6.0" height="31.1" fill="#089981" stroke="#089981"/>
<line x1="217.4" y1="454.0" x2="217.4" y2="477.8" stroke="#089981" stroke-width="1.2"/>
<rect x="214.5" y="462.3" width="6.0" height="15.0" fill="#089981" stroke="#089981"/>
<line x1="226.6" y1="453.2" x2="226.6" y2="472.0" stroke="#089981" stroke-width="1.2"/>
<rect x="223.7" y="460.5" width="6.0" height="1.8" fill="#089981" stroke="#089981"/>
<line x1="235.9" y1="460.5" x2="235.9" y2="490.8" stroke="#f23645" stroke-width="1.2"/>
<rect x="232.9" y="460.5" width="6.0" height="23.8" fill="#f23645" stroke="#f23645"/>
<line x1="245.1" y1="460.8" x2="245.1" y2="491.1" stroke="#089981" stroke-width="1.2"/>
<rect x="242.1" y="479.6" width="6.0" height="3.2" fill="#089981" stroke="#089981"/>
<line x1="254.3" y1="467.3" x2="254.3" y2="492.8" stroke="#089981" stroke-width="1.2"/>
<rect x="251.3" y="477.5" width="6.0" height="2.1" fill="#089981" stroke="#089981"/>
<line x1="263.5" y1="461.4" x2="263.5" y2="488.1" stroke="#089981" stroke-width="1.2"/>
<rect x="260.5" y="464.9" width="6.0" height="12.3" fill="#089981" stroke="#089981"/>
<line x1="272.7" y1="453.5" x2="272.7" y2="485.8" stroke="#f23645" stroke-width="1.2"/>
<rect x="269.7" y="464.6" width="6.0" height="2.1" fill="#f23645" stroke="#f23645"/>
<line x1="281.9" y1="439.1" x2="281.9" y2="466.4" stroke="#089981" stroke-width="1.2"/>
<rect x="279.0" y="440.8" width="6.0" height="25.6" fill="#089981" stroke="#089981"/>
<line x1="291.2" y1="432.0" x2="291.2" y2="442.6" stroke="#089981" stroke-width="1.2"/>
<rect x="288.2" y="434.7" width="6.0" height="6.2" fill="#089981" stroke="#089981"/>
<line x1="300.4" y1="433.5" x2="300.4" y2="448.8" stroke="#f23645" stroke-width="1.2"/>
<rect x="297.4" y="434.7" width="6.0" height="5.3" fill="#f23645" stroke="#f23645"/>
<line x1="309.6" y1="434.1" x2="309.6" y2="444.4" stroke="#f23645" stroke-width="1.2"/>
<rect x="306.6" y="439.1" width="6.0" height="5.3" fill="#f23645" stroke="#f23645"/>
<line x1="318.8" y1="437.9" x2="318.8" y2="448.5" stroke="#f23645" stroke-width="1.2"/>
<rect x="315.8" y="444.1" width="6.0" height="2.4" fill="#f23645" stroke="#f23645"/>
<line x1="328.0" y1="418.8" x2="328.0" y2="464.3" stroke="#089981" stroke-width="1.2"/>
<rect x="325.0" y="426.7" width="6.0" height="19.7" fill="#089981" stroke="#089981"/>
<line x1="337.2" y1="426.7" x2="337.2" y2="459.6" stroke="#f23645" stroke-width="1.2"/>
<rect x="334.2" y="426.7" width="6.0" height="2.9" fill="#f23645" stroke="#f23645"/>
<line x1="346.4" y1="429.7" x2="346.4" y2="457.6" stroke="#f23645" stroke-width="1.2"/>
<rect x="343.5" y="438.5" width="6.0" height="5.0" fill="#f23645" stroke="#f23645"/>
<line x1="355.7" y1="438.5" x2="355.7" y2="464.6" stroke="#f23645" stroke-width="1.2"/>
<rect x="352.7" y="443.8" width="6.0" height="20.3" fill="#f23645" stroke="#f23645"/>
<line x1="364.9" y1="458.7" x2="364.9" y2="468.7" stroke="#089981" stroke-width="1.2"/>
<rect x="361.9" y="458.7" width="6.0" height="5.6" fill="#089981" stroke="#089981"/>
<line x1="374.1" y1="445.2" x2="374.1" y2="459.0" stroke="#089981" stroke-width="1.2"/>
<rect x="371.1" y="449.9" width="6.0" height="8.5" fill="#089981" stroke="#089981"/>
<line x1="383.3" y1="446.1" x2="383.3" y2="465.8" stroke="#f23645" stroke-width="1.2"/>
<rect x="380.3" y="449.9" width="6.0" height="14.1" fill="#f23645" stroke="#f23645"/>
<line x1="392.5" y1="450.8" x2="392.5" y2="465.8" stroke="#089981" stroke-width="1.2"/>
<rect x="389.5" y="462.0" width="6.0" height="2.1" fill="#089981" stroke="#089981"/>
<line x1="401.7" y1="454.6" x2="401.7" y2="465.2" stroke="#089981" stroke-width="1.2"/>
<rect x="398.7" y="457.9" width="6.0" height="3.2" fill="#089981" stroke="#089981"/>
<line x1="410.9" y1="455.5" x2="410.9" y2="477.5" stroke="#f23645" stroke-width="1.2"/>
<rect x="408.0" y="461.1" width="6.0" height="10.0" fill="#f23645" stroke="#f23645"/>
<line x1="420.2" y1="458.7" x2="420.2" y2="477.3" stroke="#f23645" stroke-width="1.2"/>
<rect x="417.2" y="470.8" width="6.0" height="1.5" fill="#f23645" stroke="#f23645"/>
<line x1="429.4" y1="454.0" x2="429.4" y2="472.0" stroke="#089981" stroke-width="1.2"/>
<rect x="426.4" y="456.7" width="6.0" height="14.1" fill="#089981" stroke="#089981"/>
<line x1="438.6" y1="440.8" x2="438.6" y2="463.7" stroke="#089981" stroke-width="1.2"/>
<rect x="435.6" y="442.6" width="6.0" height="14.1" fill="#089981" stroke="#089981"/>
<line x1="447.8" y1="442.6" x2="447.8" y2="463.7" stroke="#f23645" stroke-width="1.2"/>
<rect x="444.8" y="442.6" width="6.0" height="11.5" fill="#f23645" stroke="#f23645"/>
<line x1="457.0" y1="447.0" x2="457.0" y2="465.2" stroke="#089981" stroke-width="1.2"/>
<rect x="454.0" y="447.0" width="6.0" height="7.1" fill="#089981" stroke="#089981"/>
<line x1="466.2" y1="439.4" x2="466.2" y2="454.6" stroke="#f23645" stroke-width="1.2"/>
<rect x="463.3" y="447.0" width="6.0" height="5.6" fill="#f23645" stroke="#f23645"/>
<line x1="475.4" y1="442.9" x2="475.4" y2="466.1" stroke="#f23645" stroke-width="1.2"/>
<rect x="472.5" y="452.6" width="6.0" height="12.9" fill="#f23645" stroke="#f23645"/>
<line x1="484.7" y1="442.6" x2="484.7" y2="466.1" stroke="#089981" stroke-width="1.2"/>
<rect x="481.7" y="442.6" width="6.0" height="23.5" fill="#089981" stroke="#089981"/>
<line x1="493.9" y1="425.5" x2="493.9" y2="457.3" stroke="#f23645" stroke-width="1.2"/>
<rect x="490.9" y="442.9" width="6.0" height="3.8" fill="#f23645" stroke="#f23645"/>
<line x1="503.1" y1="417.3" x2="503.1" y2="449.6" stroke="#089981" stroke-width="1.2"/>
<rect x="500.1" y="429.7" width="6.0" height="17.0" fill="#089981" stroke="#089981"/>
<line x1="512.3" y1="426.1" x2="512.3" y2="435.0" stroke="#f23645" stroke-width="1.2"/>
<rect x="509.3" y="429.4" width="6.0" height="1.5" fill="#f23645" stroke="#f23645"/>
<line x1="521.5" y1="427.0" x2="521.5" y2="437.9" stroke="#f23645" stroke-width="1.2"/>
<rect x="518.5" y="430.5" width="6.0" height="2.6" fill="#f23645" stroke="#f23645"/>
<line x1="530.7" y1="416.7" x2="530.7" y2="437.3" stroke="#f23645" stroke-width="1.2"/>
<rect x="527.8" y="434.1" width="6.0" height="1.5" fill="#f23645" stroke="#f23645"/>
<line x1="539.9" y1="432.9" x2="539.9" y2="444.9" stroke="#f23645" stroke-width="1.2"/>
<rect x="537.0" y="435.0" width="6.0" height="2.9" fill="#f23645" stroke="#f23645"/>
<line x1="549.2" y1="434.1" x2="549.2" y2="446.4" stroke="#f23645" stroke-width="1.2"/>
<rect x="546.2" y="438.8" width="6.0" height="7.3" fill="#f23645" stroke="#f23645"/>
<line x1="558.4" y1="437.0" x2="558.4" y2="459.3" stroke="#f23645" stroke-width="1.2"/>
<rect x="555.4" y="446.1" width="6.0" height="2.1" fill="#f23645" stroke="#f23645"/>
<line x1="567.6" y1="444.9" x2="567.6" y2="458.5" stroke="#f23645" stroke-width="1.2"/>
<rect x="564.6" y="448.2" width="6.0" height="2.4" fill="#f23645" stroke="#f23645"/>
<line x1="576.8" y1="440.5" x2="576.8" y2="459.0" stroke="#089981" stroke-width="1.2"/>
<rect x="573.8" y="440.8" width="6.0" height="9.7" fill="#089981" stroke="#089981"/>
<line x1="586.0" y1="435.0" x2="586.0" y2="450.2" stroke="#089981" stroke-width="1.2"/>
<rect x="583.0" y="435.2" width="6.0" height="5.9" fill="#089981" stroke="#089981"/>
<line x1="595.2" y1="430.5" x2="595.2" y2="451.7" stroke="#089981" stroke-width="1.2"/>
<rect x="592.3" y="432.0" width="6.0" height="3.2" fill="#089981" stroke="#089981"/>
<line x1="604.5" y1="426.1" x2="604.5" y2="438.5" stroke="#f23645" stroke-width="1.2"/>
<rect x="601.5" y="431.4" width="6.0" height="1.5" fill="#f23645" stroke="#f23645"/>
<line x1="613.7" y1="416.1" x2="613.7" y2="437.3" stroke="#089981" stroke-width="1.2"/>
<rect x="610.7" y="423.8" width="6.0" height="7.9" fill="#089981" stroke="#089981"/>
<line x1="622.9" y1="396.8" x2="622.9" y2="423.8" stroke="#089981" stroke-width="1.2"/>
<rect x="619.9" y="400.3" width="6.0" height="23.2" fill="#089981" stroke="#089981"/>
<line x1="632.1" y1="395.9" x2="632.1" y2="410.0" stroke="#f23645" stroke-width="1.2"/>
<rect x="629.1" y="399.4" width="6.0" height="10.6" fill="#f23645" stroke="#f23645"/>
<line x1="641.3" y1="408.8" x2="641.3" y2="441.7" stroke="#f23645" stroke-width="1.2"/>
<rect x="638.3" y="410.0" width="6.0" height="26.4" fill="#f23645" stroke="#f23645"/>
<line x1="650.5" y1="413.2" x2="650.5" y2="454.0" stroke="#f23645" stroke-width="1.2"/>
<rect x="647.5" y="432.0" width="6.0" height="1.8" fill="#f23645" stroke="#f23645"/>
<line x1="659.7" y1="409.7" x2="659.7" y2="433.8" stroke="#089981" stroke-width="1.2"/>
<rect x="656.8" y="412.3" width="6.0" height="21.4" fill="#089981" stroke="#089981"/>
<line x1="669.0" y1="388.8" x2="669.0" y2="436.4" stroke="#f23645" stroke-width="1.2"/>
<rect x="666.0" y="412.3" width="6.0" height="18.2" fill="#f23645" stroke="#f23645"/>
<line x1="678.2" y1="426.7" x2="678.2" y2="473.7" stroke="#f23645" stroke-width="1.2"/>
<rect x="675.2" y="430.2" width="6.0" height="31.7" fill="#f23645" stroke="#f23645"/>
<line x1="687.4" y1="366.8" x2="687.4" y2="493.4" stroke="#089981" stroke-width="1.2"/>
<rect x="684.4" y="368.8" width="6.0" height="93.7" fill="#089981" stroke="#089981"/>
<line x1="696.6" y1="347.7" x2="696.6" y2="400.0" stroke="#089981" stroke-width="1.2"/>
<rect x="693.6" y="349.8" width="6.0" height="19.4" fill="#089981" stroke="#089981"/>
<line x1="705.8" y1="338.3" x2="705.8" y2="396.5" stroke="#f23645" stroke-width="1.2"/>
<rect x="702.8" y="350.0" width="6.0" height="25.6" fill="#f23645" stroke="#f23645"/>
<line x1="715.0" y1="317.4" x2="715.0" y2="379.4" stroke="#089981" stroke-width="1.2"/>
<rect x="712.0" y="354.7" width="6.0" height="20.9" fill="#089981" stroke="#089981"/>
<line x1="724.2" y1="353.0" x2="724.2" y2="443.5" stroke="#f23645" stroke-width="1.2"/>
<rect x="721.3" y="353.3" width="6.0" height="82.3" fill="#f23645" stroke="#f23645"/>
<line x1="733.5" y1="417.0" x2="733.5" y2="474.6" stroke="#f23645" stroke-width="1.2"/>
<rect x="730.5" y="435.8" width="6.0" height="2.6" fill="#f23645" stroke="#f23645"/>
<line x1="742.7" y1="360.3" x2="742.7" y2="525.1" stroke="#089981" stroke-width="1.2"/>
<rect x="739.7" y="380.6" width="6.0" height="144.5" fill="#089981" stroke="#089981"/>
<line x1="751.9" y1="350.3" x2="751.9" y2="382.4" stroke="#089981" stroke-width="1.2"/>
<rect x="748.9" y="355.3" width="6.0" height="25.6" fill="#089981" stroke="#089981"/>
<line x1="761.1" y1="320.1" x2="761.1" y2="367.1" stroke="#f23645" stroke-width="1.2"/>
<rect x="758.1" y="354.7" width="6.0" height="7.6" fill="#f23645" stroke="#f23645"/>
<line x1="770.3" y1="336.5" x2="770.3" y2="388.2" stroke="#f23645" stroke-width="1.2"/>
<rect x="767.3" y="362.4" width="6.0" height="22.6" fill="#f23645" stroke="#f23645"/>
<line x1="779.5" y1="311.6" x2="779.5" y2="396.2" stroke="#089981" stroke-width="1.2"/>
<rect x="776.5" y="343.9" width="6.0" height="41.7" fill="#089981" stroke="#089981"/>
<line x1="788.7" y1="295.1" x2="788.7" y2="354.7" stroke="#089981" stroke-width="1.2"/>
<rect x="785.8" y="295.4" width="6.0" height="48.8" fill="#089981" stroke="#089981"/>
<line x1="798.0" y1="246.9" x2="798.0" y2="299.5" stroke="#089981" stroke-width="1.2"/>
<rect x="795.0" y="247.5" width="6.0" height="47.0" fill="#089981" stroke="#089981"/>
<line x1="807.2" y1="246.6" x2="807.2" y2="289.8" stroke="#f23645" stroke-width="1.2"/>
<rect x="804.2" y="247.2" width="6.0" height="41.1" fill="#f23645" stroke="#f23645"/>
<line x1="816.4" y1="276.3" x2="816.4" y2="325.1" stroke="#089981" stroke-width="1.2"/>
<rect x="813.4" y="277.2" width="6.0" height="11.5" fill="#089981" stroke="#089981"/>
<line x1="825.6" y1="261.6" x2="825.6" y2="306.9" stroke="#f23645" stroke-width="1.2"/>
<rect x="822.6" y="277.5" width="6.0" height="21.4" fill="#f23645" stroke="#f23645"/>
<line x1="834.8" y1="217.0" x2="834.8" y2="298.6" stroke="#089981" stroke-width="1.2"/>
<rect x="831.8" y="251.0" width="6.0" height="47.6" fill="#089981" stroke="#089981"/>
<line x1="844.0" y1="224.9" x2="844.0" y2="258.4" stroke="#f23645" stroke-width="1.2"/>
<rect x="841.1" y="251.3" width="6.0" height="6.2" fill="#f23645" stroke="#f23645"/>
<line x1="853.2" y1="140.6" x2="853.2" y2="265.1" stroke="#089981" stroke-width="1.2"/>
<rect x="850.3" y="174.7" width="6.0" height="83.4" fill="#089981" stroke="#089981"/>
<line x1="862.5" y1="119.1" x2="862.5" y2="174.9" stroke="#089981" stroke-width="1.2"/>
<rect x="859.5" y="158.2" width="6.0" height="16.7" fill="#089981" stroke="#089981"/>
<line x1="871.7" y1="142.6" x2="871.7" y2="190.8" stroke="#f23645" stroke-width="1.2"/>
<rect x="868.7" y="158.2" width="6.0" height="21.2" fill="#f23645" stroke="#f23645"/>
<line x1="880.9" y1="165.0" x2="880.9" y2="218.4" stroke="#f23645" stroke-width="1.2"/>
<rect x="877.9" y="176.7" width="6.0" height="29.1" fill="#f23645" stroke="#f23645"/>
<line x1="890.1" y1="139.1" x2="890.1" y2="323.6" stroke="#f23645" stroke-width="1.2"/>
<rect x="887.1" y="205.8" width="6.0" height="117.5" fill="#f23645" stroke="#f23645"/>
<line x1="899.3" y1="305.7" x2="899.3" y2="337.1" stroke="#089981" stroke-width="1.2"/>
<rect x="896.3" y="308.3" width="6.0" height="14.1" fill="#089981" stroke="#089981"/>
<line x1="908.5" y1="299.5" x2="908.5" y2="397.1" stroke="#f23645" stroke-width="1.2"/>
<rect x="905.6" y="308.3" width="6.0" height="82.3" fill="#f23645" stroke="#f23645"/>
<line x1="917.7" y1="364.7" x2="917.7" y2="403.8" stroke="#089981" stroke-width="1.2"/>
<rect x="914.8" y="372.1" width="6.0" height="19.1" fill="#089981" stroke="#089981"/>
<line x1="927.0" y1="370.3" x2="927.0" y2="410.6" stroke="#f23645" stroke-width="1.2"/>
<rect x="924.0" y="372.4" width="6.0" height="12.0" fill="#f23645" stroke="#f23645"/>
<line x1="936.2" y1="377.4" x2="936.2" y2="434.7" stroke="#f23645" stroke-width="1.2"/>
<rect x="933.2" y="384.4" width="6.0" height="43.2" fill="#f23645" stroke="#f23645"/>
<line x1="945.4" y1="419.7" x2="945.4" y2="481.7" stroke="#f23645" stroke-width="1.2"/>
<rect x="942.4" y="428.2" width="6.0" height="15.9" fill="#f23645" stroke="#f23645"/>
<line x1="954.6" y1="444.1" x2="954.6" y2="496.6" stroke="#f23645" stroke-width="1.2"/>
<rect x="951.6" y="444.1" width="6.0" height="28.5" fill="#f23645" stroke="#f23645"/>
<line x1="963.8" y1="385.3" x2="963.8" y2="475.8" stroke="#089981" stroke-width="1.2"/>
<rect x="960.8" y="418.5" width="6.0" height="53.5" fill="#089981" stroke="#089981"/>
<line x1="973.0" y1="380.9" x2="973.0" y2="483.1" stroke="#f23645" stroke-width="1.2"/>
<rect x="970.1" y="418.5" width="6.0" height="47.9" fill="#f23645" stroke="#f23645"/>
<line x1="982.3" y1="398.8" x2="982.3" y2="499.9" stroke="#089981" stroke-width="1.2"/>
<rect x="979.3" y="431.7" width="6.0" height="35.0" fill="#089981" stroke="#089981"/>
<line x1="991.5" y1="375.6" x2="991.5" y2="435.2" stroke="#089981" stroke-width="1.2"/>
<rect x="988.5" y="417.0" width="6.0" height="14.4" fill="#089981" stroke="#089981"/>
<line x1="1000.7" y1="405.9" x2="1000.7" y2="454.3" stroke="#f23645" stroke-width="1.2"/>
<rect x="997.7" y="417.3" width="6.0" height="10.9" fill="#f23645" stroke="#f23645"/>
<line x1="1009.9" y1="400.9" x2="1009.9" y2="453.2" stroke="#f23645" stroke-width="1.2"/>
<rect x="1006.9" y="428.2" width="6.0" height="6.5" fill="#f23645" stroke="#f23645"/>
<line x1="1019.1" y1="417.3" x2="1019.1" y2="460.8" stroke="#089981" stroke-width="1.2"/>
<rect x="1016.1" y="423.8" width="6.0" height="10.3" fill="#089981" stroke="#089981"/>
<line x1="1028.3" y1="381.5" x2="1028.3" y2="424.7" stroke="#089981" stroke-width="1.2"/>
<rect x="1025.3" y="392.6" width="6.0" height="31.4" fill="#089981" stroke="#089981"/>
<line x1="1037.5" y1="390.9" x2="1037.5" y2="411.7" stroke="#f23645" stroke-width="1.2"/>
<rect x="1034.6" y="392.4" width="6.0" height="8.5" fill="#f23645" stroke="#f23645"/>
<line x1="1046.8" y1="375.6" x2="1046.8" y2="411.2" stroke="#f23645" stroke-width="1.2"/>
<rect x="1043.8" y="400.9" width="6.0" height="2.9" fill="#f23645" stroke="#f23645"/>
<line x1="1056.0" y1="343.9" x2="1056.0" y2="406.7" stroke="#089981" stroke-width="1.2"/>
<rect x="1053.0" y="352.7" width="6.0" height="51.4" fill="#089981" stroke="#089981"/>
<line x1="1065.2" y1="325.7" x2="1065.2" y2="358.3" stroke="#089981" stroke-width="1.2"/>
<rect x="1062.2" y="337.7" width="6.0" height="15.0" fill="#089981" stroke="#089981"/>
<line x1="1074.4" y1="332.7" x2="1074.4" y2="350.0" stroke="#f23645" stroke-width="1.2"/>
<rect x="1071.4" y="338.0" width="6.0" height="6.5" fill="#f23645" stroke="#f23645"/>
<line x1="1083.6" y1="334.5" x2="1083.6" y2="352.1" stroke="#f23645" stroke-width="1.2"/>
<rect x="1080.6" y="344.2" width="6.0" height="2.1" fill="#f23645" stroke="#f23645"/>
<line x1="1092.8" y1="329.2" x2="1092.8" y2="358.6" stroke="#089981" stroke-width="1.2"/>
<rect x="1089.8" y="343.3" width="6.0" height="3.2" fill="#089981" stroke="#089981"/>
<line x1="1102.0" y1="331.5" x2="1102.0" y2="358.3" stroke="#089981" stroke-width="1.2"/>
<rect x="1099.1" y="343.6" width="6.0" height="1.5" fill="#089981" stroke="#089981"/>
<line x1="1111.3" y1="280.4" x2="1111.3" y2="343.6" stroke="#089981" stroke-width="1.2"/>
<rect x="1108.3" y="282.5" width="6.0" height="60.8" fill="#089981" stroke="#089981"/>
<line x1="1120.5" y1="253.1" x2="1120.5" y2="284.5" stroke="#089981" stroke-width="1.2"/>
<rect x="1117.5" y="257.5" width="6.0" height="24.7" fill="#089981" stroke="#089981"/>
<line x1="1129.7" y1="256.3" x2="1129.7" y2="301.0" stroke="#f23645" stroke-width="1.2"/>
<rect x="1126.7" y="256.3" width="6.0" height="28.5" fill="#f23645" stroke="#f23645"/>
<line x1="1138.9" y1="265.4" x2="1138.9" y2="297.2" stroke="#089981" stroke-width="1.2"/>
<rect x="1135.9" y="270.7" width="6.0" height="14.7" fill="#089981" stroke="#089981"/>
<line x1="1148.1" y1="231.6" x2="1148.1" y2="271.3" stroke="#089981" stroke-width="1.2"/>
<rect x="1145.1" y="241.0" width="6.0" height="29.4" fill="#089981" stroke="#089981"/>
<line x1="1157.3" y1="211.7" x2="1157.3" y2="257.2" stroke="#f23645" stroke-width="1.2"/>
<rect x="1154.4" y="241.0" width="6.0" height="12.9" fill="#f23645" stroke="#f23645"/>
<line x1="1166.5" y1="240.8" x2="1166.5" y2="259.9" stroke="#089981" stroke-width="1.2"/>
<rect x="1163.6" y="252.2" width="6.0" height="1.5" fill="#089981" stroke="#089981"/>
<line x1="1175.8" y1="231.9" x2="1175.8" y2="277.8" stroke="#f23645" stroke-width="1.2"/>
<rect x="1172.8" y="252.5" width="6.0" height="18.2" fill="#f23645" stroke="#f23645"/>
<line x1="1185.0" y1="263.1" x2="1185.0" y2="297.7" stroke="#f23645" stroke-width="1.2"/>
<rect x="1182.0" y="271.0" width="6.0" height="16.7" fill="#f23645" stroke="#f23645"/>
<line x1="1194.2" y1="266.6" x2="1194.2" y2="288.1" stroke="#089981" stroke-width="1.2"/>
<rect x="1191.2" y="283.9" width="6.0" height="4.1" fill="#089981" stroke="#089981"/>
<line x1="1203.4" y1="252.2" x2="1203.4" y2="294.8" stroke="#089981" stroke-width="1.2"/>
<rect x="1200.4" y="266.0" width="6.0" height="17.9" fill="#089981" stroke="#089981"/>
<line x1="1212.6" y1="251.6" x2="1212.6" y2="274.0" stroke="#089981" stroke-width="1.2"/>
<rect x="1209.6" y="258.7" width="6.0" height="7.9" fill="#089981" stroke="#089981"/>
<line x1="1221.8" y1="243.4" x2="1221.8" y2="276.0" stroke="#f23645" stroke-width="1.2"/>
<rect x="1218.9" y="258.7" width="6.0" height="5.3" fill="#f23645" stroke="#f23645"/>
<line x1="1231.0" y1="231.1" x2="1231.0" y2="267.5" stroke="#089981" stroke-width="1.2"/>
<rect x="1228.1" y="251.6" width="6.0" height="11.8" fill="#089981" stroke="#089981"/>
<line x1="1240.3" y1="245.2" x2="1240.3" y2="279.5" stroke="#f23645" stroke-width="1.2"/>
<rect x="1237.3" y="251.0" width="6.0" height="16.2" fill="#f23645" stroke="#f23645"/>
<line x1="1249.5" y1="259.0" x2="1249.5" y2="283.1" stroke="#f23645" stroke-width="1.2"/>
<rect x="1246.5" y="268.1" width="6.0" height="14.1" fill="#f23645" stroke="#f23645"/>
<line x1="1258.7" y1="269.3" x2="1258.7" y2="283.4" stroke="#089981" stroke-width="1.2"/>
<rect x="1255.7" y="274.8" width="6.0" height="8.2" fill="#089981" stroke="#089981"/>
<line x1="1267.9" y1="274.2" x2="1267.9" y2="287.5" stroke="#f23645" stroke-width="1.2"/>
<rect x="1264.9" y="275.1" width="6.0" height="10.0" fill="#f23645" stroke="#f23645"/>
<line x1="1277.1" y1="255.1" x2="1277.1" y2="286.0" stroke="#089981" stroke-width="1.2"/>
<rect x="1274.1" y="255.7" width="6.0" height="29.4" fill="#089981" stroke="#089981"/>
<line x1="1286.3" y1="232.2" x2="1286.3" y2="263.4" stroke="#089981" stroke-width="1.2"/>
<rect x="1283.4" y="232.2" width="6.0" height="23.8" fill="#089981" stroke="#089981"/>
<line x1="1295.5" y1="196.1" x2="1295.5" y2="235.8" stroke="#089981" stroke-width="1.2"/>
<rect x="1292.6" y="198.4" width="6.0" height="33.8" fill="#089981" stroke="#089981"/>
<line x1="1304.8" y1="187.0" x2="1304.8" y2="217.3" stroke="#f23645" stroke-width="1.2"/>
<rect x="1301.8" y="198.2" width="6.0" height="1.5" fill="#f23645" stroke="#f23645"/>
<line x1="1314.0" y1="161.7" x2="1314.0" y2="203.4" stroke="#089981" stroke-width="1.2"/>
<rect x="1311.0" y="164.7" width="6.0" height="35.5" fill="#089981" stroke="#089981"/>
<line x1="1323.2" y1="164.7" x2="1323.2" y2="184.1" stroke="#f23645" stroke-width="1.2"/>
<rect x="1320.2" y="164.7" width="6.0" height="9.7" fill="#f23645" stroke="#f23645"/>
<line x1="1332.4" y1="172.9" x2="1332.4" y2="212.3" stroke="#f23645" stroke-width="1.2"/>
<rect x="1329.4" y="174.4" width="6.0" height="21.2" fill="#f23645" stroke="#f23645"/>
<line x1="1341.6" y1="186.1" x2="1341.6" y2="220.2" stroke="#f23645" stroke-width="1.2"/>
<rect x="1338.6" y="195.8" width="6.0" height="20.0" fill="#f23645" stroke="#f23645"/>
<line x1="1350.8" y1="205.8" x2="1350.8" y2="222.5" stroke="#089981" stroke-width="1.2"/>
<rect x="1347.9" y="210.5" width="6.0" height="5.9" fill="#089981" stroke="#089981"/>
<line x1="1360.1" y1="204.9" x2="1360.1" y2="217.5" stroke="#f23645" stroke-width="1.2"/>
<rect x="1357.1" y="210.8" width="6.0" height="1.5" fill="#f23645" stroke="#f23645"/>
<line x1="1369.3" y1="196.7" x2="1369.3" y2="217.3" stroke="#f23645" stroke-width="1.2"/>
<rect x="1366.3" y="211.4" width="6.0" height="2.4" fill="#f23645" stroke="#f23645"/>
<line x1="1378.5" y1="207.0" x2="1378.5" y2="227.5" stroke="#f23645" stroke-width="1.2"/>
<rect x="1375.5" y="213.1" width="6.0" height="2.6" fill="#f23645" stroke="#f23645"/>
<line x1="1387.7" y1="212.5" x2="1387.7" y2="241.3" stroke="#f23645" stroke-width="1.2"/>
<rect x="1384.7" y="216.1" width="6.0" height="25.3" fill="#f23645" stroke="#f23645"/>
<line x1="1396.9" y1="231.6" x2="1396.9" y2="256.0" stroke="#f23645" stroke-width="1.2"/>
<rect x="1393.9" y="241.0" width="6.0" height="11.5" fill="#f23645" stroke="#f23645"/>
<line x1="1406.1" y1="232.8" x2="1406.1" y2="261.9" stroke="#089981" stroke-width="1.2"/>
<rect x="1403.1" y="244.0" width="6.0" height="8.2" fill="#089981" stroke="#089981"/>
<line x1="1415.3" y1="224.0" x2="1415.3" y2="244.6" stroke="#089981" stroke-width="1.2"/>
<rect x="1412.4" y="233.7" width="6.0" height="10.6" fill="#089981" stroke="#089981"/>
<line x1="1424.6" y1="219.3" x2="1424.6" y2="259.9" stroke="#f23645" stroke-width="1.2"/>
<rect x="1421.6" y="234.0" width="6.0" height="22.6" fill="#f23645" stroke="#f23645"/>
<line x1="1433.8" y1="240.5" x2="1433.8" y2="257.5" stroke="#089981" stroke-width="1.2"/>
<rect x="1430.8" y="241.3" width="6.0" height="15.3" fill="#089981" stroke="#089981"/>
<line x1="1443.0" y1="239.0" x2="1443.0" y2="265.7" stroke="#f23645" stroke-width="1.2"/>
<rect x="1440.0" y="241.6" width="6.0" height="8.2" fill="#f23645" stroke="#f23645"/>
<line x1="1452.2" y1="239.3" x2="1452.2" y2="251.3" stroke="#089981" stroke-width="1.2"/>
<rect x="1449.2" y="247.5" width="6.0" height="2.6" fill="#089981" stroke="#089981"/>
<line x1="1461.4" y1="237.2" x2="1461.4" y2="253.4" stroke="#089981" stroke-width="1.2"/>
<rect x="1458.4" y="243.4" width="6.0" height="3.8" fill="#089981" stroke="#089981"/>
<line x1="1470.6" y1="240.5" x2="1470.6" y2="268.1" stroke="#f23645" stroke-width="1.2"/>
<rect x="1467.6" y="241.3" width="6.0" height="15.0" fill="#f23645" stroke="#f23645"/>
<line x1="1479.8" y1="254.3" x2="1479.8" y2="274.5" stroke="#f23645" stroke-width="1.2"/>
<rect x="1476.9" y="255.4" width="6.0" height="4.4" fill="#f23645" stroke="#f23645"/>
<line x1="1489.1" y1="250.7" x2="1489.1" y2="270.4" stroke="#f23645" stroke-width="1.2"/>
<rect x="1486.1" y="259.6" width="6.0" height="1.8" fill="#f23645" stroke="#f23645"/>
<line x1="1498.3" y1="251.0" x2="1498.3" y2="262.8" stroke="#089981" stroke-width="1.2"/>
<rect x="1495.3" y="251.6" width="6.0" height="10.0" fill="#089981" stroke="#089981"/>
<line x1="1507.5" y1="251.0" x2="1507.5" y2="287.2" stroke="#f23645" stroke-width="1.2"/>
<rect x="1504.5" y="251.3" width="6.0" height="27.0" fill="#f23645" stroke="#f23645"/>
<line x1="1516.7" y1="263.4" x2="1516.7" y2="290.1" stroke="#f23645" stroke-width="1.2"/>
<rect x="1513.7" y="278.4" width="6.0" height="1.5" fill="#f23645" stroke="#f23645"/>
<line x1="1525.9" y1="264.0" x2="1525.9" y2="281.9" stroke="#089981" stroke-width="1.2"/>
<rect x="1522.9" y="277.5" width="6.0" height="2.1" fill="#089981" stroke="#089981"/>
<line x1="1535.1" y1="214.0" x2="1535.1" y2="280.7" stroke="#089981" stroke-width="1.2"/>
<rect x="1532.2" y="240.2" width="6.0" height="37.6" fill="#089981" stroke="#089981"/>
<line x1="1544.3" y1="222.5" x2="1544.3" y2="284.8" stroke="#089981" stroke-width="1.2"/>
<rect x="1541.4" y="235.2" width="6.0" height="4.7" fill="#089981" stroke="#089981"/>
<line x1="1553.6" y1="234.6" x2="1553.6" y2="346.8" stroke="#f23645" stroke-width="1.2"/>
<rect x="1550.6" y="234.6" width="6.0" height="105.8" fill="#f23645" stroke="#f23645"/>
<line x1="1562.8" y1="301.3" x2="1562.8" y2="349.5" stroke="#089981" stroke-width="1.2"/>
<rect x="1559.8" y="325.7" width="6.0" height="14.1" fill="#089981" stroke="#089981"/>
<line x1="1572.0" y1="317.4" x2="1572.0" y2="394.4" stroke="#f23645" stroke-width="1.2"/>
<rect x="1569.0" y="326.2" width="6.0" height="55.8" fill="#f23645" stroke="#f23645"/>
<line x1="1581.2" y1="380.0" x2="1581.2" y2="503.1" stroke="#f23645" stroke-width="1.2"/>
<rect x="1578.2" y="382.1" width="6.0" height="49.1" fill="#f23645" stroke="#f23645"/>
<line x1="1590.4" y1="432.9" x2="1590.4" y2="606.2" stroke="#f23645" stroke-width="1.2"/>
<rect x="1587.4" y="433.5" width="6.0" height="127.2" fill="#f23645" stroke="#f23645"/>
<line x1="1599.6" y1="520.4" x2="1599.6" y2="568.9" stroke="#089981" stroke-width="1.2"/>
<rect x="1596.7" y="542.5" width="6.0" height="18.5" fill="#089981" stroke="#089981"/>
<line x1="1608.8" y1="542.5" x2="1608.8" y2="644.1" stroke="#f23645" stroke-width="1.2"/>
<rect x="1605.9" y="542.5" width="6.0" height="59.3" fill="#f23645" stroke="#f23645"/>
<line x1="1618.1" y1="516.9" x2="1618.1" y2="653.2" stroke="#089981" stroke-width="1.2"/>
<rect x="1615.1" y="529.3" width="6.0" height="72.3" fill="#089981" stroke="#089981"/>
<line x1="1627.3" y1="440.2" x2="1627.3" y2="529.0" stroke="#089981" stroke-width="1.2"/>
<rect x="1624.3" y="518.7" width="6.0" height="10.0" fill="#089981" stroke="#089981"/>
<line x1="1636.5" y1="429.4" x2="1636.5" y2="518.1" stroke="#089981" stroke-width="1.2"/>
<rect x="1633.5" y="463.7" width="6.0" height="54.4" fill="#089981" stroke="#089981"/>
<line x1="1645.7" y1="444.4" x2="1645.7" y2="489.3" stroke="#089981" stroke-width="1.2"/>
<rect x="1642.7" y="460.2" width="6.0" height="2.9" fill="#089981" stroke="#089981"/>
<line x1="1654.9" y1="457.9" x2="1654.9" y2="520.7" stroke="#f23645" stroke-width="1.2"/>
<rect x="1651.9" y="460.8" width="6.0" height="52.6" fill="#f23645" stroke="#f23645"/>
<line x1="1664.1" y1="438.2" x2="1664.1" y2="539.5" stroke="#089981" stroke-width="1.2"/>
<rect x="1661.2" y="454.6" width="6.0" height="60.2" fill="#089981" stroke="#089981"/>
<line x1="1673.4" y1="435.8" x2="1673.4" y2="509.0" stroke="#f23645" stroke-width="1.2"/>
<rect x="1670.4" y="455.2" width="6.0" height="14.1" fill="#f23645" stroke="#f23645"/>
<line x1="1682.6" y1="435.5" x2="1682.6" y2="493.7" stroke="#f23645" stroke-width="1.2"/>
<rect x="1679.6" y="468.7" width="6.0" height="12.9" fill="#f23645" stroke="#f23645"/>
<line x1="1691.8" y1="459.9" x2="1691.8" y2="544.5" stroke="#f23645" stroke-width="1.2"/>
<rect x="1688.8" y="482.0" width="6.0" height="58.5" fill="#f23645" stroke="#f23645"/>
<line x1="1701.0" y1="536.6" x2="1701.0" y2="618.0" stroke="#f23645" stroke-width="1.2"/>
<rect x="1698.0" y="540.1" width="6.0" height="56.1" fill="#f23645" stroke="#f23645"/>
<line x1="1710.2" y1="578.3" x2="1710.2" y2="641.8" stroke="#089981" stroke-width="1.2"/>
<rect x="1707.2" y="580.7" width="6.0" height="15.3" fill="#089981" stroke="#089981"/>
<line x1="1719.4" y1="568.6" x2="1719.4" y2="629.1" stroke="#f23645" stroke-width="1.2"/>
<rect x="1716.4" y="581.0" width="6.0" height="20.3" fill="#f23645" stroke="#f23645"/>
<line x1="1728.6" y1="578.9" x2="1728.6" y2="641.8" stroke="#f23645" stroke-width="1.2"/>
<rect x="1725.7" y="600.9" width="6.0" height="10.6" fill="#f23645" stroke="#f23645"/>
<line x1="1737.9" y1="571.9" x2="1737.9" y2="686.7" stroke="#f23645" stroke-width="1.2"/>
<rect x="1734.9" y="611.2" width="6.0" height="45.5" fill="#f23645" stroke="#f23645"/>
<line x1="1747.1" y1="620.6" x2="1747.1" y2="680.3" stroke="#089981" stroke-width="1.2"/>
<rect x="1744.1" y="640.0" width="6.0" height="17.3" fill="#089981" stroke="#089981"/>
<line x1="1756.3" y1="601.2" x2="1756.3" y2="683.2" stroke="#089981" stroke-width="1.2"/>
<rect x="1753.3" y="610.6" width="6.0" height="28.8" fill="#089981" stroke="#089981"/>
<line x1="1765.5" y1="596.5" x2="1765.5" y2="675.6" stroke="#f23645" stroke-width="1.2"/>
<rect x="1762.5" y="614.2" width="6.0" height="24.7" fill="#f23645" stroke="#f23645"/>
<line x1="1774.7" y1="601.5" x2="1774.7" y2="691.7" stroke="#089981" stroke-width="1.2"/>
<rect x="1771.7" y="603.9" width="6.0" height="41.7" fill="#089981" stroke="#089981"/>
<line x1="1783.9" y1="546.3" x2="1783.9" y2="617.1" stroke="#089981" stroke-width="1.2"/>
<rect x="1780.9" y="580.7" width="6.0" height="20.6" fill="#089981" stroke="#089981"/>
<line x1="1793.1" y1="521.3" x2="1793.1" y2="594.2" stroke="#089981" stroke-width="1.2"/>
<rect x="1790.2" y="525.4" width="6.0" height="55.2" fill="#089981" stroke="#089981"/>
<line x1="1802.4" y1="481.1" x2="1802.4" y2="553.1" stroke="#089981" stroke-width="1.2"/>
<rect x="1799.4" y="502.8" width="6.0" height="22.0" fill="#089981" stroke="#089981"/>
<line x1="1811.6" y1="472.6" x2="1811.6" y2="534.0" stroke="#f23645" stroke-width="1.2"/>
<rect x="1808.6" y="502.5" width="6.0" height="30.8" fill="#f23645" stroke="#f23645"/>
<line x1="1820.8" y1="513.1" x2="1820.8" y2="567.7" stroke="#089981" stroke-width="1.2"/>
<rect x="1817.8" y="531.6" width="6.0" height="1.5" fill="#089981" stroke="#089981"/>
<line x1="1830.0" y1="437.6" x2="1830.0" y2="544.2" stroke="#089981" stroke-width="1.2"/>
<rect x="1827.0" y="440.2" width="6.0" height="90.8" fill="#089981" stroke="#089981"/>
<polyline points="70.0,615.8 79.2,579.8 88.4,519.4 97.6,472.9 106.9,442.7 116.1,405.9 125.3,398.4 134.5,390.5 143.7,379.6 152.9,379.1 162.1,384.5 171.4,404.4 180.6,415.8 189.8,435.6 199.0,459.6 208.2,465.3 217.4,464.3 226.6,463.0 235.9,470.1 245.1,473.3 254.3,474.7 263.5,471.4 272.7,469.9 281.9,460.2 291.2,451.7 300.4,447.8 309.6,446.6 318.8,446.6 328.0,439.9 337.2,436.5 346.4,438.8 355.7,447.2 364.9,451.1 374.1,450.7 383.3,455.1 392.5,457.4 401.7,457.6 410.9,462.1 420.2,465.2 429.4,462.3 438.6,455.8 447.8,455.2 457.0,452.5 466.2,452.5 475.4,456.8 484.7,452.1 493.9,450.3 503.1,443.4 512.3,439.1 521.5,437.1 530.7,436.6 539.9,437.0 549.2,440.1 558.4,442.8 567.6,445.4 576.8,443.8 586.0,441.0 595.2,438.0 604.5,435.9 613.7,431.9 622.9,421.3 632.1,417.5 641.3,423.8 650.5,427.2 659.7,422.2 669.0,425.0 678.2,437.3 687.4,414.5 696.6,392.9 705.8,387.1 715.0,376.3 724.2,396.1 733.5,410.2 742.7,400.3 751.9,385.3 761.1,377.7 770.3,380.1 779.5,368.0 788.7,343.8 798.0,311.7 807.2,303.9 816.4,295.0 825.6,296.3 834.8,281.2 844.0,273.3 853.2,240.4 862.5,213.0 871.7,201.8 880.9,203.1 890.1,243.2 899.3,264.9 908.5,306.8 917.7,328.6 927.0,347.2 936.2,374.0 945.4,397.3 954.6,422.4 963.8,421.1 973.0,436.2 982.3,434.7 991.5,428.8 1000.7,428.6 1009.9,430.6 1019.1,428.3 1028.3,416.4 1037.5,411.3 1046.8,408.8 1056.0,390.1 1065.2,372.6 1074.4,363.2 1083.6,357.6 1092.8,352.8 1102.0,349.7 1111.3,327.3 1120.5,304.0 1129.7,297.6 1138.9,288.7 1148.1,272.8 1157.3,266.5 1166.5,261.7 1175.8,264.7 1185.0,272.4 1194.2,276.3 1203.4,272.8 1212.6,268.1 1221.8,266.7 1231.0,261.7 1240.3,263.5 1249.5,269.7 1258.7,271.4 1267.9,276.0 1277.1,269.2 1286.3,256.9 1295.5,237.4 1304.8,224.7 1314.0,204.7 1323.2,194.6 1332.4,194.9 1341.6,201.9 1350.8,204.7 1360.1,206.9 1369.3,209.2 1378.5,211.4 1387.7,221.4 1396.9,231.8 1406.1,235.8 1415.3,235.1 1424.6,242.3 1433.8,242.0 1443.0,244.6 1452.2,245.6 1461.4,244.8 1470.6,248.7 1479.8,252.4 1489.1,255.4 1498.3,254.1 1507.5,262.2 1516.7,267.9 1525.9,271.1 1535.1,260.8 1544.3,252.2 1553.6,281.6 1562.8,296.3 1572.0,324.9 1581.2,360.3 1590.4,427.1 1599.6,465.6 1608.8,511.0 1618.1,517.1 1627.3,517.6 1636.5,499.7 1645.7,486.5 1654.9,495.5 1664.1,481.9 1673.4,477.7 1682.6,479.0 1691.8,499.5 1701.0,531.7 1710.2,548.0 1719.4,565.8 1728.6,581.0 1737.9,606.3 1747.1,617.5 1756.3,615.2 1765.5,623.1 1774.7,616.7 1783.9,604.7 1793.1,578.3 1802.4,553.1 1811.6,546.5 1820.8,541.6 1830.0,507.8" fill="none" stroke="#ffff00" stroke-width="1.2"/>
<polyline points="70.0,609.2 79.2,594.7 88.4,566.7 97.6,540.0 106.9,517.5 116.1,491.0 125.3,475.6 134.5,461.2 143.7,446.4 152.9,436.7 162.1,430.8 171.4,432.7 180.6,433.5 189.8,439.5 199.0,449.2 208.2,453.1 217.4,454.4 226.6,455.3 235.9,459.5 245.1,462.3 254.3,464.5 263.5,464.6 272.7,464.9 281.9,461.4 291.2,457.6 300.4,455.1 309.6,453.6 318.8,452.5 328.0,448.8 337.2,446.1 346.4,445.7 355.7,448.3 364.9,449.8 374.1,449.8 383.3,451.9 392.5,453.3 401.7,454.0 410.9,456.4 420.2,458.5 429.4,458.3 438.6,456.0 447.8,455.8 457.0,454.5 466.2,454.2 475.4,455.8 484.7,453.9 493.9,452.9 503.1,449.6 512.3,446.9 521.5,444.9 530.7,443.6 539.9,442.8 549.2,443.2 558.4,443.9 567.6,444.9 576.8,444.3 586.0,443.0 595.2,441.4 604.5,440.1 613.7,437.7 622.9,432.4 632.1,429.2 641.3,430.2 650.5,430.7 659.7,428.1 669.0,428.4 678.2,433.2 687.4,424.0 696.6,413.4 705.8,408.0 715.0,400.4 724.2,405.4 733.5,410.1 742.7,405.9 751.9,398.7 761.1,393.5 770.3,392.3 779.5,385.4 788.7,372.5 798.0,354.7 807.2,345.2 816.4,335.5 825.6,330.3 834.8,318.9 844.0,310.2 853.2,290.8 862.5,271.9 871.7,258.6 880.9,251.1 890.1,261.4 899.3,268.1 908.5,285.6 917.7,298.0 927.0,310.3 936.2,327.1 945.4,343.8 954.6,362.2 963.8,370.2 973.0,384.0 982.3,390.8 991.5,394.5 1000.7,399.3 1009.9,404.4 1019.1,407.2 1028.3,405.1 1037.5,404.5 1046.8,404.4 1056.0,397.0 1065.2,388.5 1074.4,382.2 1083.6,377.1 1092.8,372.3 1102.0,368.2 1111.3,355.9 1120.5,341.9 1129.7,333.7 1138.9,324.7 1148.1,312.8 1157.3,304.4 1166.5,296.9 1175.8,293.2 1185.0,292.4 1194.2,291.2 1203.4,287.6 1212.6,283.5 1221.8,280.7 1231.0,276.5 1240.3,275.2 1249.5,276.2 1258.7,276.0 1267.9,277.3 1277.1,274.2 1286.3,268.2 1295.5,258.3 1304.8,249.8 1314.0,237.7 1323.2,228.6 1332.4,223.9 1341.6,222.7 1350.8,221.0 1360.1,219.6 1369.3,218.8 1378.5,218.3 1387.7,221.6 1396.9,226.0 1406.1,228.6 1415.3,229.3 1424.6,233.2 1433.8,234.4 1443.0,236.6 1452.2,238.2 1461.4,238.9 1470.6,241.4 1479.8,244.0 1489.1,246.5 1498.3,247.2 1507.5,251.7 1516.7,255.6 1525.9,258.7 1535.1,256.1 1544.3,253.1 1553.6,265.6 1562.8,274.1 1572.0,289.6 1581.2,309.8 1590.4,345.6 1599.6,373.8 1608.8,406.3 1618.1,423.9 1627.3,437.4 1636.5,441.2 1645.7,443.9 1654.9,453.8 1664.1,454.0 1673.4,456.1 1682.6,459.8 1691.8,471.3 1701.0,489.2 1710.2,502.2 1719.4,516.4 1728.6,530.0 1737.9,548.1 1747.1,561.2 1756.3,568.3 1765.5,578.4 1774.7,582.0 1783.9,581.8 1793.1,573.8 1802.4,563.6 1811.6,559.3 1820.8,555.3 1830.0,538.9" fill="none" stroke="#ff0000" stroke-width="1.2"/>
<polyline points="70.0,578.4 79.2,575.6 88.4,568.7 97.6,561.3 106.9,554.3 116.1,545.6 125.3,539.2 134.5,532.8 143.7,525.9 152.9,520.1 162.1,515.2 171.4,512.4 180.6,509.5 189.8,508.2 199.0,508.2 208.2,506.9 217.4,505.2 226.6,503.4 235.9,502.7 245.1,501.8 254.3,500.8 263.5,499.4 272.7,498.1 281.9,495.9 291.2,493.5 300.4,491.4 309.6,489.5 318.8,487.8 328.0,485.4 337.2,483.3 346.4,481.7 355.7,481.0 364.9,480.1 374.1,478.9 383.3,478.4 392.5,477.7 401.7,476.9 410.9,476.7 420.2,476.5 429.4,475.7 438.6,474.4 447.8,473.6 457.0,472.6 466.2,471.8 475.4,471.6 484.7,470.4 493.9,469.5 503.1,467.9 512.3,466.5 521.5,465.2 530.7,464.0 539.9,463.0 549.2,462.3 558.4,461.8 567.6,461.3 576.8,460.5 586.0,459.5 595.2,458.4 604.5,457.4 613.7,456.1 622.9,453.9 632.1,452.2 641.3,451.5 650.5,450.8 659.7,449.3 669.0,448.6 678.2,449.1 687.4,446.0 696.6,442.2 705.8,439.6 715.0,436.3 724.2,436.2 733.5,436.3 742.7,434.1 751.9,431.0 761.1,428.4 770.3,426.7 779.5,423.4 788.7,418.4 798.0,411.7 807.2,406.9 816.4,401.8 825.6,397.7 834.8,392.0 844.0,386.7 853.2,378.4 862.5,369.8 871.7,362.3 880.9,356.2 890.1,354.9 899.3,353.0 908.5,354.5 917.7,355.2 927.0,356.3 936.2,359.1 945.4,362.5 954.6,366.8 963.8,368.8 973.0,372.6 982.3,375.0 991.5,376.6 1000.7,378.6 1009.9,380.8 1019.1,382.5 1028.3,382.9 1037.5,383.6 1046.8,384.4 1056.0,383.2 1065.2,381.4 1074.4,379.9 1083.6,378.6 1092.8,377.2 1102.0,375.9 1111.3,372.2 1120.5,367.7 1129.7,364.5 1138.9,360.8 1148.1,356.1 1157.3,352.1 1166.5,348.2 1175.8,345.2 1185.0,342.9 1194.2,340.6 1203.4,337.7 1212.6,334.6 1221.8,331.8 1231.0,328.7 1240.3,326.2 1249.5,324.5 1258.7,322.6 1267.9,321.1 1277.1,318.5 1286.3,315.2 1295.5,310.6 1304.8,306.2 1314.0,300.7 1323.2,295.7 1332.4,291.8 1341.6,288.8 1350.8,285.7 1360.1,282.8 1369.3,280.1 1378.5,277.6 1387.7,276.2 1396.9,275.2 1406.1,274.0 1415.3,272.4 1424.6,271.8 1433.8,270.6 1443.0,269.8 1452.2,268.9 1461.4,267.9 1470.6,267.5 1479.8,267.2 1489.1,266.9 1498.3,266.3 1507.5,266.8 1516.7,267.3 1525.9,267.7 1535.1,266.6 1544.3,265.4 1553.6,268.3 1562.8,270.6 1572.0,274.9 1581.2,281.1 1590.4,292.0 1599.6,301.9 1608.8,313.6 1618.1,322.1 1627.3,329.8 1636.5,335.0 1645.7,339.9 1654.9,346.8 1664.1,351.0 1673.4,355.6 1682.6,360.6 1691.8,367.6 1701.0,376.6 1710.2,384.6 1719.4,393.1 1728.6,401.6 1737.9,411.7 1747.1,420.6 1756.3,428.1 1765.5,436.3 1774.7,442.9 1783.9,448.3 1793.1,451.3 1802.4,453.3 1811.6,456.5 1820.8,459.4 1830.0,458.7" fill="none" stroke="#00e5ff" stroke-width="1.6"/>
<polyline points="70.0,487.8 79.2,488.0 88.4,487.1 97.6,486.1 106.9,485.0 116.1,483.5 125.3,482.5 134.5,481.4 143.7,480.2 152.9,479.2 162.1,478.4 171.4,478.0 180.6,477.6 189.8,477.6 199.0,477.9 208.2,477.9 217.4,477.7 226.6,477.6 235.9,477.6 245.1,477.7 254.3,477.7 263.5,477.5 272.7,477.4 281.9,477.1 291.2,476.6 300.4,476.3 309.6,475.9 318.8,475.7 328.0,475.2 337.2,474.7 346.4,474.4 355.7,474.3 364.9,474.1 374.1,473.9 383.3,473.8 392.5,473.7 401.7,473.5 410.9,473.5 420.2,473.5 429.4,473.3 438.6,473.0 447.8,472.8 457.0,472.6 466.2,472.4 475.4,472.3 484.7,472.0 493.9,471.8 503.1,471.3 512.3,470.9 521.5,470.6 530.7,470.2 539.9,469.9 549.2,469.6 558.4,469.4 567.6,469.2 576.8,469.0 586.0,468.6 595.2,468.3 604.5,467.9 613.7,467.5 622.9,466.8 632.1,466.2 641.3,465.9 650.5,465.6 659.7,465.1 669.0,464.7 678.2,464.7 687.4,463.8 696.6,462.6 705.8,461.8 715.0,460.7 724.2,460.4 733.5,460.2 742.7,459.4 751.9,458.4 761.1,457.4 770.3,456.7 779.5,455.6 788.7,454.0 798.0,451.9 807.2,450.3 816.4,448.6 825.6,447.1 834.8,445.2 844.0,443.3 853.2,440.6 862.5,437.8 871.7,435.2 880.9,432.9 890.1,431.9 899.3,430.6 908.5,430.2 917.7,429.7 927.0,429.2 936.2,429.2 945.4,429.3 954.6,429.8 963.8,429.7 973.0,430.0 982.3,430.0 991.5,429.9 1000.7,429.9 1009.9,429.9 1019.1,429.9 1028.3,429.5 1037.5,429.2 1046.8,429.0 1056.0,428.2 1065.2,427.3 1074.4,426.5 1083.6,425.7 1092.8,424.9 1102.0,424.1 1111.3,422.6 1120.5,421.0 1129.7,419.6 1138.9,418.2 1148.1,416.4 1157.3,414.8 1166.5,413.2 1175.8,411.8 1185.0,410.5 1194.2,409.3 1203.4,407.8 1212.6,406.3 1221.8,404.9 1231.0,403.4 1240.3,402.1 1249.5,400.9 1258.7,399.6 1267.9,398.5 1277.1,397.0 1286.3,395.4 1295.5,393.4 1304.8,391.5 1314.0,389.3 1323.2,387.1 1332.4,385.2 1341.6,383.5 1350.8,381.8 1360.1,380.1 1369.3,378.5 1378.5,376.8 1387.7,375.5 1396.9,374.3 1406.1,373.0 1415.3,371.6 1424.6,370.4 1433.8,369.2 1443.0,368.0 1452.2,366.8 1461.4,365.5 1470.6,364.5 1479.8,363.4 1489.1,362.4 1498.3,361.3 1507.5,360.5 1516.7,359.7 1525.9,358.8 1535.1,357.7 1544.3,356.4 1553.6,356.3 1562.8,356.0 1572.0,356.2 1581.2,357.0 1590.4,359.0 1599.6,360.8 1608.8,363.2 1618.1,364.9 1627.3,366.4 1636.5,367.4 1645.7,368.3 1654.9,369.8 1664.1,370.6 1673.4,371.6 1682.6,372.7 1691.8,374.3 1701.0,376.6 1710.2,378.6 1719.4,380.8 1728.6,383.1 1737.9,385.8 1747.1,388.3 1756.3,390.6 1765.5,393.0 1774.7,395.1 1783.9,397.0 1793.1,398.3 1802.4,399.3 1811.6,400.6 1820.8,401.9 1830.0,402.3" fill="none" stroke="#ffffff" stroke-width="2.0"/>
<polyline points="70.0,532.7 79.2,532.6 88.4,532.3 97.6,531.9 106.9,531.6 116.1,531.1 125.3,530.7 134.5,530.3 143.7,529.9 152.9,529.5 162.1,529.2 171.4,528.9 180.6,528.7 189.8,528.6 199.0,528.5 208.2,528.4 217.4,528.2 226.6,528.1 235.9,528.0 245.1,527.8 254.3,527.7 263.5,527.6 272.7,527.4 281.9,527.2 291.2,527.0 300.4,526.7 309.6,526.5 318.8,526.3 328.0,526.1 337.2,525.8 346.4,525.6 355.7,525.5 364.9,525.3 374.1,525.1 383.3,525.0 392.5,524.8 401.7,524.7 410.9,524.5 420.2,524.4 429.4,524.2 438.6,524.0 447.8,523.8 457.0,523.6 466.2,523.5 475.4,523.3 484.7,523.1 493.9,522.9 503.1,522.7 512.3,522.5 521.5,522.2 530.7,522.0 539.9,521.8 549.2,521.6 558.4,521.4 567.6,521.3 576.8,521.1 586.0,520.9 595.2,520.6 604.5,520.4 613.7,520.2 622.9,519.9 632.1,519.6 641.3,519.4 650.5,519.2 659.7,518.9 669.0,518.7 678.2,518.5 687.4,518.2 696.6,517.8 705.8,517.4 715.0,517.0 724.2,516.8 733.5,516.6 742.7,516.3 751.9,515.9 761.1,515.5 770.3,515.1 779.5,514.7 788.7,514.2 798.0,513.5 807.2,512.9 816.4,512.3 825.6,511.8 834.8,511.2 844.0,510.5 853.2,509.7 862.5,508.8 871.7,508.0 880.9,507.2 890.1,506.8 899.3,506.3 908.5,506.0 917.7,505.7 927.0,505.4 936.2,505.2 945.4,505.0 954.6,504.9 963.8,504.7 973.0,504.6 982.3,504.4 991.5,504.2 1000.7,504.0 1009.9,503.9 1019.1,503.7 1028.3,503.4 1037.5,503.1 1046.8,502.9 1056.0,502.5 1065.2,502.1 1074.4,501.7 1083.6,501.3 1092.8,500.9 1102.0,500.5 1111.3,500.0 1120.5,499.4 1129.7,498.8 1138.9,498.3 1148.1,497.6 1157.3,497.0 1166.5,496.4 1175.8,495.8 1185.0,495.3 1194.2,494.8 1203.4,494.2 1212.6,493.6 1221.8,493.1 1231.0,492.5 1240.3,491.9 1249.5,491.4 1258.7,490.8 1267.9,490.3 1277.1,489.7 1286.3,489.1 1295.5,488.4 1304.8,487.6 1314.0,486.8 1323.2,486.1 1332.4,485.3 1341.6,484.7 1350.8,484.0 1360.1,483.3 1369.3,482.6 1378.5,481.9 1387.7,481.3 1396.9,480.8 1406.1,480.2 1415.3,479.6 1424.6,479.0 1433.8,478.4 1443.0,477.8 1452.2,477.3 1461.4,476.7 1470.6,476.1 1479.8,475.6 1489.1,475.1 1498.3,474.5 1507.5,474.0 1516.7,473.5 1525.9,473.0 1535.1,472.5 1544.3,471.9 1553.6,471.5 1562.8,471.2 1572.0,471.0 1581.2,470.9 1590.4,471.1 1599.6,471.3 1608.8,471.6 1618.1,471.7 1627.3,471.8 1636.5,471.8 1645.7,471.8 1654.9,471.9 1664.1,471.9 1673.4,471.8 1682.6,471.9 1691.8,472.0 1701.0,472.4 1710.2,472.6 1719.4,472.9 1728.6,473.3 1737.9,473.7 1747.1,474.2 1756.3,474.5 1765.5,474.9 1774.7,475.2 1783.9,475.5 1793.1,475.6 1802.4,475.7 1811.6,475.8 1820.8,476.0 1830.0,475.9" fill="none" stroke="#2962ff" stroke-width="2.4"/>
<line x1="70" y1="821.8" x2="1830" y2="821.8" stroke="#f23645" stroke-width="1" opacity="0.6" stroke-dasharray="4,4"/>
<text x="1838" y="825.8" class="axis-txt">68</text>
<line x1="70" y1="843.4" x2="1830" y2="843.4" stroke="#ffa726" stroke-width="1" opacity="0.6" stroke-dasharray="2,2"/>
<text x="1838" y="847.4" class="axis-txt">63</text>
<line x1="70" y1="899.5" x2="1830" y2="899.5" stroke="#787b86" stroke-width="1" opacity="0.6" />
<text x="1838" y="903.5" class="axis-txt">50</text>
<line x1="70" y1="955.6" x2="1830" y2="955.6" stroke="#ffa726" stroke-width="1" opacity="0.6" stroke-dasharray="2,2"/>
<text x="1838" y="959.6" class="axis-txt">37</text>
<line x1="70" y1="977.2" x2="1830" y2="977.2" stroke="#089981" stroke-width="1" opacity="0.6" stroke-dasharray="4,4"/>
<text x="1838" y="981.2" class="axis-txt">32</text>
<polyline points="70.0,829.5 79.2,830.0 88.4,828.6 97.6,826.0 106.9,822.2 116.1,819.4 125.3,818.2 134.5,818.2 143.7,816.7 152.9,814.6 162.1,812.9 171.4,812.2 180.6,812.1 189.8,813.0 199.0,815.2 208.2,819.2 217.4,823.6 226.6,826.2 235.9,827.5 245.1,827.7 254.3,827.5 263.5,827.3 272.7,827.3 281.9,827.6 291.2,827.7 300.4,827.7 309.6,828.3 318.8,828.7 328.0,829.3 337.2,830.4 346.4,832.4 355.7,835.9 364.9,837.4 374.1,837.8 383.3,838.5 392.5,838.5 401.7,839.5 410.9,842.3 420.2,845.6 429.4,850.5 438.6,855.2 447.8,858.7 457.0,863.4 466.2,868.5 475.4,872.7 484.7,874.6 493.9,875.2 503.1,875.0 512.3,874.1 521.5,873.4 530.7,872.9 539.9,872.7 549.2,872.6 558.4,872.7 567.6,872.7 576.8,872.7 586.0,872.5 595.2,872.2 604.5,872.3 613.7,871.8 622.9,868.9 632.1,865.5 641.3,865.3 650.5,866.1 659.7,866.1 669.0,865.7 678.2,865.3 687.4,865.2 696.6,860.5 705.8,857.4 715.0,855.3 724.2,855.3 733.5,855.1 742.7,855.2 751.9,854.6 761.1,853.7 770.3,853.5 779.5,853.1 788.7,851.3 798.0,847.0 807.2,843.7 816.4,841.8 825.6,840.6 834.8,839.1 844.0,837.1 853.2,833.9 862.5,829.0 871.7,825.4 880.9,823.7 890.1,824.0 899.3,823.7 908.5,822.7 917.7,820.9 927.0,819.5 936.2,818.1 945.4,816.6 954.6,814.1 963.8,812.5 973.0,811.5 982.3,810.6 991.5,810.1 1000.7,809.8 1009.9,811.4 1019.1,812.8 1028.3,814.3 1037.5,814.8 1046.8,814.8 1056.0,814.9 1065.2,815.6 1074.4,816.4 1083.6,816.8 1092.8,817.4 1102.0,819.2 1111.3,822.3 1120.5,823.9 1129.7,824.8 1138.9,825.6 1148.1,826.1 1157.3,827.0 1166.5,829.5 1175.8,834.7 1185.0,840.4 1194.2,844.7 1203.4,844.9 1212.6,843.3 1221.8,841.4 1231.0,839.7 1240.3,838.2 1249.5,837.8 1258.7,838.2 1267.9,839.5 1277.1,840.4 1286.3,840.5 1295.5,839.9 1304.8,838.1 1314.0,835.8 1323.2,833.9 1332.4,833.9 1341.6,834.8 1350.8,835.9 1360.1,837.7 1369.3,838.8 1378.5,839.1 1387.7,839.5 1396.9,839.4 1406.1,839.1 1415.3,839.2 1424.6,838.6 1433.8,838.4 1443.0,838.3 1452.2,837.9 1461.4,838.3 1470.6,838.8 1479.8,838.8 1489.1,838.6 1498.3,838.3 1507.5,837.6 1516.7,836.4 1525.9,835.8 1535.1,836.3 1544.3,837.0 1553.6,836.9 1562.8,834.1 1572.0,831.1 1581.2,826.3 1590.4,819.7 1599.6,814.4 1608.8,812.0 1618.1,812.9 1627.3,816.9 1636.5,822.7 1645.7,828.0 1654.9,832.0 1664.1,835.8 1673.4,840.0 1682.6,844.4 1691.8,848.9 1701.0,852.4 1710.2,854.9 1719.4,857.6 1728.6,861.0 1737.9,864.1 1747.1,867.2 1756.3,871.0 1765.5,874.9 1774.7,879.4 1783.9,883.5 1793.1,886.2 1802.4,887.6 1811.6,889.5 1820.8,891.0 1830.0,889.7" fill="none" stroke="#2962ff" stroke-width="1.0"/>
<polyline points="70.0,970.1 79.2,966.4 88.4,962.6 97.6,958.8 106.9,958.2 116.1,959.3 125.3,959.8 134.5,959.8 143.7,960.3 152.9,960.5 162.1,960.3 171.4,960.1 180.6,960.0 189.8,960.2 199.0,960.6 208.2,960.2 217.4,959.1 226.6,958.6 235.9,958.7 245.1,958.9 254.3,958.1 263.5,956.8 272.7,954.5 281.9,951.1 291.2,947.8 300.4,944.9 309.6,941.4 318.8,938.3 328.0,935.0 337.2,930.4 346.4,925.2 355.7,918.7 364.9,915.6 374.1,914.6 383.3,912.8 392.5,912.8 401.7,913.8 410.9,914.0 420.2,914.2 429.4,912.8 438.6,910.7 447.8,909.3 457.0,907.0 466.2,904.2 475.4,902.2 484.7,901.6 493.9,901.4 503.1,901.4 512.3,901.1 521.5,900.6 530.7,900.5 539.9,900.5 549.2,900.3 558.4,899.9 567.6,899.9 576.8,899.9 586.0,899.7 595.2,899.8 604.5,899.8 613.7,900.0 622.9,901.7 632.1,903.7 641.3,903.7 650.5,903.9 659.7,903.9 669.0,903.6 678.2,904.5 687.4,904.3 696.6,906.5 705.8,907.1 715.0,907.1 724.2,906.1 733.5,906.4 742.7,905.9 751.9,905.6 761.1,905.4 770.3,904.9 779.5,904.3 788.7,903.8 798.0,905.0 807.2,905.7 816.4,905.8 825.6,905.8 834.8,905.8 844.0,905.9 853.2,906.4 862.5,907.5 871.7,907.3 880.9,905.7 890.1,904.2 899.3,905.0 908.5,907.4 917.7,911.2 927.0,914.9 936.2,919.8 945.4,925.6 954.6,931.6 963.8,935.6 973.0,939.4 982.3,943.1 991.5,944.5 1000.7,946.7 1009.9,949.4 1019.1,951.8 1028.3,953.4 1037.5,954.6 1046.8,954.8 1056.0,955.2 1065.2,955.5 1074.4,955.7 1083.6,956.0 1092.8,956.2 1102.0,956.2 1111.3,955.3 1120.5,954.6 1129.7,954.3 1138.9,954.0 1148.1,953.9 1157.3,953.5 1166.5,952.3 1175.8,949.5 1185.0,946.5 1194.2,944.4 1203.4,944.4 1212.6,944.6 1221.8,944.3 1231.0,943.2 1240.3,942.0 1249.5,939.9 1258.7,936.5 1267.9,932.0 1277.1,927.9 1286.3,924.2 1295.5,920.3 1304.8,917.8 1314.0,915.4 1323.2,912.3 1332.4,908.0 1341.6,904.1 1350.8,900.5 1360.1,896.1 1369.3,893.0 1378.5,891.5 1387.7,890.6 1396.9,890.8 1406.1,891.2 1415.3,891.0 1424.6,892.4 1433.8,894.7 1443.0,896.5 1452.2,898.5 1461.4,900.0 1470.6,901.8 1479.8,904.2 1489.1,906.6 1498.3,908.5 1507.5,910.8 1516.7,914.5 1525.9,917.9 1535.1,919.4 1544.3,919.7 1553.6,922.5 1562.8,929.2 1572.0,936.3 1581.2,946.3 1590.4,959.9 1599.6,973.5 1608.8,985.0 1618.1,992.8 1627.3,996.6 1636.5,997.9 1645.7,998.4 1654.9,999.7 1664.1,1000.6 1673.4,1000.5 1682.6,1000.5 1691.8,1000.8 1701.0,1002.3 1710.2,1004.4 1719.4,1006.2 1728.6,1007.7 1737.9,1009.6 1747.1,1011.5 1756.3,1012.1 1765.5,1012.3 1774.7,1011.8 1783.9,1010.7 1793.1,1009.8 1802.4,1009.1 1811.6,1008.2 1820.8,1007.6 1830.0,1008.2" fill="none" stroke="#2962ff" stroke-width="1.0"/>
<polyline points="70.0,899.8 79.2,898.2 88.4,895.6 97.6,892.4 106.9,890.2 116.1,889.4 125.3,889.0 134.5,889.0 143.7,888.5 152.9,887.5 162.1,886.6 171.4,886.1 180.6,886.1 189.8,886.6 199.0,887.9 208.2,889.7 217.4,891.3 226.6,892.4 235.9,893.1 245.1,893.3 254.3,892.8 263.5,892.0 272.7,890.9 281.9,889.4 291.2,887.7 300.4,886.3 309.6,884.8 318.8,883.5 328.0,882.1 337.2,880.4 346.4,878.8 355.7,877.3 364.9,876.5 374.1,876.2 383.3,875.7 392.5,875.7 401.7,876.6 410.9,878.2 420.2,879.9 429.4,881.6 438.6,883.0 447.8,884.0 457.0,885.2 466.2,886.4 475.4,887.5 484.7,888.1 493.9,888.3 503.1,888.2 512.3,887.6 521.5,887.0 530.7,886.7 539.9,886.6 549.2,886.4 558.4,886.3 567.6,886.3 576.8,886.3 586.0,886.1 595.2,886.0 604.5,886.0 613.7,885.9 622.9,885.3 632.1,884.6 641.3,884.5 650.5,885.0 659.7,885.0 669.0,884.7 678.2,884.9 687.4,884.7 696.6,883.5 705.8,882.2 715.0,881.2 724.2,880.7 733.5,880.8 742.7,880.6 751.9,880.1 761.1,879.5 770.3,879.2 779.5,878.7 788.7,877.5 798.0,876.0 807.2,874.7 816.4,873.8 825.6,873.2 834.8,872.5 844.0,871.5 853.2,870.1 862.5,868.2 871.7,866.3 880.9,864.7 890.1,864.1 899.3,864.3 908.5,865.0 917.7,866.1 927.0,867.2 936.2,869.0 945.4,871.1 954.6,872.8 963.8,874.0 973.0,875.4 982.3,876.8 991.5,877.3 1000.7,878.3 1009.9,880.4 1019.1,882.3 1028.3,883.8 1037.5,884.7 1046.8,884.8 1056.0,885.1 1065.2,885.5 1074.4,886.1 1083.6,886.4 1092.8,886.8 1102.0,887.7 1111.3,888.8 1120.5,889.2 1129.7,889.5 1138.9,889.8 1148.1,890.0 1157.3,890.2 1166.5,890.9 1175.8,892.1 1185.0,893.5 1194.2,894.6 1203.4,894.7 1212.6,893.9 1221.8,892.8 1231.0,891.4 1240.3,890.1 1249.5,888.8 1258.7,887.4 1267.9,885.7 1277.1,884.2 1286.3,882.3 1295.5,880.1 1304.8,877.9 1314.0,875.6 1323.2,873.1 1332.4,870.9 1341.6,869.4 1350.8,868.2 1360.1,866.9 1369.3,865.9 1378.5,865.3 1387.7,865.0 1396.9,865.1 1406.1,865.2 1415.3,865.1 1424.6,865.5 1433.8,866.5 1443.0,867.4 1452.2,868.2 1461.4,869.2 1470.6,870.3 1479.8,871.5 1489.1,872.6 1498.3,873.4 1507.5,874.2 1516.7,875.5 1525.9,876.9 1535.1,877.8 1544.3,878.3 1553.6,879.7 1562.8,881.6 1572.0,883.7 1581.2,886.3 1590.4,889.8 1599.6,893.9 1608.8,898.5 1618.1,902.8 1627.3,906.8 1636.5,910.3 1645.7,913.2 1654.9,915.8 1664.1,918.2 1673.4,920.3 1682.6,922.4 1691.8,924.8 1701.0,927.4 1710.2,929.7 1719.4,931.9 1728.6,934.3 1737.9,936.9 1747.1,939.3 1756.3,941.5 1765.5,943.6 1774.7,945.6 1783.9,947.1 1793.1,948.0 1802.4,948.4 1811.6,948.8 1820.8,949.3 1830.0,948.9" fill="none" stroke="#ffd600" stroke-width="1.5"/>
<polyline points="70.0,922.9 79.2,918.6 88.4,908.3 97.6,895.3 106.9,881.3 116.1,869.4 125.3,860.8 134.5,852.4 143.7,845.7 152.9,844.1 162.1,846.1 171.4,850.0 180.6,856.0 189.8,862.2 199.0,868.8 208.2,876.0 217.4,881.7 226.6,886.0 235.9,889.0 245.1,891.4 254.3,892.7 263.5,891.8 272.7,890.6 281.9,889.8 291.2,888.4 300.4,886.5 309.6,884.4 318.8,882.7 328.0,880.8 337.2,878.7 346.4,878.0 355.7,879.7 364.9,881.9 374.1,883.3 383.3,884.7 392.5,887.1 401.7,889.8 410.9,892.3 420.2,893.9 429.4,894.3 438.6,893.8 447.8,893.1 457.0,892.1 466.2,891.4 475.4,891.2 484.7,889.9 493.9,888.4 503.1,887.6 512.3,886.2 521.5,884.7 530.7,883.5 539.9,881.6 549.2,880.9 558.4,881.7 567.6,883.5 576.8,885.5 586.0,886.3 595.2,886.2 604.5,885.7 613.7,883.9 622.9,879.5 632.1,874.2 641.3,872.3 650.5,873.1 659.7,873.0 669.0,873.2 678.2,877.1 687.4,880.4 696.6,879.3 705.8,876.0 715.0,871.5 724.2,871.4 733.5,874.9 742.7,873.2 751.9,871.3 761.1,874.0 770.3,877.2 779.5,879.3 788.7,876.0 798.0,866.7 807.2,859.8 816.4,857.1 825.6,855.4 834.8,852.1 844.0,848.3 853.2,845.6 862.5,843.3 871.7,841.1 880.9,839.2 890.1,841.3 899.3,846.9 908.5,855.0 917.7,865.9 927.0,878.7 936.2,892.2 945.4,905.3 954.6,914.7 963.8,920.2 973.0,923.5 982.3,925.4 991.5,926.3 1000.7,925.8 1009.9,924.4 1019.1,921.9 1028.3,919.2 1037.5,916.3 1046.8,913.6 1056.0,910.9 1065.2,906.5 1074.4,901.6 1083.6,897.0 1092.8,893.6 1102.0,890.8 1111.3,886.0 1120.5,880.2 1129.7,876.5 1138.9,873.6 1148.1,869.4 1157.3,865.0 1166.5,861.1 1175.8,859.5 1185.0,861.6 1194.2,863.8 1203.4,864.8 1212.6,866.1 1221.8,867.6 1231.0,868.6 1240.3,869.2 1249.5,869.7 1258.7,870.1 1267.9,871.4 1277.1,872.8 1286.3,872.4 1295.5,870.4 1304.8,867.1 1314.0,861.5 1323.2,855.1 1332.4,850.1 1341.6,847.6 1350.8,847.7 1360.1,849.5 1369.3,852.4 1378.5,856.4 1387.7,862.4 1396.9,868.6 1406.1,873.0 1415.3,875.8 1424.6,879.4 1433.8,883.3 1443.0,886.7 1452.2,889.0 1461.4,889.2 1470.6,889.8 1479.8,892.0 1489.1,893.8 1498.3,894.7 1507.5,896.8 1516.7,900.0 1525.9,903.5 1535.1,904.3 1544.3,901.9 1553.6,903.7 1562.8,909.9 1572.0,916.2 1581.2,924.0 1590.4,935.4 1599.6,950.6 1608.8,968.2 1618.1,979.5 1627.3,983.6 1636.5,984.6 1645.7,980.7 1654.9,974.3 1664.1,965.5 1673.4,955.3 1682.6,947.5 1691.8,944.3 1701.0,945.2 1710.2,948.5 1719.4,950.7 1728.6,954.2 1737.9,960.0 1747.1,965.4 1756.3,967.9 1765.5,967.8 1774.7,966.7 1783.9,963.9 1793.1,958.3 1802.4,949.6 1811.6,940.9 1820.8,934.4 1830.0,926.0" fill="none" stroke="#f23645" stroke-width="1.4"/>
<polyline points="70.0,908.4 79.2,894.5 88.4,860.0 97.6,843.4 106.9,841.7 116.1,836.4 125.3,841.0 134.5,850.2 143.7,847.0 152.9,849.1 162.1,856.8 171.4,869.7 180.6,878.3 189.8,884.2 199.0,896.6 208.2,897.0 217.4,889.4 226.6,886.7 235.9,891.0 245.1,894.7 254.3,893.4 263.5,890.5 272.7,888.5 281.9,883.7 291.2,877.2 300.4,877.3 309.6,879.8 318.8,881.5 328.0,877.6 337.2,874.0 346.4,878.8 355.7,888.7 364.9,893.1 374.1,889.3 383.3,891.1 392.5,894.7 401.7,892.9 410.9,895.9 420.2,900.2 429.4,895.6 438.6,886.4 447.8,886.0 457.0,887.8 466.2,887.6 475.4,894.5 484.7,891.4 493.9,885.1 503.1,881.0 512.3,875.8 521.5,877.2 530.7,879.4 539.9,881.5 549.2,886.3 558.4,891.0 567.6,893.0 576.8,889.8 586.0,883.0 595.2,879.1 604.5,877.5 613.7,873.7 622.9,860.2 632.1,856.2 641.3,876.1 650.5,889.0 659.7,878.6 669.0,878.6 678.2,901.1 687.4,883.5 696.6,847.9 705.8,853.1 715.0,857.7 724.2,877.5 733.5,903.2 742.7,889.7 751.9,870.1 761.1,866.7 770.3,875.1 779.5,872.6 788.7,854.7 798.0,838.1 807.2,841.6 816.4,850.8 825.6,854.6 834.8,852.4 844.0,846.1 853.2,836.0 862.5,822.0 871.7,825.6 880.9,838.0 890.1,869.3 899.3,891.3 908.5,902.5 917.7,912.9 927.0,911.6 936.2,920.2 945.4,929.1 954.6,935.6 963.8,929.3 973.0,925.8 982.3,926.4 991.5,917.5 1000.7,916.6 1009.9,919.4 1019.1,918.3 1028.3,910.2 1037.5,905.7 1046.8,907.7 1056.0,898.5 1065.2,886.0 1074.4,884.7 1083.6,886.5 1092.8,886.3 1102.0,885.8 1111.3,874.0 1120.5,857.8 1129.7,860.4 1138.9,864.7 1148.1,857.0 1157.3,855.3 1166.5,858.3 1175.8,863.0 1185.0,872.4 1194.2,876.1 1203.4,871.4 1212.6,866.1 1221.8,866.1 1231.0,864.9 1240.3,867.0 1249.5,876.3 1258.7,879.0 1267.9,880.3 1277.1,876.1 1286.3,863.2 1295.5,850.7 1304.8,843.9 1314.0,837.5 1323.2,834.1 1332.4,844.9 1341.6,858.7 1350.8,864.1 1360.1,863.1 1369.3,864.3 1378.5,865.9 1387.7,875.6 1396.9,888.4 1406.1,889.5 1415.3,883.7 1424.6,888.5 1433.8,891.6 1443.0,889.8 1452.2,891.9 1461.4,889.8 1470.6,893.2 1479.8,899.3 1489.1,901.1 1498.3,897.9 1507.5,904.3 1516.7,914.7 1525.9,914.3 1535.1,898.8 1544.3,882.3 1553.6,913.5 1562.8,941.3 1572.0,948.5 1581.2,969.4 1590.4,994.3 1599.6,1005.0 1608.8,1005.5 1618.1,992.2 1627.3,970.5 1636.5,955.5 1645.7,942.2 1654.9,948.9 1664.1,944.0 1673.4,933.9 1682.6,937.8 1691.8,947.5 1701.0,962.1 1710.2,965.4 1719.4,964.4 1728.6,968.1 1737.9,974.5 1747.1,975.7 1756.3,965.0 1765.5,961.8 1774.7,957.5 1783.9,944.7 1793.1,928.9 1802.4,913.9 1811.6,914.6 1820.8,919.2 1830.0,902.9" fill="none" stroke="#00e676" stroke-width="1.8"/>
<line x1="70.0" y1="1029" x2="70.0" y2="1035" stroke="#787b86"/>
<text x="70.0" y="1049" class="axis-txt" text-anchor="middle">02/09 10:15</text>
<line x1="245.1" y1="1029" x2="245.1" y2="1035" stroke="#787b86"/>
<text x="245.1" y="1049" class="axis-txt" text-anchor="middle">02/09 15:00</text>
<line x1="420.2" y1="1029" x2="420.2" y2="1035" stroke="#787b86"/>
<text x="420.2" y="1049" class="axis-txt" text-anchor="middle">02/09 19:45</text>
<line x1="595.2" y1="1029" x2="595.2" y2="1035" stroke="#787b86"/>
<text x="595.2" y="1049" class="axis-txt" text-anchor="middle">02/10 00:30</text>
<line x1="770.3" y1="1029" x2="770.3" y2="1035" stroke="#787b86"/>
<text x="770.3" y="1049" class="axis-txt" text-anchor="middle">02/10 05:15</text>
<line x1="945.4" y1="1029" x2="945.4" y2="1035" stroke="#787b86"/>
<text x="945.4" y="1049" class="axis-txt" text-anchor="middle">02/10 10:00</text>
<line x1="1120.5" y1="1029" x2="1120.5" y2="1035" stroke="#787b86"/>
<text x="1120.5" y="1049" class="axis-txt" text-anchor="middle">02/10 14:45</text>
<line x1="1295.5" y1="1029" x2="1295.5" y2="1035" stroke="#787b86"/>
<text x="1295.5" y="1049" class="axis-txt" text-anchor="middle">02/10 19:30</text>
<line x1="1470.6" y1="1029" x2="1470.6" y2="1035" stroke="#787b86"/>
<text x="1470.6" y="1049" class="axis-txt" text-anchor="middle">02/11 00:15</text>
<line x1="1645.7" y1="1029" x2="1645.7" y2="1035" stroke="#787b86"/>
<text x="1645.7" y="1049" class="axis-txt" text-anchor="middle">02/11 05:00</text>
<line x1="1820.8" y1="1029" x2="1820.8" y2="1035" stroke="#787b86"/>
<text x="1820.8" y="1049" class="axis-txt" text-anchor="middle">02/11 09:45</text>
<rect x="85" y="55" width="480" height="135" fill="#1e222d" fill-opacity="0.92" stroke="#363a45" rx="6"/>
<text x="98" y="78" class="hud-txt">SYMBOL: GBPUSD (M15)  |  NY TIME: 2016-02-11 10:00:00</text>
<text x="98" y="96" class="hud-txt">SESSION: NY_OPEN  |  DAY: Thursday</text>
<text x="98" y="114" class="hud-txt">ASIAN RANGE: 38.4 pips [VALID_ACCUMULATION]</text>
<text x="98" y="132" class="hud-txt">ADR (14d): 168.0 pips  |  USED TODAY: 96.8%</text>
<text x="98" y="150" class="hud-txt">5/13 EMA CROSS: BULLISH (3 bars ago)</text>
<text x="98" y="168" class="hud-txt">TDI SHARK FIN: NONE</text>
<text x="85" y="28" fill="#d1d4dc" font-size="16" font-weight="600">MMM Benchmark CASE_02 — GBPUSD M15</text>
</svg>