<svg xmlns="http://www.w3.org/2000/svg" viewBox="0 0 1920 1080" width="1920" height="1080">
<defs>
<style>
text { font-family: -apple-system, BlinkMacSystemFont, "Segoe UI", Roboto, monospace; }
.grid { stroke: #1e222d; stroke-width: 1; }
.axis-txt { fill: #787b86; font-size: 11px; }
.hud-txt { fill: #d1d4dc; font-size: 13px; font-family: monospace; font-weight: 500; }
</style>
</defs>
<rect width="1920" height="1080" fill="#131722"/>
<rect x="70" y="40" width="1760" height="700" fill="#131722" stroke="#2a2e39" stroke-width="1"/>
<rect x="70" y="770" width="1760" height="259" fill="#131722" stroke="#2a2e39" stroke-width="1"/>
<line x1="70" y1="127.5" x2="1830" y2="127.5" class="grid"/>
<text x="1838" y="131.5" class="axis-txt">1.33271</text>
<line x1="70" y1="215.0" x2="1830" y2="215.0" class="grid"/>
<text x="1838" y="219.0" class="axis-txt">1.32982</text>
<line x1="70" y1="302.5" x2="1830" y2="302.5" class="grid"/>
<text x="1838" y="306.5" class="axis-txt">1.32692</text>
<line x1="70" y1="390.0" x2="1830" y2="390.0" class="grid"/>
<text x="1838" y="394.0" class="axis-txt">1.32402</text>
<line x1="70" y1="477.5" x2="1830" y2="477.5" class="grid"/>
<text x="1838" y="481.5" class="axis-txt">1.32113</text>
<line x1="70" y1="565.0" x2="1830" y2="565.0" class="grid"/>
<text x="1838" y="569.0" class="axis-txt">1.31823</text>
<line x1="70" y1="652.5" x2="1830" y2="652.5" class="grid"/>
<text x="1838" y="656.5" class="axis-txt">1.31534</text>
<rect x="687.4" y="470.8" width="175.1" height="182.8" fill="#2a2e39" fill-opacity="0.45" stroke="#787b86" stroke-dasharray="4,4"/>
<rect x="1572.0" y="204.9" width="175.1" height="90.3" fill="#2a2e39" fill-opacity="0.45" stroke="#787b86" stroke-dasharray="4,4"/>
<line x1="70" y1="167.1" x2="1830" y2="167.1" stroke="#29b6f6" stroke-width="1.5" opacity="0.85"/>
<line x1="70" y1="653.6" x2="1830" y2="653.6" stroke="#29b6f6" stroke-width="1.5" opacity="0.85"/>
<text x="1650" y="163.1" fill="#29b6f6" font-size="10">Blue Tracer (High)</text>
<line x1="70" y1="129.4" x2="1830" y2="129.4" stroke="#ab47bc" stroke-width="1.2" stroke-dasharray="2,3" opacity="0.75"/>
<line x1="70" y1="53.8" x2="1830" y2="53.8" stroke="#ab47bc" stroke-width="1.2" stroke-dasharray="2,3" opacity="0.75"/>
<line x1="70" y1="446.3" x2="1830" y2="446.3" stroke="#ab47bc" stroke-width="1.2" stroke-dasharray="2,3" opacity="0.75"/>
<line x1="70" y1="370.8" x2="1830" y2="370.8" stroke="#ab47bc" stroke-width="1.2" stroke-dasharray="2,3" opacity="0.75"/>
<line x1="70.0" y1="534.8" x2="70.0" y2="558.7" stroke="#089981" stroke-width="1.2"/>
<rect x="67.0" y="551.5" width="6.0" height="4.8" fill="#089981" stroke="#089981"/>
<line x1="79.2" y1="544.2" x2="79.2" y2="557.2" stroke="#089981" stroke-width="1.2"/>
<rect x="76.2" y="545.7" width="6.0" height="6.3" fill="#089981" stroke="#089981"/>
<line x1="88.4" y1="512.8" x2="88.4" y2="552.1" stroke="#089981" stroke-width="1.2"/>
<rect x="85.5" y="517.9" width="6.0" height="27.8" fill="#089981" stroke="#089981"/>
<line x1="97.6" y1="510.4" x2="97.6" y2="525.2" stroke="#f23645" stroke-width="1.2"/>
<rect x="94.7" y="517.6" width="6.0" height="1.8" fill="#f23645" stroke="#f23645"/>
<line x1="106.9" y1="493.4" x2="106.9" y2="527.9" stroke="#089981" stroke-width="1.2"/>
<rect x="103.9" y="498.0" width="6.0" height="21.5" fill="#089981" stroke="#089981"/>
<line x1="116.1" y1="487.4" x2="116.1" y2="505.2" stroke="#089981" stroke-width="1.2"/>
<rect x="113.1" y="495.6" width="6.0" height="1.5" fill="#089981" stroke="#089981"/>
<line x1="125.3" y1="475.9" x2="125.3" y2="500.4" stroke="#f23645" stroke-width="1.2"/>
<rect x="122.3" y="494.7" width="6.0" height="1.5" fill="#f23645" stroke="#f23645"/>
<line x1="134.5" y1="470.8" x2="134.5" y2="498.3" stroke="#089981" stroke-width="1.2"/>
<rect x="131.5" y="479.2" width="6.0" height="15.4" fill="#089981" stroke="#089981"/>
<line x1="143.7" y1="450.5" x2="143.7" y2="482.3" stroke="#089981" stroke-width="1.2"/>
<rect x="140.7" y="470.5" width="6.0" height="8.5" fill="#089981" stroke="#089981"/>
<line x1="152.9" y1="451.7" x2="152.9" y2="471.7" stroke="#089981" stroke-width="1.2"/>
<rect x="150.0" y="459.0" width="6.0" height="11.2" fill="#089981" stroke="#089981"/>
<line x1="162.1" y1="431.5" x2="162.1" y2="458.1" stroke="#089981" stroke-width="1.2"/>
<rect x="159.2" y="436.0" width="6.0" height="22.1" fill="#089981" stroke="#089981"/>
<line x1="171.4" y1="429.7" x2="171.4" y2="459.0" stroke="#f23645" stroke-width="1.2"/>
<rect x="168.4" y="435.7" width="6.0" height="19.6" fill="#f23645" stroke="#f23645"/>
<line x1="180.6" y1="432.4" x2="180.6" y2="455.7" stroke="#089981" stroke-width="1.2"/>
<rect x="177.6" y="436.3" width="6.0" height="19.0" fill="#089981" stroke="#089981"/>
<line x1="189.8" y1="433.3" x2="189.8" y2="455.4" stroke="#f23645" stroke-width="1.2"/>
<rect x="186.8" y="434.2" width="6.0" height="20.5" fill="#f23645" stroke="#f23645"/>
<line x1="199.0" y1="448.4" x2="199.0" y2="479.8" stroke="#f23645" stroke-width="1.2"/>
<rect x="196.0" y="455.1" width="6.0" height="22.4" fill="#f23645" stroke="#f23645"/>
<line x1="208.2" y1="466.3" x2="208.2" y2="485.3" stroke="#089981" stroke-width="1.2"/>
<rect x="205.2" y="475.9" width="6.0" height="2.1" fill="#089981" stroke="#089981"/>
<line x1="217.4" y1="470.2" x2="217.4" y2="479.8" stroke="#089981" stroke-width="1.2"/>
<rect x="214.5" y="477.4" width="6.0" height="1.5" fill="#089981" stroke="#089981"/>
<line x1="226.6" y1="469.0" x2="226.6" y2="484.7" stroke="#089981" stroke-width="1.2"/>
<rect x="223.7" y="475.6" width="6.0" height="1.5" fill="#089981" stroke="#089981"/>
<line x1="235.9" y1="471.4" x2="235.9" y2="482.9" stroke="#f23645" stroke-width="1.2"/>
<rect x="232.9" y="475.6" width="6.0" height="5.4" fill="#f23645" stroke="#f23645"/>
<line x1="245.1" y1="478.3" x2="245.1" y2="492.2" stroke="#f23645" stroke-width="1.2"/>
<rect x="242.1" y="480.8" width="6.0" height="10.6" fill="#f23645" stroke="#f23645"/>
<line x1="254.3" y1="471.7" x2="254.3" y2="495.9" stroke="#089981" stroke-width="1.2"/>
<rect x="251.3" y="485.9" width="6.0" height="5.4" fill="#089981" stroke="#089981"/>
<line x1="263.5" y1="470.2" x2="263.5" y2="493.7" stroke="#089981" stroke-width="1.2"/>
<rect x="260.5" y="484.1" width="6.0" height="1.5" fill="#089981" stroke="#089981"/>
<line x1="272.7" y1="456.9" x2="272.7" y2="487.1" stroke="#089981" stroke-width="1.2"/>
<rect x="269.7" y="457.5" width="6.0" height="27.2" fill="#089981" stroke="#089981"/>
<line x1="281.9" y1="378.9" x2="281.9" y2="457.2" stroke="#089981" stroke-width="1.2"/>
<rect x="279.0" y="382.3" width="6.0" height="74.9" fill="#089981" stroke="#089981"/>
<line x1="291.2" y1="357.8" x2="291.2" y2="389.2" stroke="#089981" stroke-width="1.2"/>
<rect x="288.2" y="360.8" width="6.0" height="21.1" fill="#089981" stroke="#089981"/>
<line x1="300.4" y1="353.9" x2="300.4" y2="372.3" stroke="#089981" stroke-width="1.2"/>
<rect x="297.4" y="354.2" width="6.0" height="6.6" fill="#089981" stroke="#089981"/>
<line x1="309.6" y1="348.7" x2="309.6" y2="415.8" stroke="#f23645" stroke-width="1.2"/>
<rect x="306.6" y="353.6" width="6.0" height="47.7" fill="#f23645" stroke="#f23645"/>
<line x1="318.8" y1="386.5" x2="318.8" y2="411.9" stroke="#f23645" stroke-width="1.2"/>
<rect x="315.8" y="401.0" width="6.0" height="9.4" fill="#f23645" stroke="#f23645"/>
<line x1="328.0" y1="410.7" x2="328.0" y2="458.7" stroke="#f23645" stroke-width="1.2"/>
<rect x="325.0" y="410.7" width="6.0" height="39.9" fill="#f23645" stroke="#f23645"/>
<line x1="337.2" y1="451.7" x2="337.2" y2="494.0" stroke="#f23645" stroke-width="1.2"/>
<rect x="334.2" y="451.7" width="6.0" height="20.2" fill="#f23645" stroke="#f23645"/>
<line x1="346.4" y1="457.2" x2="346.4" y2="488.9" stroke="#f23645" stroke-width="1.2"/>
<rect x="343.5" y="471.4" width="6.0" height="6.0" fill="#f23645" stroke="#f23645"/>
<line x1="355.7" y1="460.5" x2="355.7" y2="500.1" stroke="#f23645" stroke-width="1.2"/>
<rect x="352.7" y="477.7" width="6.0" height="20.8" fill="#f23645" stroke="#f23645"/>
<line x1="364.9" y1="489.8" x2="364.9" y2="511.3" stroke="#089981" stroke-width="1.2"/>
<rect x="361.9" y="493.7" width="6.0" height="4.5" fill="#089981" stroke="#089981"/>
<line x1="374.1" y1="491.6" x2="374.1" y2="524.9" stroke="#f23645" stroke-width="1.2"/>
<rect x="371.1" y="493.1" width="6.0" height="24.2" fill="#f23645" stroke="#f23645"/>
<line x1="383.3" y1="511.6" x2="383.3" y2="527.6" stroke="#f23645" stroke-width="1.2"/>
<rect x="380.3" y="517.3" width="6.0" height="1.5" fill="#f23645" stroke="#f23645"/>
<line x1="392.5" y1="498.0" x2="392.5" y2="520.9" stroke="#089981" stroke-width="1.2"/>
<rect x="389.5" y="499.8" width="6.0" height="19.6" fill="#089981" stroke="#089981"/>
<line x1="401.7" y1="489.8" x2="401.7" y2="506.7" stroke="#089981" stroke-width="1.2"/>
<rect x="398.7" y="497.1" width="6.0" height="3.3" fill="#089981" stroke="#089981"/>
<line x1="410.9" y1="488.6" x2="410.9" y2="501.9" stroke="#f23645" stroke-width="1.2"/>
<rect x="408.0" y="497.4" width="6.0" height="1.5" fill="#f23645" stroke="#f23645"/>
<line x1="420.2" y1="480.8" x2="420.2" y2="503.1" stroke="#089981" stroke-width="1.2"/>
<rect x="417.2" y="480.8" width="6.0" height="16.9" fill="#089981" stroke="#089981"/>
<line x1="429.4" y1="475.6" x2="429.4" y2="502.2" stroke="#f23645" stroke-width="1.2"/>
<rect x="426.4" y="480.8" width="6.0" height="19.3" fill="#f23645" stroke="#f23645"/>
<line x1="438.6" y1="497.4" x2="438.6" y2="516.7" stroke="#089981" stroke-width="1.2"/>
<rect x="435.6" y="498.6" width="6.0" height="1.5" fill="#089981" stroke="#089981"/>
<line x1="447.8" y1="469.3" x2="447.8" y2="498.3" stroke="#089981" stroke-width="1.2"/>
<rect x="444.8" y="473.2" width="6.0" height="25.1" fill="#089981" stroke="#089981"/>
<line x1="457.0" y1="470.2" x2="457.0" y2="505.8" stroke="#f23645" stroke-width="1.2"/>
<rect x="454.0" y="472.9" width="6.0" height="13.6" fill="#f23645" stroke="#f23645"/>
<line x1="466.2" y1="249.6" x2="466.2" y2="499.5" stroke="#089981" stroke-width="1.2"/>
<rect x="463.3" y="333.3" width="6.0" height="153.5" fill="#089981" stroke="#089981"/>
<line x1="475.4" y1="259.6" x2="475.4" y2="333.9" stroke="#089981" stroke-width="1.2"/>
<rect x="472.5" y="287.7" width="6.0" height="46.2" fill="#089981" stroke="#089981"/>
<line x1="484.7" y1="216.1" x2="484.7" y2="346.6" stroke="#f23645" stroke-width="1.2"/>
<rect x="481.7" y="287.4" width="6.0" height="51.1" fill="#f23645" stroke="#f23645"/>
<line x1="493.9" y1="285.0" x2="493.9" y2="370.5" stroke="#f23645" stroke-width="1.2"/>
<rect x="490.9" y="338.1" width="6.0" height="30.5" fill="#f23645" stroke="#f23645"/>
<line x1="503.1" y1="368.7" x2="503.1" y2="459.3" stroke="#f23645" stroke-width="1.2"/>
<rect x="500.1" y="369.9" width="6.0" height="11.8" fill="#f23645" stroke="#f23645"/>
<line x1="512.3" y1="377.4" x2="512.3" y2="488.9" stroke="#f23645" stroke-width="1.2"/>
<rect x="509.3" y="382.0" width="6.0" height="47.1" fill="#f23645" stroke="#f23645"/>
<line x1="521.5" y1="425.8" x2="521.5" y2="508.6" stroke="#f23645" stroke-width="1.2"/>
<rect x="518.5" y="428.8" width="6.0" height="79.5" fill="#f23645" stroke="#f23645"/>
<line x1="530.7" y1="507.9" x2="530.7" y2="587.1" stroke="#f23645" stroke-width="1.2"/>
<rect x="527.8" y="508.2" width="6.0" height="42.0" fill="#f23645" stroke="#f23645"/>
<line x1="539.9" y1="508.9" x2="539.9" y2="555.4" stroke="#089981" stroke-width="1.2"/>
<rect x="537.0" y="524.6" width="6.0" height="26.3" fill="#089981" stroke="#089981"/>
<line x1="549.2" y1="490.1" x2="549.2" y2="533.9" stroke="#089981" stroke-width="1.2"/>
<rect x="546.2" y="491.0" width="6.0" height="33.8" fill="#089981" stroke="#089981"/>
<line x1="558.4" y1="477.4" x2="558.4" y2="497.7" stroke="#089981" stroke-width="1.2"/>
<rect x="555.4" y="486.5" width="6.0" height="4.5" fill="#089981" stroke="#089981"/>
<line x1="567.6" y1="471.4" x2="567.6" y2="487.1" stroke="#089981" stroke-width="1.2"/>
<rect x="564.6" y="475.0" width="6.0" height="11.8" fill="#089981" stroke="#089981"/>
<line x1="576.8" y1="476.2" x2="576.8" y2="527.9" stroke="#f23645" stroke-width="1.2"/>
<rect x="573.8" y="476.2" width="6.0" height="12.7" fill="#f23645" stroke="#f23645"/>
<line x1="586.0" y1="488.6" x2="586.0" y2="500.7" stroke="#f23645" stroke-width="1.2"/>
<rect x="583.0" y="489.2" width="6.0" height="2.1" fill="#f23645" stroke="#f23645"/>
<line x1="595.2" y1="482.9" x2="595.2" y2="498.3" stroke="#089981" stroke-width="1.2"/>
<rect x="592.3" y="482.9" width="6.0" height="8.8" fill="#089981" stroke="#089981"/>
<line x1="604.5" y1="480.5" x2="604.5" y2="496.2" stroke="#f23645" stroke-width="1.2"/>
<rect x="601.5" y="482.3" width="6.0" height="3.0" fill="#f23645" stroke="#f23645"/>
<line x1="613.7" y1="477.7" x2="613.7" y2="502.8" stroke="#089981" stroke-width="1.2"/>
<rect x="610.7" y="483.5" width="6.0" height="2.1" fill="#089981" stroke="#089981"/>
<line x1="622.9" y1="466.3" x2="622.9" y2="489.5" stroke="#089981" stroke-width="1.2"/>
<rect x="619.9" y="467.8" width="6.0" height="16.0" fill="#089981" stroke="#089981"/>
<line x1="632.1" y1="459.0" x2="632.1" y2="470.8" stroke="#089981" stroke-width="1.2"/>
<rect x="629.1" y="463.2" width="6.0" height="4.2" fill="#089981" stroke="#089981"/>
<line x1="641.3" y1="457.2" x2="641.3" y2="469.3" stroke="#f23645" stroke-width="1.2"/>
<rect x="638.3" y="463.2" width="6.0" height="1.5" fill="#f23645" stroke="#f23645"/>
<line x1="650.5" y1="463.2" x2="650.5" y2="485.3" stroke="#f23645" stroke-width="1.2"/>
<rect x="647.5" y="464.1" width="6.0" height="21.1" fill="#f23645" stroke="#f23645"/>
<line x1="659.7" y1="484.7" x2="659.7" y2="516.7" stroke="#f23645" stroke-width="1.2"/>
<rect x="656.8" y="484.7" width="6.0" height="32.0" fill="#f23645" stroke="#f23645"/>
<line x1="669.0" y1="508.9" x2="669.0" y2="523.7" stroke="#089981" stroke-width="1.2"/>
<rect x="666.0" y="513.1" width="6.0" height="3.3" fill="#089981" stroke="#089981"/>
<line x1="678.2" y1="501.0" x2="678.2" y2="524.3" stroke="#089981" stroke-width="1.2"/>
<rect x="675.2" y="503.4" width="6.0" height="9.7" fill="#089981" stroke="#089981"/>
<line x1="687.4" y1="487.4" x2="687.4" y2="526.4" stroke="#f23645" stroke-width="1.2"/>
<rect x="684.4" y="502.8" width="6.0" height="6.0" fill="#f23645" stroke="#f23645"/>
<line x1="696.6" y1="501.0" x2="696.6" y2="522.1" stroke="#f23645" stroke-width="1.2"/>
<rect x="693.6" y="508.9" width="6.0" height="7.6" fill="#f23645" stroke="#f23645"/>
<line x1="705.8" y1="514.3" x2="705.8" y2="562.6" stroke="#f23645" stroke-width="1.2"/>
<rect x="702.8" y="516.7" width="6.0" height="44.7" fill="#f23645" stroke="#f23645"/>
<line x1="715.0" y1="559.0" x2="715.0" y2="608.3" stroke="#f23645" stroke-width="1.2"/>
<rect x="712.0" y="562.0" width="6.0" height="38.1" fill="#f23645" stroke="#f23645"/>
<line x1="724.2" y1="590.1" x2="724.2" y2="614.0" stroke="#f23645" stroke-width="1.2"/>
<rect x="721.3" y="600.4" width="6.0" height="2.7" fill="#f23645" stroke="#f23645"/>
<line x1="733.5" y1="586.5" x2="733.5" y2="626.7" stroke="#f23645" stroke-width="1.2"/>
<rect x="730.5" y="603.1" width="6.0" height="23.3" fill="#f23645" stroke="#f23645"/>
<line x1="742.7" y1="617.6" x2="742.7" y2="653.6" stroke="#f23645" stroke-width="1.2"/>
<rect x="739.7" y="622.8" width="6.0" height="11.8" fill="#f23645" stroke="#f23645"/>
<line x1="751.9" y1="592.8" x2="751.9" y2="635.5" stroke="#089981" stroke-width="1.2"/>
<rect x="748.9" y="596.8" width="6.0" height="37.8" fill="#089981" stroke="#089981"/>
<line x1="761.1" y1="561.4" x2="761.1" y2="596.5" stroke="#089981" stroke-width="1.2"/>
<rect x="758.1" y="564.4" width="6.0" height="32.0" fill="#089981" stroke="#089981"/>
<line x1="770.3" y1="529.1" x2="770.3" y2="568.1" stroke="#089981" stroke-width="1.2"/>
<rect x="767.3" y="531.8" width="6.0" height="32.3" fill="#089981" stroke="#089981"/>
<line x1="779.5" y1="523.1" x2="779.5" y2="549.9" stroke="#f23645" stroke-width="1.2"/>
<rect x="776.5" y="530.9" width="6.0" height="16.0" fill="#f23645" stroke="#f23645"/>
<line x1="788.7" y1="527.3" x2="788.7" y2="556.3" stroke="#089981" stroke-width="1.2"/>
<rect x="785.8" y="535.4" width="6.0" height="10.9" fill="#089981" stroke="#089981"/>
<line x1="798.0" y1="513.1" x2="798.0" y2="546.6" stroke="#089981" stroke-width="1.2"/>
<rect x="795.0" y="516.4" width="6.0" height="19.0" fill="#089981" stroke="#089981"/>
<line x1="807.2" y1="497.7" x2="807.2" y2="522.5" stroke="#089981" stroke-width="1.2"/>
<rect x="804.2" y="499.5" width="6.0" height="17.2" fill="#089981" stroke="#089981"/>
<line x1="816.4" y1="470.8" x2="816.4" y2="506.1" stroke="#089981" stroke-width="1.2"/>
<rect x="813.4" y="484.4" width="6.0" height="13.9" fill="#089981" stroke="#089981"/>
<line x1="825.6" y1="475.6" x2="825.6" y2="495.3" stroke="#089981" stroke-width="1.2"/>
<rect x="822.6" y="479.8" width="6.0" height="4.8" fill="#089981" stroke="#089981"/>
<line x1="834.8" y1="478.0" x2="834.8" y2="499.2" stroke="#f23645" stroke-width="1.2"/>
<rect x="831.8" y="479.5" width="6.0" height="17.5" fill="#f23645" stroke="#f23645"/>
<line x1="844.0" y1="494.0" x2="844.0" y2="509.8" stroke="#f23645" stroke-width="1.2"/>
<rect x="841.1" y="497.1" width="6.0" height="12.1" fill="#f23645" stroke="#f23645"/>
<line x1="853.2" y1="491.3" x2="853.2" y2="509.5" stroke="#089981" stroke-width="1.2"/>
<rect x="850.3" y="500.7" width="6.0" height="8.8" fill="#089981" stroke="#089981"/>
<line x1="862.5" y1="482.3" x2="862.5" y2="507.0" stroke="#089981" stroke-width="1.2"/>
<rect x="859.5" y="485.6" width="6.0" height="15.7" fill="#089981" stroke="#089981"/>
<line x1="871.7" y1="465.3" x2="871.7" y2="487.1" stroke="#089981" stroke-width="1.2"/>
<rect x="868.7" y="465.9" width="6.0" height="19.3" fill="#089981" stroke="#089981"/>
<line x1="880.9" y1="451.1" x2="880.9" y2="469.0" stroke="#089981" stroke-width="1.2"/>
<rect x="877.9" y="452.7" width="6.0" height="12.7" fill="#089981" stroke="#089981"/>
<line x1="890.1" y1="438.5" x2="890.1" y2="456.3" stroke="#089981" stroke-width="1.2"/>
<rect x="887.1" y="449.3" width="6.0" height="2.1" fill="#089981" stroke="#089981"/>
<line x1="899.3" y1="437.5" x2="899.3" y2="460.8" stroke="#089981" stroke-width="1.2"/>
<rect x="896.3" y="438.5" width="6.0" height="11.5" fill="#089981" stroke="#089981"/>
<line x1="908.5" y1="401.3" x2="908.5" y2="441.8" stroke="#089981" stroke-width="1.2"/>
<rect x="905.6" y="403.7" width="6.0" height="34.7" fill="#089981" stroke="#089981"/>
<line x1="917.7" y1="381.4" x2="917.7" y2="408.5" stroke="#089981" stroke-width="1.2"/>
<rect x="914.8" y="403.4" width="6.0" height="1.5" fill="#089981" stroke="#089981"/>
<line x1="927.0" y1="369.0" x2="927.0" y2="410.7" stroke="#089981" stroke-width="1.2"/>
<rect x="924.0" y="373.5" width="6.0" height="30.8" fill="#089981" stroke="#089981"/>
<line x1="936.2" y1="343.3" x2="936.2" y2="382.0" stroke="#089981" stroke-width="1.2"/>
<rect x="933.2" y="344.8" width="6.0" height="28.4" fill="#089981" stroke="#089981"/>
<line x1="945.4" y1="335.1" x2="945.4" y2="359.3" stroke="#f23645" stroke-width="1.2"/>
<rect x="942.4" y="344.2" width="6.0" height="8.2" fill="#f23645" stroke="#f23645"/>
<line x1="954.6" y1="350.2" x2="954.6" y2="390.4" stroke="#f23645" stroke-width="1.2"/>
<rect x="951.6" y="352.3" width="6.0" height="13.3" fill="#f23645" stroke="#f23645"/>
<line x1="963.8" y1="352.3" x2="963.8" y2="383.2" stroke="#089981" stroke-width="1.2"/>
<rect x="960.8" y="360.8" width="6.0" height="4.5" fill="#089981" stroke="#089981"/>
<line x1="973.0" y1="340.6" x2="973.0" y2="380.7" stroke="#f23645" stroke-width="1.2"/>
<rect x="970.1" y="360.5" width="6.0" height="10.0" fill="#f23645" stroke="#f23645"/>
<line x1="982.3" y1="342.7" x2="982.3" y2="376.5" stroke="#089981" stroke-width="1.2"/>
<rect x="979.3" y="347.8" width="6.0" height="23.0" fill="#089981" stroke="#089981"/>
<line x1="991.5" y1="337.8" x2="991.5" y2="374.4" stroke="#089981" stroke-width="1.2"/>
<rect x="988.5" y="343.9" width="6.0" height="3.9" fill="#089981" stroke="#089981"/>
<line x1="1000.7" y1="321.5" x2="1000.7" y2="346.9" stroke="#089981" stroke-width="1.2"/>
<rect x="997.7" y="321.8" width="6.0" height="22.1" fill="#089981" stroke="#089981"/>
<line x1="1009.9" y1="315.8" x2="1009.9" y2="336.9" stroke="#089981" stroke-width="1.2"/>
<rect x="1006.9" y="321.5" width="6.0" height="1.5" fill="#089981" stroke="#089981"/>
<line x1="1019.1" y1="263.5" x2="1019.1" y2="321.8" stroke="#089981" stroke-width="1.2"/>
<rect x="1016.1" y="268.4" width="6.0" height="53.5" fill="#089981" stroke="#089981"/>
<line x1="1028.3" y1="247.5" x2="1028.3" y2="273.8" stroke="#089981" stroke-width="1.2"/>
<rect x="1025.3" y="266.5" width="6.0" height="2.1" fill="#089981" stroke="#089981"/>
<line x1="1037.5" y1="262.6" x2="1037.5" y2="283.2" stroke="#f23645" stroke-width="1.2"/>
<rect x="1034.6" y="266.5" width="6.0" height="12.4" fill="#f23645" stroke="#f23645"/>
<line x1="1046.8" y1="257.2" x2="1046.8" y2="280.4" stroke="#089981" stroke-width="1.2"/>
<rect x="1043.8" y="260.8" width="6.0" height="18.1" fill="#089981" stroke="#089981"/>
<line x1="1056.0" y1="256.0" x2="1056.0" y2="298.0" stroke="#f23645" stroke-width="1.2"/>
<rect x="1053.0" y="261.1" width="6.0" height="15.1" fill="#f23645" stroke="#f23645"/>
<line x1="1065.2" y1="269.6" x2="1065.2" y2="291.0" stroke="#f23645" stroke-width="1.2"/>
<rect x="1062.2" y="277.1" width="6.0" height="5.4" fill="#f23645" stroke="#f23645"/>
<line x1="1074.4" y1="282.6" x2="1074.4" y2="305.2" stroke="#f23645" stroke-width="1.2"/>
<rect x="1071.4" y="282.9" width="6.0" height="4.8" fill="#f23645" stroke="#f23645"/>
<line x1="1083.6" y1="285.0" x2="1083.6" y2="330.9" stroke="#f23645" stroke-width="1.2"/>
<rect x="1080.6" y="286.2" width="6.0" height="38.7" fill="#f23645" stroke="#f23645"/>
<line x1="1092.8" y1="167.1" x2="1092.8" y2="332.4" stroke="#089981" stroke-width="1.2"/>
<rect x="1089.8" y="241.5" width="6.0" height="83.4" fill="#089981" stroke="#089981"/>
<line x1="1102.0" y1="220.3" x2="1102.0" y2="286.2" stroke="#089981" stroke-width="1.2"/>
<rect x="1099.1" y="233.9" width="6.0" height="7.6" fill="#089981" stroke="#089981"/>
<line x1="1111.3" y1="226.1" x2="1111.3" y2="280.1" stroke="#f23645" stroke-width="1.2"/>
<rect x="1108.3" y="233.6" width="6.0" height="44.7" fill="#f23645" stroke="#f23645"/>
<line x1="1120.5" y1="254.8" x2="1120.5" y2="292.8" stroke="#089981" stroke-width="1.2"/>
<rect x="1117.5" y="255.1" width="6.0" height="23.3" fill="#089981" stroke="#089981"/>
<line x1="1129.7" y1="238.1" x2="1129.7" y2="262.9" stroke="#089981" stroke-width="1.2"/>
<rect x="1126.7" y="252.9" width="6.0" height="1.5" fill="#089981" stroke="#089981"/>
<line x1="1138.9" y1="241.5" x2="1138.9" y2="288.6" stroke="#f23645" stroke-width="1.2"/>
<rect x="1135.9" y="252.9" width="6.0" height="6.3" fill="#f23645" stroke="#f23645"/>
<line x1="1148.1" y1="257.2" x2="1148.1" y2="346.6" stroke="#f23645" stroke-width="1.2"/>
<rect x="1145.1" y="257.2" width="6.0" height="85.8" fill="#f23645" stroke="#f23645"/>
<line x1="1157.3" y1="336.9" x2="1157.3" y2="392.2" stroke="#f23645" stroke-width="1.2"/>
<rect x="1154.4" y="343.0" width="6.0" height="48.9" fill="#f23645" stroke="#f23645"/>
<line x1="1166.5" y1="326.4" x2="1166.5" y2="398.0" stroke="#089981" stroke-width="1.2"/>
<rect x="1163.6" y="345.1" width="6.0" height="46.5" fill="#089981" stroke="#089981"/>
<line x1="1175.8" y1="336.3" x2="1175.8" y2="388.9" stroke="#f23645" stroke-width="1.2"/>
<rect x="1172.8" y="345.4" width="6.0" height="31.7" fill="#f23645" stroke="#f23645"/>
<line x1="1185.0" y1="365.6" x2="1185.0" y2="436.3" stroke="#f23645" stroke-width="1.2"/>
<rect x="1182.0" y="376.8" width="6.0" height="58.3" fill="#f23645" stroke="#f23645"/>
<line x1="1194.2" y1="410.7" x2="1194.2" y2="452.4" stroke="#089981" stroke-width="1.2"/>
<rect x="1191.2" y="412.8" width="6.0" height="21.5" fill="#089981" stroke="#089981"/>
<line x1="1203.4" y1="387.7" x2="1203.4" y2="444.5" stroke="#f23645" stroke-width="1.2"/>
<rect x="1200.4" y="413.4" width="6.0" height="11.5" fill="#f23645" stroke="#f23645"/>
<line x1="1212.6" y1="373.2" x2="1212.6" y2="439.7" stroke="#089981" stroke-width="1.2"/>
<rect x="1209.6" y="392.5" width="6.0" height="32.6" fill="#089981" stroke="#089981"/>
<line x1="1221.8" y1="356.3" x2="1221.8" y2="395.9" stroke="#f23645" stroke-width="1.2"/>
<rect x="1218.9" y="392.2" width="6.0" height="3.3" fill="#f23645" stroke="#f23645"/>
<line x1="1231.0" y1="350.8" x2="1231.0" y2="413.4" stroke="#089981" stroke-width="1.2"/>
<rect x="1228.1" y="362.9" width="6.0" height="32.6" fill="#089981" stroke="#089981"/>
<line x1="1240.3" y1="333.9" x2="1240.3" y2="373.8" stroke="#089981" stroke-width="1.2"/>
<rect x="1237.3" y="346.6" width="6.0" height="16.0" fill="#089981" stroke="#089981"/>
<line x1="1249.5" y1="295.2" x2="1249.5" y2="346.6" stroke="#089981" stroke-width="1.2"/>
<rect x="1246.5" y="296.1" width="6.0" height="50.5" fill="#089981" stroke="#089981"/>
<line x1="1258.7" y1="285.3" x2="1258.7" y2="305.5" stroke="#089981" stroke-width="1.2"/>
<rect x="1255.7" y="289.5" width="6.0" height="4.8" fill="#089981" stroke="#089981"/>
<line x1="1267.9" y1="272.9" x2="1267.9" y2="289.5" stroke="#089981" stroke-width="1.2"/>
<rect x="1264.9" y="273.8" width="6.0" height="15.4" fill="#089981" stroke="#089981"/>
<line x1="1277.1" y1="247.5" x2="1277.1" y2="278.9" stroke="#089981" stroke-width="1.2"/>
<rect x="1274.1" y="267.4" width="6.0" height="5.4" fill="#089981" stroke="#089981"/>
<line x1="1286.3" y1="243.3" x2="1286.3" y2="276.2" stroke="#089981" stroke-width="1.2"/>
<rect x="1283.4" y="252.6" width="6.0" height="14.5" fill="#089981" stroke="#089981"/>
<line x1="1295.5" y1="244.5" x2="1295.5" y2="263.2" stroke="#f23645" stroke-width="1.2"/>
<rect x="1292.6" y="252.3" width="6.0" height="3.0" fill="#f23645" stroke="#f23645"/>
<line x1="1304.8" y1="242.7" x2="1304.8" y2="272.6" stroke="#f23645" stroke-width="1.2"/>
<rect x="1301.8" y="255.1" width="6.0" height="11.2" fill="#f23645" stroke="#f23645"/>
<line x1="1314.0" y1="252.3" x2="1314.0" y2="273.2" stroke="#089981" stroke-width="1.2"/>
<rect x="1311.0" y="265.3" width="6.0" height="1.8" fill="#089981" stroke="#089981"/>
<line x1="1323.2" y1="252.6" x2="1323.2" y2="282.6" stroke="#f23645" stroke-width="1.2"/>
<rect x="1320.2" y="265.0" width="6.0" height="15.4" fill="#f23645" stroke="#f23645"/>
<line x1="1332.4" y1="265.0" x2="1332.4" y2="280.7" stroke="#089981" stroke-width="1.2"/>
<rect x="1329.4" y="272.6" width="6.0" height="7.3" fill="#089981" stroke="#089981"/>
<line x1="1341.6" y1="252.9" x2="1341.6" y2="278.3" stroke="#089981" stroke-width="1.2"/>
<rect x="1338.6" y="256.6" width="6.0" height="14.8" fill="#089981" stroke="#089981"/>
<line x1="1350.8" y1="250.2" x2="1350.8" y2="260.8" stroke="#f23645" stroke-width="1.2"/>
<rect x="1347.9" y="256.3" width="6.0" height="1.5" fill="#f23645" stroke="#f23645"/>
<line x1="1360.1" y1="245.1" x2="1360.1" y2="270.2" stroke="#089981" stroke-width="1.2"/>
<rect x="1357.1" y="245.7" width="6.0" height="11.8" fill="#089981" stroke="#089981"/>
<line x1="1369.3" y1="242.1" x2="1369.3" y2="251.1" stroke="#f23645" stroke-width="1.2"/>
<rect x="1366.3" y="245.1" width="6.0" height="3.3" fill="#f23645" stroke="#f23645"/>
<line x1="1378.5" y1="247.8" x2="1378.5" y2="263.8" stroke="#f23645" stroke-width="1.2"/>
<rect x="1375.5" y="249.0" width="6.0" height="14.5" fill="#f23645" stroke="#f23645"/>
<line x1="1387.7" y1="260.5" x2="1387.7" y2="277.1" stroke="#f23645" stroke-width="1.2"/>
<rect x="1384.7" y="263.8" width="6.0" height="5.1" fill="#f23645" stroke="#f23645"/>
<line x1="1396.9" y1="268.7" x2="1396.9" y2="290.4" stroke="#f23645" stroke-width="1.2"/>
<rect x="1393.9" y="268.7" width="6.0" height="16.3" fill="#f23645" stroke="#f23645"/>
<line x1="1406.1" y1="268.7" x2="1406.1" y2="288.3" stroke="#089981" stroke-width="1.2"/>
<rect x="1403.1" y="277.4" width="6.0" height="7.6" fill="#089981" stroke="#089981"/>
<line x1="1415.3" y1="261.1" x2="1415.3" y2="278.0" stroke="#089981" stroke-width="1.2"/>
<rect x="1412.4" y="264.4" width="6.0" height="13.6" fill="#089981" stroke="#089981"/>
<line x1="1424.6" y1="263.5" x2="1424.6" y2="274.7" stroke="#f23645" stroke-width="1.2"/>
<rect x="1421.6" y="264.7" width="6.0" height="2.4" fill="#f23645" stroke="#f23645"/>
<line x1="1433.8" y1="264.7" x2="1433.8" y2="275.0" stroke="#f23645" stroke-width="1.2"/>
<rect x="1430.8" y="267.4" width="6.0" height="1.5" fill="#f23645" stroke="#f23645"/>
<line x1="1443.0" y1="253.8" x2="1443.0" y2="270.5" stroke="#089981" stroke-width="1.2"/>
<rect x="1440.0" y="254.2" width="6.0" height="13.3" fill="#089981" stroke="#089981"/>
<line x1="1452.2" y1="252.3" x2="1452.2" y2="263.8" stroke="#f23645" stroke-width="1.2"/>
<rect x="1449.2" y="254.2" width="6.0" height="8.2" fill="#f23645" stroke="#f23645"/>
<line x1="1461.4" y1="256.3" x2="1461.4" y2="269.3" stroke="#089981" stroke-width="1.2"/>
<rect x="1458.4" y="261.4" width="6.0" height="1.5" fill="#089981" stroke="#089981"/>
<line x1="1470.6" y1="260.5" x2="1470.6" y2="265.3" stroke="#f23645" stroke-width="1.2"/>
<rect x="1467.6" y="261.1" width="6.0" height="4.2" fill="#f23645" stroke="#f23645"/>
<line x1="1479.8" y1="265.3" x2="1479.8" y2="266.5" stroke="#f23645" stroke-width="1.2"/>
<rect x="1476.9" y="265.3" width="6.0" height="1.5" fill="#f23645" stroke="#f23645"/>
<line x1="1489.1" y1="258.1" x2="1489.1" y2="270.2" stroke="#089981" stroke-width="1.2"/>
<rect x="1486.1" y="265.3" width="6.0" height="1.5" fill="#089981" stroke="#089981"/>
<line x1="1498.3" y1="260.2" x2="1498.3" y2="269.3" stroke="#089981" stroke-width="1.2"/>
<rect x="1495.3" y="265.6" width="6.0" height="1.5" fill="#089981" stroke="#089981"/>
<line x1="1507.5" y1="265.3" x2="1507.5" y2="270.8" stroke="#f23645" stroke-width="1.2"/>
<rect x="1504.5" y="265.6" width="6.0" height="2.1" fill="#f23645" stroke="#f23645"/>
<line x1="1516.7" y1="265.0" x2="1516.7" y2="277.1" stroke="#f23645" stroke-width="1.2"/>
<rect x="1513.7" y="268.0" width="6.0" height="5.1" fill="#f23645" stroke="#f23645"/>
<line x1="1525.9" y1="270.8" x2="1525.9" y2="274.4" stroke="#f23645" stroke-width="1.2"/>
<rect x="1522.9" y="273.2" width="6.0" height="1.5" fill="#f23645" stroke="#f23645"/>
<line x1="1535.1" y1="273.5" x2="1535.1" y2="282.6" stroke="#f23645" stroke-width="1.2"/>
<rect x="1532.2" y="274.1" width="6.0" height="3.6" fill="#f23645" stroke="#f23645"/>
<line x1="1544.3" y1="272.3" x2="1544.3" y2="278.3" stroke="#089981" stroke-width="1.2"/>
<rect x="1541.4" y="275.9" width="6.0" height="2.4" fill="#089981" stroke="#089981"/>
<line x1="1553.6" y1="270.5" x2="1553.6" y2="276.5" stroke="#089981" stroke-width="1.2"/>
<rect x="1550.6" y="273.5" width="6.0" height="3.0" fill="#089981" stroke="#089981"/>
<line x1="1562.8" y1="266.2" x2="1562.8" y2="275.0" stroke="#089981" stroke-width="1.2"/>
<rect x="1559.8" y="267.1" width="6.0" height="6.0" fill="#089981" stroke="#089981"/>
<line x1="1572.0" y1="262.9" x2="1572.0" y2="295.2" stroke="#f23645" stroke-width="1.2"/>
<rect x="1569.0" y="266.5" width="6.0" height="22.7" fill="#f23645" stroke="#f23645"/>
<line x1="1581.2" y1="265.3" x2="1581.2" y2="290.1" stroke="#089981" stroke-width="1.2"/>
<rect x="1578.2" y="269.3" width="6.0" height="19.9" fill="#089981" stroke="#089981"/>
<line x1="1590.4" y1="265.0" x2="1590.4" y2="278.0" stroke="#f23645" stroke-width="1.2"/>
<rect x="1587.4" y="268.7" width="6.0" height="6.9" fill="#f23645" stroke="#f23645"/>
<line x1="1599.6" y1="270.5" x2="1599.6" y2="288.3" stroke="#f23645" stroke-width="1.2"/>
<rect x="1596.7" y="276.2" width="6.0" height="2.1" fill="#f23645" stroke="#f23645"/>
<line x1="1608.8" y1="265.3" x2="1608.8" y2="279.5" stroke="#089981" stroke-width="1.2"/>
<rect x="1605.9" y="272.6" width="6.0" height="6.0" fill="#089981" stroke="#089981"/>
<line x1="1618.1" y1="267.1" x2="1618.1" y2="288.0" stroke="#f23645" stroke-width="1.2"/>
<rect x="1615.1" y="271.7" width="6.0" height="1.5" fill="#f23645" stroke="#f23645"/>
<line x1="1627.3" y1="259.6" x2="1627.3" y2="279.5" stroke="#f23645" stroke-width="1.2"/>
<rect x="1624.3" y="271.4" width="6.0" height="3.6" fill="#f23645" stroke="#f23645"/>
<line x1="1636.5" y1="261.4" x2="1636.5" y2="275.3" stroke="#089981" stroke-width="1.2"/>
<rect x="1633.5" y="267.7" width="6.0" height="7.3" fill="#089981" stroke="#089981"/>
<line x1="1645.7" y1="261.1" x2="1645.7" y2="272.9" stroke="#089981" stroke-width="1.2"/>
<rect x="1642.7" y="267.7" width="6.0" height="1.5" fill="#089981" stroke="#089981"/>
<line x1="1654.9" y1="262.3" x2="1654.9" y2="274.1" stroke="#089981" stroke-width="1.2"/>
<rect x="1651.9" y="263.5" width="6.0" height="4.2" fill="#089981" stroke="#089981"/>
<line x1="1664.1" y1="252.9" x2="1664.1" y2="263.2" stroke="#089981" stroke-width="1.2"/>
<rect x="1661.2" y="258.1" width="6.0" height="5.1" fill="#089981" stroke="#089981"/>
<line x1="1673.4" y1="247.2" x2="1673.4" y2="261.7" stroke="#089981" stroke-width="1.2"/>
<rect x="1670.4" y="250.2" width="6.0" height="7.6" fill="#089981" stroke="#089981"/>
<line x1="1682.6" y1="228.8" x2="1682.6" y2="250.8" stroke="#089981" stroke-width="1.2"/>
<rect x="1679.6" y="234.8" width="6.0" height="16.0" fill="#089981" stroke="#089981"/>
<line x1="1691.8" y1="215.8" x2="1691.8" y2="234.5" stroke="#089981" stroke-width="1.2"/>
<rect x="1688.8" y="220.6" width="6.0" height="13.9" fill="#089981" stroke="#089981"/>
<line x1="1701.0" y1="204.9" x2="1701.0" y2="223.3" stroke="#089981" stroke-width="1.2"/>
<rect x="1698.0" y="217.0" width="6.0" height="3.3" fill="#089981" stroke="#089981"/>
<line x1="1710.2" y1="217.3" x2="1710.2" y2="234.8" stroke="#f23645" stroke-width="1.2"/>
<rect x="1707.2" y="217.3" width="6.0" height="10.9" fill="#f23645" stroke="#f23645"/>
<line x1="1719.4" y1="217.3" x2="1719.4" y2="227.9" stroke="#089981" stroke-width="1.2"/>
<rect x="1716.4" y="221.2" width="6.0" height="6.3" fill="#089981" stroke="#089981"/>
<line x1="1728.6" y1="216.1" x2="1728.6" y2="227.6" stroke="#089981" stroke-width="1.2"/>
<rect x="1725.7" y="220.3" width="6.0" height="1.5" fill="#089981" stroke="#089981"/>
<line x1="1737.9" y1="217.0" x2="1737.9" y2="232.1" stroke="#f23645" stroke-width="1.2"/>
<rect x="1734.9" y="220.9" width="6.0" height="8.5" fill="#f23645" stroke="#f23645"/>
<line x1="1747.1" y1="227.0" x2="1747.1" y2="236.9" stroke="#f23645" stroke-width="1.2"/>
<rect x="1744.1" y="229.7" width="6.0" height="3.0" fill="#f23645" stroke="#f23645"/>
<line x1="1756.3" y1="227.0" x2="1756.3" y2="243.3" stroke="#f23645" stroke-width="1.2"/>
<rect x="1753.3" y="231.8" width="6.0" height="7.3" fill="#f23645" stroke="#f23645"/>
<line x1="1765.5" y1="239.6" x2="1765.5" y2="249.6" stroke="#f23645" stroke-width="1.2"/>
<rect x="1762.5" y="239.6" width="6.0" height="7.9" fill="#f23645" stroke="#f23645"/>
<line x1="1774.7" y1="225.7" x2="1774.7" y2="247.8" stroke="#089981" stroke-width="1.2"/>
<rect x="1771.7" y="226.7" width="6.0" height="20.8" fill="#089981" stroke="#089981"/>
<line x1="1783.9" y1="219.1" x2="1783.9" y2="233.0" stroke="#f23645" stroke-width="1.2"/>
<rect x="1780.9" y="227.0" width="6.0" height="4.2" fill="#f23645" stroke="#f23645"/>
<line x1="1793.1" y1="140.5" x2="1793.1" y2="230.9" stroke="#089981" stroke-width="1.2"/>
<rect x="1790.2" y="150.8" width="6.0" height="80.1" fill="#089981" stroke="#089981"/>
<line x1="1802.4" y1="136.0" x2="1802.4" y2="160.8" stroke="#089981" stroke-width="1.2"/>
<rect x="1799.4" y="139.0" width="6.0" height="12.4" fill="#089981" stroke="#089981"/>
<line x1="1811.6" y1="116.7" x2="1811.6" y2="164.1" stroke="#f23645" stroke-width="1.2"/>
<rect x="1808.6" y="138.7" width="6.0" height="1.5" fill="#f23645" stroke="#f23645"/>
<line x1="1820.8" y1="119.7" x2="1820.8" y2="155.7" stroke="#089981" stroke-width="1.2"/>
<rect x="1817.8" y="132.7" width="6.0" height="7.6" fill="#089981" stroke="#089981"/>
<line x1="1830.0" y1="88.3" x2="1830.0" y2="141.2" stroke="#089981" stroke-width="1.2"/>
<rect x="1827.0" y="90.1" width="6.0" height="42.6" fill="#089981" stroke="#089981"/>
<polyline points="70.0,570.3 79.2,562.1 88.4,547.4 97.6,538.1 106.9,524.7 116.1,515.0 125.3,508.3 134.5,498.6 143.7,489.2 152.9,479.2 162.1,464.8 171.4,461.6 180.6,453.2 189.8,453.7 199.0,461.6 208.2,466.4 217.4,470.1 226.6,471.9 235.9,475.0 245.1,480.4 254.3,482.2 263.5,482.9 272.7,474.4 281.9,443.7 291.2,416.1 300.4,395.4 309.6,397.4 318.8,401.7 328.0,418.0 337.2,436.0 346.4,449.8 355.7,466.1 364.9,475.3 374.1,489.3 383.3,499.1 392.5,499.4 401.7,498.6 410.9,498.3 420.2,492.4 429.4,495.0 438.6,496.2 447.8,488.5 457.0,487.8 466.2,436.3 475.4,386.8 484.7,370.7 493.9,370.0 503.1,373.9 512.3,392.3 521.5,430.9 530.7,470.7 539.9,488.7 549.2,489.5 558.4,488.5 567.6,484.0 576.8,485.6 586.0,487.5 595.2,486.0 604.5,485.7 613.7,485.0 622.9,479.2 632.1,473.9 641.3,470.9 650.5,475.7 659.7,489.3 669.0,497.3 678.2,499.3 687.4,502.5 696.6,507.1 705.8,525.2 715.0,550.2 724.2,567.8 733.5,587.3 742.7,603.1 751.9,601.0 761.1,588.8 770.3,569.8 779.5,562.2 788.7,553.3 798.0,541.0 807.2,527.1 816.4,512.9 825.6,501.9 834.8,500.3 844.0,503.2 853.2,502.4 862.5,496.8 871.7,486.5 880.9,475.2 890.1,466.6 899.3,457.2 908.5,439.4 917.7,427.4 927.0,409.4 936.2,387.9 945.4,376.0 954.6,372.6 963.8,368.6 973.0,369.3 982.3,362.1 991.5,356.0 1000.7,344.6 1009.9,336.9 1019.1,314.1 1028.3,298.2 1037.5,291.8 1046.8,281.5 1056.0,279.7 1065.2,280.7 1074.4,283.0 1083.6,297.0 1092.8,278.5 1102.0,263.6 1111.3,268.5 1120.5,264.0 1129.7,260.3 1138.9,260.0 1148.1,287.6 1157.3,322.4 1166.5,330.0 1175.8,345.7 1185.0,375.5 1194.2,387.9 1203.4,400.2 1212.6,397.7 1221.8,397.0 1231.0,385.6 1240.3,372.6 1249.5,347.1 1258.7,327.9 1267.9,309.9 1277.1,295.7 1286.3,281.4 1295.5,272.7 1304.8,270.5 1314.0,268.8 1323.2,272.7 1332.4,272.6 1341.6,267.3 1350.8,263.9 1360.1,257.8 1369.3,254.7 1378.5,257.6 1387.7,261.4 1396.9,269.3 1406.1,272.0 1415.3,269.5 1424.6,268.7 1433.8,268.5 1443.0,263.7 1452.2,263.2 1461.4,262.6 1470.6,263.5 1479.8,264.5 1489.1,264.8 1498.3,265.1 1507.5,266.0 1516.7,268.4 1525.9,270.2 1535.1,272.7 1544.3,273.8 1553.6,273.7 1562.8,271.5 1572.0,277.4 1581.2,274.7 1590.4,275.0 1599.6,276.1 1608.8,274.9 1618.1,273.9 1627.3,274.3 1636.5,272.1 1645.7,270.7 1654.9,268.3 1664.1,264.9 1673.4,260.0 1682.6,251.6 1691.8,241.3 1701.0,233.2 1710.2,231.5 1719.4,228.1 1728.6,225.5 1737.9,226.8 1747.1,228.8 1756.3,232.2 1765.5,237.3 1774.7,233.7 1783.9,232.9 1793.1,205.5 1802.4,183.4 1811.6,169.0 1820.8,156.9 1830.0,134.6" fill="none" stroke="#ffff00" stroke-width="1.2"/>
<polyline points="70.0,594.3 79.2,587.3 88.4,577.4 97.6,569.1 106.9,559.0 116.1,549.9 125.3,542.1 134.5,533.1 143.7,524.1 152.9,514.8 162.1,503.6 171.4,496.7 180.6,488.1 189.8,483.3 199.0,482.5 208.2,481.5 217.4,480.9 226.6,480.2 235.9,480.3 245.1,481.9 254.3,482.5 263.5,482.7 272.7,479.1 281.9,465.3 291.2,450.3 300.4,436.6 309.6,431.6 318.8,428.5 328.0,431.7 337.2,437.4 346.4,443.1 355.7,451.1 364.9,457.2 374.1,465.8 383.3,473.3 392.5,477.1 401.7,480.0 410.9,482.5 420.2,482.2 429.4,484.8 438.6,486.8 447.8,484.8 457.0,485.1 466.2,463.4 475.4,438.3 484.7,424.0 493.9,416.1 503.1,411.2 512.3,413.7 521.5,427.2 530.7,444.8 539.9,456.2 549.2,461.2 558.4,464.8 567.6,466.3 576.8,469.5 586.0,472.6 595.2,474.1 604.5,475.7 613.7,476.8 622.9,475.5 632.1,473.8 641.3,472.5 650.5,474.3 659.7,480.4 669.0,485.0 678.2,487.7 687.4,490.7 696.6,494.4 705.8,503.9 715.0,517.7 724.2,529.9 733.5,543.7 742.7,556.7 751.9,562.4 761.1,562.7 770.3,558.3 779.5,556.6 788.7,553.6 798.0,548.3 807.2,541.3 816.4,533.2 825.6,525.6 834.8,521.5 844.0,519.7 853.2,517.0 862.5,512.5 871.7,505.9 880.9,498.3 890.1,491.3 899.3,483.7 908.5,472.3 917.7,462.5 927.0,449.8 936.2,434.8 945.4,423.0 954.6,414.8 963.8,407.1 973.0,401.8 982.3,394.1 991.5,387.0 1000.7,377.6 1009.9,369.6 1019.1,355.2 1028.3,342.5 1037.5,333.4 1046.8,323.0 1056.0,316.4 1065.2,311.5 1074.4,308.1 1083.6,310.5 1092.8,300.6 1102.0,291.1 1111.3,289.3 1120.5,284.4 1129.7,279.9 1138.9,277.0 1148.1,286.4 1157.3,301.5 1166.5,307.7 1175.8,317.6 1185.0,334.4 1194.2,345.6 1203.4,356.9 1212.6,362.0 1221.8,366.8 1231.0,366.2 1240.3,363.4 1249.5,353.8 1258.7,344.6 1267.9,334.5 1277.1,324.9 1286.3,314.6 1295.5,306.1 1304.8,300.4 1314.0,295.4 1323.2,293.3 1332.4,290.3 1341.6,285.5 1350.8,281.5 1360.1,276.3 1369.3,272.4 1378.5,271.1 1387.7,270.8 1396.9,272.8 1406.1,273.5 1415.3,272.2 1424.6,271.5 1433.8,271.0 1443.0,268.6 1452.2,267.7 1461.4,266.8 1470.6,266.6 1479.8,266.6 1489.1,266.4 1498.3,266.3 1507.5,266.5 1516.7,267.4 1525.9,268.4 1535.1,269.7 1544.3,270.6 1553.6,271.0 1562.8,270.4 1572.0,273.1 1581.2,272.6 1590.4,273.0 1599.6,273.8 1608.8,273.6 1618.1,273.4 1627.3,273.6 1636.5,272.8 1645.7,272.0 1654.9,270.8 1664.1,269.0 1673.4,266.3 1682.6,261.8 1691.8,255.9 1701.0,250.4 1710.2,247.2 1719.4,243.5 1728.6,240.2 1737.9,238.6 1747.1,237.8 1756.3,238.0 1765.5,239.3 1774.7,237.5 1783.9,236.6 1793.1,224.4 1802.4,212.2 1811.6,201.9 1820.8,192.0 1830.0,177.4" fill="none" stroke="#ff0000" stroke-width="1.2"/>
<polyline points="70.0,605.3 79.2,603.0 88.4,599.6 97.6,596.5 106.9,592.6 116.1,588.8 125.3,585.2 134.5,581.0 143.7,576.7 152.9,572.0 162.1,566.7 171.4,562.3 180.6,557.4 189.8,553.4 199.0,550.4 208.2,547.5 217.4,544.7 226.6,542.0 235.9,539.6 245.1,537.7 254.3,535.7 263.5,533.7 272.7,530.7 281.9,524.9 291.2,518.4 300.4,512.0 309.6,507.7 318.8,503.8 328.0,501.8 337.2,500.6 346.4,499.7 355.7,499.6 364.9,499.4 374.1,500.1 383.3,500.8 392.5,500.8 401.7,500.7 410.9,500.5 420.2,499.8 429.4,499.8 438.6,499.7 447.8,498.7 457.0,498.2 466.2,491.7 475.4,483.7 484.7,478.0 493.9,473.8 503.1,470.1 512.3,468.5 521.5,470.1 530.7,473.2 539.9,475.2 549.2,475.9 558.4,476.3 567.6,476.2 576.8,476.7 586.0,477.3 595.2,477.5 604.5,477.8 613.7,478.0 622.9,477.6 632.1,477.1 641.3,476.6 650.5,476.9 659.7,478.5 669.0,479.8 678.2,480.8 687.4,481.9 696.6,483.2 705.8,486.3 715.0,490.8 724.2,495.2 733.5,500.3 742.7,505.6 751.9,509.2 761.1,511.3 770.3,512.1 779.5,513.5 788.7,514.3 798.0,514.4 807.2,513.8 816.4,512.7 825.6,511.4 834.8,510.8 844.0,510.8 853.2,510.4 862.5,509.4 871.7,507.7 880.9,505.5 890.1,503.3 899.3,500.8 908.5,497.0 917.7,493.3 927.0,488.6 936.2,483.0 945.4,477.9 954.6,473.5 963.8,469.0 973.0,465.2 982.3,460.6 991.5,456.0 1000.7,450.7 1009.9,445.7 1019.1,438.7 1028.3,432.0 1037.5,426.0 1046.8,419.5 1056.0,413.9 1065.2,408.7 1074.4,404.0 1083.6,400.9 1092.8,394.6 1102.0,388.3 1111.3,384.0 1120.5,378.9 1129.7,374.0 1138.9,369.5 1148.1,368.5 1157.3,369.4 1166.5,368.4 1175.8,368.8 1185.0,371.4 1194.2,373.0 1203.4,375.0 1212.6,375.7 1221.8,376.5 1231.0,376.0 1240.3,374.8 1249.5,371.7 1258.7,368.5 1267.9,364.8 1277.1,361.0 1286.3,356.7 1295.5,352.7 1304.8,349.4 1314.0,346.1 1323.2,343.5 1332.4,340.7 1341.6,337.4 1350.8,334.3 1360.1,330.8 1369.3,327.6 1378.5,325.0 1387.7,322.8 1396.9,321.4 1406.1,319.6 1415.3,317.5 1424.6,315.5 1433.8,313.6 1443.0,311.3 1452.2,309.4 1461.4,307.5 1470.6,305.8 1479.8,304.3 1489.1,302.8 1498.3,301.3 1507.5,300.0 1516.7,299.0 1525.9,298.0 1535.1,297.2 1544.3,296.3 1553.6,295.4 1562.8,294.3 1572.0,294.1 1581.2,293.2 1590.4,292.5 1599.6,291.9 1608.8,291.2 1618.1,290.4 1627.3,289.8 1636.5,288.9 1645.7,288.1 1654.9,287.1 1664.1,286.0 1673.4,284.6 1682.6,282.6 1691.8,280.2 1701.0,277.7 1710.2,275.8 1719.4,273.6 1728.6,271.6 1737.9,269.9 1747.1,268.4 1756.3,267.3 1765.5,266.5 1774.7,265.0 1783.9,263.6 1793.1,259.2 1802.4,254.5 1811.6,250.0 1820.8,245.4 1830.0,239.3" fill="none" stroke="#00e5ff" stroke-width="1.6"/>
<polyline points="70.0,591.9 79.2,591.5 88.4,590.7 97.6,590.0 106.9,589.1 116.1,588.2 125.3,587.3 134.5,586.2 143.7,585.0 152.9,583.8 162.1,582.3 171.4,581.0 180.6,579.6 189.8,578.4 199.0,577.4 208.2,576.4 217.4,575.4 226.6,574.4 235.9,573.4 245.1,572.6 254.3,571.8 263.5,570.9 272.7,569.8 281.9,567.9 291.2,565.8 300.4,563.7 309.6,562.1 318.8,560.6 328.0,559.5 337.2,558.6 346.4,557.8 355.7,557.2 364.9,556.6 374.1,556.2 383.3,555.8 392.5,555.3 401.7,554.7 410.9,554.1 420.2,553.4 429.4,552.9 438.6,552.3 447.8,551.6 457.0,550.9 466.2,548.7 475.4,546.1 484.7,544.1 493.9,542.3 503.1,540.7 512.3,539.6 521.5,539.3 530.7,539.4 539.9,539.3 549.2,538.8 558.4,538.3 567.6,537.6 576.8,537.2 586.0,536.7 595.2,536.2 604.5,535.7 613.7,535.1 622.9,534.5 632.1,533.8 641.3,533.1 650.5,532.6 659.7,532.4 669.0,532.2 678.2,532.0 687.4,531.7 696.6,531.6 705.8,531.9 715.0,532.6 724.2,533.3 733.5,534.2 742.7,535.2 751.9,535.8 761.1,536.1 770.3,536.0 779.5,536.1 788.7,536.1 798.0,535.9 807.2,535.6 816.4,535.1 825.6,534.5 834.8,534.1 844.0,533.9 853.2,533.6 862.5,533.1 871.7,532.4 880.9,531.6 890.1,530.8 899.3,529.9 908.5,528.6 917.7,527.4 927.0,525.9 936.2,524.1 945.4,522.3 954.6,520.8 963.8,519.2 973.0,517.7 982.3,516.0 991.5,514.3 1000.7,512.4 1009.9,510.5 1019.1,508.1 1028.3,505.7 1037.5,503.4 1046.8,501.0 1056.0,498.8 1065.2,496.6 1074.4,494.5 1083.6,492.9 1092.8,490.4 1102.0,487.8 1111.3,485.7 1120.5,483.4 1129.7,481.1 1138.9,478.9 1148.1,477.6 1157.3,476.7 1166.5,475.4 1175.8,474.4 1185.0,474.0 1194.2,473.4 1203.4,473.0 1212.6,472.2 1221.8,471.4 1231.0,470.3 1240.3,469.1 1249.5,467.4 1258.7,465.6 1267.9,463.7 1277.1,461.7 1286.3,459.6 1295.5,457.6 1304.8,455.7 1314.0,453.8 1323.2,452.1 1332.4,450.3 1341.6,448.4 1350.8,446.5 1360.1,444.5 1369.3,442.5 1378.5,440.7 1387.7,439.0 1396.9,437.5 1406.1,435.9 1415.3,434.2 1424.6,432.5 1433.8,430.9 1443.0,429.1 1452.2,427.5 1461.4,425.8 1470.6,424.2 1479.8,422.7 1489.1,421.1 1498.3,419.6 1507.5,418.0 1516.7,416.6 1525.9,415.2 1535.1,413.8 1544.3,412.4 1553.6,411.1 1562.8,409.6 1572.0,408.4 1581.2,407.0 1590.4,405.7 1599.6,404.5 1608.8,403.2 1618.1,401.8 1627.3,400.6 1636.5,399.3 1645.7,398.0 1654.9,396.6 1664.1,395.2 1673.4,393.8 1682.6,392.2 1691.8,390.5 1701.0,388.8 1710.2,387.2 1719.4,385.5 1728.6,383.9 1737.9,382.4 1747.1,380.9 1756.3,379.5 1765.5,378.1 1774.7,376.6 1783.9,375.2 1793.1,373.0 1802.4,370.6 1811.6,368.3 1820.8,366.0 1830.0,363.2" fill="none" stroke="#ffffff" stroke-width="2.0"/>
<polyline points="70.0,691.7 79.2,691.4 88.4,690.9 97.6,690.5 106.9,690.0 116.1,689.5 125.3,689.0 134.5,688.5 143.7,688.0 152.9,687.4 162.1,686.8 171.4,686.2 180.6,685.6 189.8,685.0 199.0,684.5 208.2,684.0 217.4,683.4 226.6,682.9 235.9,682.4 245.1,681.9 254.3,681.5 263.5,681.0 272.7,680.4 281.9,679.7 291.2,678.9 300.4,678.1 309.6,677.4 318.8,676.7 328.0,676.1 337.2,675.6 346.4,675.1 355.7,674.7 364.9,674.2 374.1,673.8 383.3,673.5 392.5,673.0 401.7,672.6 410.9,672.1 420.2,671.7 429.4,671.2 438.6,670.8 447.8,670.3 457.0,669.9 466.2,669.0 475.4,668.1 484.7,667.2 493.9,666.5 503.1,665.8 512.3,665.2 521.5,664.8 530.7,664.5 539.9,664.2 549.2,663.7 558.4,663.3 567.6,662.8 576.8,662.4 586.0,662.0 595.2,661.5 604.5,661.1 613.7,660.6 622.9,660.1 632.1,659.7 641.3,659.2 650.5,658.7 659.7,658.4 669.0,658.0 678.2,657.6 687.4,657.3 696.6,656.9 705.8,656.7 715.0,656.5 724.2,656.4 733.5,656.3 742.7,656.3 751.9,656.1 761.1,655.9 770.3,655.6 779.5,655.3 788.7,655.0 798.0,654.7 807.2,654.3 816.4,653.9 825.6,653.4 834.8,653.0 844.0,652.7 853.2,652.3 862.5,651.9 871.7,651.4 880.9,650.9 890.1,650.4 899.3,649.9 908.5,649.3 917.7,648.6 927.0,648.0 936.2,647.2 945.4,646.5 954.6,645.8 963.8,645.1 973.0,644.4 982.3,643.6 991.5,642.9 1000.7,642.1 1009.9,641.3 1019.1,640.3 1028.3,639.4 1037.5,638.5 1046.8,637.6 1056.0,636.7 1065.2,635.8 1074.4,634.9 1083.6,634.1 1092.8,633.2 1102.0,632.2 1111.3,631.3 1120.5,630.3 1129.7,629.4 1138.9,628.5 1148.1,627.8 1157.3,627.2 1166.5,626.5 1175.8,625.8 1185.0,625.4 1194.2,624.8 1203.4,624.3 1212.6,623.8 1221.8,623.2 1231.0,622.5 1240.3,621.9 1249.5,621.0 1258.7,620.2 1267.9,619.3 1277.1,618.5 1286.3,617.6 1295.5,616.7 1304.8,615.8 1314.0,614.9 1323.2,614.1 1332.4,613.2 1341.6,612.3 1350.8,611.4 1360.1,610.5 1369.3,609.6 1378.5,608.8 1387.7,607.9 1396.9,607.1 1406.1,606.3 1415.3,605.4 1424.6,604.6 1433.8,603.7 1443.0,602.9 1452.2,602.0 1461.4,601.2 1470.6,600.3 1479.8,599.5 1489.1,598.7 1498.3,597.8 1507.5,597.0 1516.7,596.2 1525.9,595.4 1535.1,594.6 1544.3,593.8 1553.6,593.0 1562.8,592.2 1572.0,591.4 1581.2,590.6 1590.4,589.8 1599.6,589.1 1608.8,588.3 1618.1,587.5 1627.3,586.7 1636.5,585.9 1645.7,585.1 1654.9,584.3 1664.1,583.5 1673.4,582.7 1682.6,581.8 1691.8,580.9 1701.0,580.0 1710.2,579.1 1719.4,578.2 1728.6,577.3 1737.9,576.4 1747.1,575.6 1756.3,574.7 1765.5,573.9 1774.7,573.1 1783.9,572.2 1793.1,571.2 1802.4,570.1 1811.6,569.0 1820.8,567.9 1830.0,566.7" fill="none" stroke="#2962ff" stroke-width="2.4"/>
<line x1="70" y1="821.8" x2="1830" y2="821.8" stroke="#f23645" stroke-width="1" opacity="0.6" stroke-dasharray="4,4"/>
<text x="1838" y="825.8" class="axis-txt">68</text>
<line x1="70" y1="843.4" x2="1830" y2="843.4" stroke="#ffa726" stroke-width="1" opacity="0.6" stroke-dasharray="2,2"/>
<text x="1838" y="847.4" class="axis-txt">63</text>
<line x1="70" y1="899.5" x2="1830" y2="899.5" stroke="#787b86" stroke-width="1" opacity="0.6" />
<text x="1838" y="903.5" class="axis-txt">50</text>
<line x1="70" y1="955.6" x2="1830" y2="955.6" stroke="#ffa726" stroke-width="1" opacity="0.6" stroke-dasharray="2,2"/>
<text x="1838" y="959.6" class="axis-txt">37</text>
<line x1="70" y1="977.2" x2="1830" y2="977.2" stroke="#089981" stroke-width="1" opacity="0.6" stroke-dasharray="4,4"/>
<text x="1838" y="981.2" class="axis-txt">32</text>
<polyline points="70.0,854.9 79.2,846.6 88.4,837.1 97.6,827.3 106.9,817.7 116.1,807.9 125.3,798.9 134.5,790.1 143.7,781.1 152.9,772.1 162.1,762.8 171.4,761.4 180.6,761.4 189.8,761.4 199.0,761.4 208.2,761.4 217.4,761.4 226.6,761.4 235.9,761.4 245.1,761.4 254.3,761.4 263.5,761.4 272.7,761.4 281.9,761.4 291.2,761.4 300.4,761.4 309.6,761.4 318.8,761.4 328.0,762.2 337.2,764.2 346.4,762.6 355.7,761.4 364.9,761.4 374.1,761.4 383.3,761.4 392.5,761.4 401.7,761.4 410.9,761.4 420.2,761.4 429.4,761.4 438.6,761.4 447.8,761.4 457.0,763.1 466.2,769.0 475.4,774.0 484.7,778.5 493.9,783.4 503.1,788.0 512.3,790.3 521.5,791.4 530.7,791.6 539.9,792.2 549.2,793.4 558.4,794.4 567.6,795.4 576.8,796.6 586.0,798.6 595.2,804.2 604.5,814.1 613.7,826.6 622.9,836.0 632.1,841.1 641.3,843.7 650.5,844.5 659.7,844.7 669.0,844.7 678.2,844.6 687.4,844.6 696.6,844.6 705.8,844.0 715.0,842.4 724.2,840.4 733.5,838.6 742.7,836.6 751.9,835.8 761.1,836.3 770.3,837.2 779.5,840.9 788.7,852.0 798.0,862.6 807.2,868.7 816.4,872.4 825.6,873.2 834.8,871.7 844.0,870.2 853.2,869.0 862.5,867.4 871.7,865.2 880.9,862.2 890.1,858.8 899.3,855.0 908.5,850.0 917.7,844.2 927.0,838.0 936.2,830.5 945.4,823.5 954.6,818.1 963.8,813.4 973.0,809.2 982.3,805.2 991.5,800.8 1000.7,796.2 1009.9,791.4 1019.1,786.3 1028.3,781.6 1037.5,779.0 1046.8,778.1 1056.0,779.5 1065.2,781.9 1074.4,783.2 1083.6,784.5 1092.8,785.7 1102.0,786.3 1111.3,787.6 1120.5,788.8 1129.7,789.6 1138.9,790.3 1148.1,791.1 1157.3,789.8 1166.5,788.6 1175.8,787.4 1185.0,783.7 1194.2,779.7 1203.4,776.5 1212.6,774.2 1221.8,772.9 1231.0,772.5 1240.3,773.0 1249.5,774.8 1258.7,776.8 1267.9,778.3 1277.1,779.5 1286.3,780.5 1295.5,781.4 1304.8,783.0 1314.0,785.1 1323.2,787.8 1332.4,791.8 1341.6,797.2 1350.8,802.2 1360.1,807.0 1369.3,811.5 1378.5,815.3 1387.7,818.9 1396.9,820.9 1406.1,823.3 1415.3,828.2 1424.6,831.3 1433.8,833.4 1443.0,835.9 1452.2,838.3 1461.4,838.4 1470.6,838.3 1479.8,838.4 1489.1,838.5 1498.3,840.0 1507.5,842.7 1516.7,845.9 1525.9,849.0 1535.1,851.7 1544.3,853.7 1553.6,854.5 1562.8,854.5 1572.0,853.9 1581.2,853.5 1590.4,854.1 1599.6,854.9 1608.8,856.2 1618.1,857.3 1627.3,858.2 1636.5,858.8 1645.7,859.2 1654.9,860.2 1664.1,861.4 1673.4,862.4 1682.6,861.8 1691.8,857.3 1701.0,851.1 1710.2,847.1 1719.4,844.3 1728.6,841.3 1737.9,839.5 1747.1,838.7 1756.3,838.5 1765.5,838.7 1774.7,838.6 1783.9,838.2 1793.1,835.0 1802.4,826.4 1811.6,818.7 1820.8,811.7 1830.0,803.6" fill="none" stroke="#2962ff" stroke-width="1.0"/>
<polyline points="70.0,958.7 79.2,961.4 88.4,965.2 97.6,969.3 106.9,973.0 116.1,976.2 125.3,978.7 134.5,981.0 143.7,983.3 152.9,985.3 162.1,986.8 171.4,986.7 180.6,985.8 189.8,983.6 199.0,979.8 208.2,975.3 217.4,971.5 226.6,968.0 235.9,964.6 245.1,961.4 254.3,957.8 263.5,953.9 272.7,949.2 281.9,943.0 291.2,935.5 300.4,925.6 309.6,913.5 318.8,900.4 328.0,886.4 337.2,883.2 346.4,886.1 355.7,889.9 364.9,896.1 374.1,903.6 383.3,911.9 392.5,918.8 401.7,924.4 410.9,929.4 420.2,933.4 429.4,937.0 438.6,940.8 447.8,943.1 457.0,944.3 466.2,943.0 475.4,940.5 484.7,938.5 493.9,936.9 503.1,935.8 512.3,936.3 521.5,938.9 530.7,943.6 539.9,948.1 549.2,951.1 558.4,953.3 567.6,955.0 576.8,956.8 586.0,958.5 595.2,958.4 604.5,955.2 613.7,949.8 622.9,945.9 632.1,944.3 641.3,943.9 650.5,944.3 659.7,945.5 669.0,946.8 678.2,947.6 687.4,947.9 696.6,948.0 705.8,949.7 715.0,954.0 724.2,959.3 733.5,965.1 742.7,971.2 751.9,975.3 761.1,977.1 770.3,977.7 779.5,977.2 788.7,971.7 798.0,965.8 807.2,962.4 816.4,960.2 825.6,959.8 834.8,960.3 844.0,959.9 853.2,959.2 862.5,959.3 871.7,959.8 880.9,960.9 890.1,962.0 899.3,963.2 908.5,964.9 917.7,967.1 927.0,969.3 936.2,972.3 945.4,975.0 954.6,976.6 963.8,977.4 973.0,977.2 982.3,976.2 991.5,975.5 1000.7,974.9 1009.9,973.9 1019.1,971.8 1028.3,967.7 1037.5,961.3 1046.8,953.0 1056.0,942.2 1065.2,931.8 1074.4,924.1 1083.6,918.5 1092.8,913.2 1102.0,907.3 1111.3,902.1 1120.5,898.1 1129.7,894.7 1138.9,891.9 1148.1,890.1 1157.3,892.2 1166.5,894.0 1175.8,896.1 1185.0,902.1 1194.2,909.4 1203.4,916.0 1212.6,921.5 1221.8,926.3 1231.0,930.3 1240.3,933.2 1249.5,934.8 1258.7,935.5 1267.9,936.2 1277.1,936.6 1286.3,936.9 1295.5,937.1 1304.8,937.4 1314.0,937.5 1323.2,937.6 1332.4,937.2 1341.6,935.5 1350.8,933.9 1360.1,932.1 1369.3,930.3 1378.5,929.0 1387.7,928.0 1396.9,928.1 1406.1,928.0 1415.3,926.2 1424.6,925.2 1433.8,924.8 1443.0,923.9 1452.2,923.0 1461.4,923.1 1470.6,921.2 1479.8,919.3 1489.1,917.7 1498.3,913.7 1507.5,908.1 1516.7,902.5 1525.9,897.3 1535.1,893.2 1544.3,890.2 1553.6,888.9 1562.8,888.9 1572.0,890.6 1581.2,892.5 1590.4,893.4 1599.6,894.5 1608.8,895.1 1618.1,895.5 1627.3,896.1 1636.5,896.5 1645.7,896.8 1654.9,896.6 1664.1,896.1 1673.4,895.5 1682.6,895.9 1691.8,899.1 1701.0,903.0 1710.2,904.8 1719.4,905.4 1728.6,906.4 1737.9,906.8 1747.1,906.7 1756.3,906.6 1765.5,906.9 1774.7,906.8 1783.9,906.7 1793.1,907.5 1802.4,911.9 1811.6,915.3 1820.8,917.8 1830.0,920.5" fill="none" stroke="#2962ff" stroke-width="1.0"/>
<polyline points="70.0,906.8 79.2,904.0 88.4,901.1 97.6,898.3 106.9,895.3 116.1,892.1 125.3,888.8 134.5,885.6 143.7,882.2 152.9,878.7 162.1,874.8 171.4,871.1 180.6,867.8 189.8,864.6 199.0,861.8 208.2,859.3 217.4,857.0 226.6,855.0 235.9,853.1 245.1,851.5 254.3,849.9 263.5,848.2 272.7,846.1 281.9,842.9 291.2,838.7 300.4,834.1 309.6,830.0 318.8,826.9 328.0,824.3 337.2,823.7 346.4,824.3 355.7,825.1 364.9,826.6 374.1,828.7 383.3,831.1 392.5,833.5 401.7,836.0 410.9,838.7 420.2,841.5 429.4,844.4 438.6,847.6 447.8,850.6 457.0,853.7 466.2,856.0 475.4,857.3 484.7,858.5 493.9,860.1 503.1,861.9 512.3,863.3 521.5,865.1 530.7,867.6 539.9,870.2 549.2,872.3 558.4,873.8 567.6,875.2 576.8,876.7 586.0,878.6 595.2,881.3 604.5,884.7 613.7,888.2 622.9,890.9 632.1,892.7 641.3,893.8 650.5,894.4 659.7,895.1 669.0,895.7 678.2,896.1 687.4,896.2 696.6,896.3 705.8,896.8 715.0,898.2 724.2,899.9 733.5,901.8 742.7,903.9 751.9,905.5 761.1,906.7 770.3,907.5 779.5,909.0 788.7,911.9 798.0,914.2 807.2,915.5 816.4,916.3 825.6,916.5 834.8,916.0 844.0,915.1 853.2,914.1 862.5,913.3 871.7,912.5 880.9,911.5 890.1,910.4 899.3,909.1 908.5,907.5 917.7,905.7 927.0,903.6 936.2,901.4 945.4,899.3 954.6,897.4 963.8,895.4 973.0,893.2 982.3,890.7 991.5,888.2 1000.7,885.5 1009.9,882.6 1019.1,879.1 1028.3,874.6 1037.5,870.1 1046.8,865.5 1056.0,860.9 1065.2,856.8 1074.4,853.6 1083.6,851.5 1092.8,849.4 1102.0,846.8 1111.3,844.8 1120.5,843.4 1129.7,842.2 1138.9,841.1 1148.1,840.6 1157.3,841.0 1166.5,841.3 1175.8,841.7 1185.0,842.9 1194.2,844.6 1203.4,846.2 1212.6,847.8 1221.8,849.6 1231.0,851.4 1240.3,853.1 1249.5,854.8 1258.7,856.2 1267.9,857.2 1277.1,858.1 1286.3,858.7 1295.5,859.3 1304.8,860.2 1314.0,861.3 1323.2,862.7 1332.4,864.5 1341.6,866.4 1350.8,868.0 1360.1,869.5 1369.3,870.9 1378.5,872.2 1387.7,873.5 1396.9,874.5 1406.1,875.7 1415.3,877.2 1424.6,878.3 1433.8,879.1 1443.0,879.9 1452.2,880.7 1461.4,880.7 1470.6,879.8 1479.8,878.9 1489.1,878.1 1498.3,876.8 1507.5,875.4 1516.7,874.2 1525.9,873.2 1535.1,872.4 1544.3,871.9 1553.6,871.7 1562.8,871.7 1572.0,872.2 1581.2,873.0 1590.4,873.7 1599.6,874.7 1608.8,875.6 1618.1,876.4 1627.3,877.1 1636.5,877.7 1645.7,878.0 1654.9,878.4 1664.1,878.8 1673.4,879.0 1682.6,878.9 1691.8,878.2 1701.0,877.1 1710.2,875.9 1719.4,874.9 1728.6,873.9 1737.9,873.2 1747.1,872.7 1756.3,872.5 1765.5,872.8 1774.7,872.7 1783.9,872.4 1793.1,871.3 1802.4,869.1 1811.6,867.0 1820.8,864.7 1830.0,862.0" fill="none" stroke="#ffd600" stroke-width="1.5"/>
<polyline points="70.0,873.6 79.2,857.3 88.4,845.6 97.6,837.2 106.9,827.5 116.1,819.6 125.3,813.5 134.5,807.3 143.7,800.8 152.9,795.4 162.1,790.0 171.4,786.8 180.6,786.1 189.8,786.6 199.0,791.6 208.2,799.4 217.4,808.0 226.6,817.8 235.9,826.5 245.1,835.2 254.3,843.3 263.5,847.3 272.7,847.7 281.9,843.9 291.2,836.6 300.4,828.1 309.6,821.6 318.8,818.5 328.0,818.9 337.2,824.2 346.4,835.2 355.7,850.8 364.9,867.9 374.1,882.6 383.3,894.2 392.5,902.1 401.7,905.4 410.9,907.2 420.2,907.0 429.4,906.0 438.6,905.2 447.8,901.9 457.0,898.9 466.2,892.5 475.4,879.9 484.7,869.5 493.9,862.4 503.1,856.0 512.3,853.2 521.5,854.9 530.7,864.5 539.9,880.4 549.2,893.4 558.4,901.8 567.6,908.1 576.8,912.3 586.0,913.0 595.2,910.2 604.5,907.0 613.7,905.6 622.9,904.7 632.1,903.5 641.3,902.2 650.5,901.2 659.7,902.3 669.0,904.5 678.2,906.2 687.4,908.3 696.6,911.6 705.8,916.8 715.0,923.9 724.2,930.4 733.5,936.5 742.7,944.1 751.9,950.3 761.1,952.7 770.3,950.5 779.5,944.9 788.7,938.2 798.0,929.6 807.2,918.8 816.4,908.5 825.6,900.7 834.8,896.2 844.0,893.7 853.2,891.3 862.5,889.2 871.7,887.0 880.9,884.7 890.1,882.6 899.3,879.4 908.5,873.3 917.7,866.0 927.0,858.6 936.2,850.9 945.4,844.0 954.6,838.9 963.8,834.9 973.0,832.9 982.3,831.9 991.5,831.1 1000.7,831.1 1009.9,830.8 1019.1,827.9 1028.3,823.0 1037.5,818.4 1046.8,814.3 1056.0,811.5 1065.2,810.9 1074.4,811.8 1083.6,816.6 1092.8,822.5 1102.0,824.9 1111.3,829.0 1120.5,834.1 1129.7,837.2 1138.9,839.7 1148.1,843.5 1157.3,852.7 1166.5,864.7 1175.8,874.1 1185.0,884.5 1194.2,896.4 1203.4,907.7 1212.6,914.4 1221.8,915.2 1231.0,915.0 1240.3,913.8 1249.5,908.3 1258.7,900.5 1267.9,892.4 1277.1,884.6 1286.3,877.1 1295.5,870.2 1304.8,865.4 1314.0,862.8 1323.2,862.4 1332.4,863.0 1341.6,863.3 1350.8,863.7 1360.1,864.1 1369.3,863.6 1378.5,863.7 1387.7,864.1 1396.9,865.2 1406.1,867.6 1415.3,869.6 1424.6,871.5 1433.8,873.9 1443.0,874.8 1452.2,874.6 1461.4,873.8 1470.6,872.7 1479.8,872.8 1489.1,873.3 1498.3,873.5 1507.5,874.5 1516.7,876.1 1525.9,877.7 1535.1,879.5 1544.3,881.2 1553.6,882.5 1562.8,883.3 1572.0,885.2 1581.2,886.9 1590.4,887.2 1599.6,887.9 1608.8,888.2 1618.1,888.4 1627.3,889.4 1636.5,888.7 1645.7,887.1 1654.9,886.1 1664.1,883.7 1673.4,880.3 1682.6,875.7 1691.8,868.9 1701.0,861.3 1710.2,855.3 1719.4,850.4 1728.6,845.8 1737.9,843.2 1747.1,843.8 1756.3,847.4 1765.5,853.7 1774.7,858.3 1783.9,860.8 1793.1,860.1 1802.4,853.8 1811.6,845.7 1820.8,836.5 1830.0,824.0" fill="none" stroke="#f23645" stroke-width="1.4"/>
<polyline points="70.0,835.1 79.2,830.8 88.4,818.8 97.6,810.2 106.9,804.9 116.1,797.7 125.3,796.8 134.5,792.2 143.7,785.5 152.9,780.3 162.1,772.5 171.4,782.5 180.6,792.9 189.8,800.8 199.0,827.0 208.2,840.2 217.4,840.6 226.6,840.8 235.9,843.6 245.1,853.5 254.3,857.6 263.5,854.5 272.7,843.5 281.9,813.5 291.2,789.7 300.4,784.4 309.6,807.8 318.8,836.4 328.0,856.9 337.2,880.8 346.4,890.2 355.7,899.0 364.9,904.4 374.1,910.2 383.3,918.2 392.5,911.7 401.7,903.9 410.9,903.1 420.2,897.1 429.4,898.1 438.6,904.6 447.8,894.8 457.0,890.6 466.2,858.9 475.4,815.3 484.7,824.2 493.9,848.3 503.1,860.0 512.3,875.1 521.5,902.6 530.7,925.6 539.9,927.2 549.2,914.9 558.4,907.2 567.6,904.0 576.8,904.4 586.0,907.7 595.2,906.2 604.5,904.9 613.7,905.0 622.9,900.7 632.1,895.7 641.3,895.0 650.5,900.8 659.7,914.0 669.0,920.7 678.2,916.7 687.4,915.3 696.6,918.7 705.8,931.6 715.0,950.4 724.2,959.0 733.5,964.0 742.7,969.9 751.9,958.4 761.1,935.4 770.3,916.6 779.5,911.3 788.7,911.8 798.0,903.6 807.2,894.2 816.4,886.2 825.6,881.3 834.8,885.3 844.0,893.8 853.2,894.9 862.5,888.4 871.7,879.0 880.9,870.5 890.1,866.3 899.3,862.7 908.5,851.7 917.7,843.4 927.0,836.8 936.2,824.8 945.4,822.3 954.6,830.6 963.8,834.8 973.0,837.7 982.3,836.6 991.5,830.6 1000.7,825.1 1009.9,820.3 1019.1,810.4 1028.3,800.1 1037.5,805.5 1046.8,807.8 1056.0,811.4 1065.2,821.1 1074.4,826.2 1083.6,843.9 1092.8,841.5 1102.0,822.5 1111.3,836.5 1120.5,847.3 1129.7,842.3 1138.9,844.1 1148.1,870.6 1157.3,905.9 1166.5,906.3 1175.8,902.4 1185.0,919.9 1194.2,925.7 1203.4,922.9 1212.6,917.9 1221.8,911.3 1231.0,904.8 1240.3,894.4 1249.5,881.4 1258.7,870.6 1267.9,866.6 1277.1,862.7 1286.3,858.8 1295.5,856.9 1304.8,860.7 1314.0,863.6 1323.2,867.8 1332.4,870.5 1341.6,865.1 1350.8,861.7 1360.1,859.3 1369.3,857.6 1378.5,863.8 1387.7,870.9 1396.9,878.2 1406.1,881.5 1415.3,875.6 1424.6,872.9 1433.8,874.3 1443.0,870.4 1452.2,869.5 1461.4,872.5 1470.6,873.9 1479.8,876.1 1489.1,876.2 1498.3,875.9 1507.5,877.1 1516.7,881.0 1525.9,884.1 1535.1,886.5 1544.3,887.7 1553.6,885.6 1562.8,881.1 1572.0,890.4 1581.2,892.9 1590.4,886.4 1599.6,891.3 1608.8,889.8 1618.1,886.5 1627.3,888.1 1636.5,885.9 1645.7,881.9 1654.9,879.4 1664.1,873.9 1673.4,866.5 1682.6,854.4 1691.8,840.3 1701.0,832.5 1710.2,839.7 1719.4,845.3 1728.6,841.7 1737.9,848.5 1747.1,858.3 1756.3,865.8 1765.5,876.9 1774.7,871.5 1783.9,863.2 1793.1,836.8 1802.4,804.1 1811.6,802.0 1820.8,800.8 1830.0,789.6" fill="none" stroke="#00e676" stroke-width="1.8"/>
<line x1="70.0" y1="1029" x2="70.0" y2="1035" stroke="#787b86"/>
<text x="70.0" y="1049" class="axis-txt" text-anchor="middle">09/18 03:15</text>
<line x1="245.1" y1="1029" x2="245.1" y2="1035" stroke="#787b86"/>
<text x="245.1" y="1049" class="axis-txt" text-anchor="middle">09/18 08:00</text>
<line x1="420.2" y1="1029" x2="420.2" y2="1035" stroke="#787b86"/>
<text x="420.2" y="1049" class="axis-txt" text-anchor="middle">09/18 12:45</text>
<line x1="595.2" y1="1029" x2="595.2" y2="1035" stroke="#787b86"/>
<text x="595.2" y="1049" class="axis-txt" text-anchor="middle">09/18 17:30</text>
<line x1="770.3" y1="1029" x2="770.3" y2="1035" stroke="#787b86"/>
<text x="770.3" y="1049" class="axis-txt" text-anchor="middle">09/18 22:15</text>
<line x1="945.4" y1="1029" x2="945.4" y2="1035" stroke="#787b86"/>
<text x="945.4" y="1049" class="axis-txt" text-anchor="middle">09/19 03:00</text>
<line x1="1120.5" y1="1029" x2="1120.5" y2="1035" stroke="#787b86"/>
<text x="1120.5" y="1049" class="axis-txt" text-anchor="middle">09/19 07:45</text>
<line x1="1295.5" y1="1029" x2="1295.5" y2="1035" stroke="#787b86"/>
<text x="1295.5" y="1049" class="axis-txt" text-anchor="middle">09/19 12:30</text>
<line x1="1470.6" y1="1029" x2="1470.6" y2="1035" stroke="#787b86"/>
<text x="1470.6" y="1049" class="axis-txt" text-anchor="middle">09/19 17:15</text>
<line x1="1645.7" y1="1029" x2="1645.7" y2="1035" stroke="#787b86"/>
<text x="1645.7" y="1049" class="axis-txt" text-anchor="middle">09/19 22:00</text>
<line x1="1820.8" y1="1029" x2="1820.8" y2="1035" stroke="#787b86"/>
<text x="1820.8" y="1049" class="axis-txt" text-anchor="middle">09/20 02:45</text>
<rect x="85" y="55" width="480" height="135" fill="#1e222d" fill-opacity="0.92" stroke="#363a45" rx="6"/>
<text x="98" y="78" class="hud-txt">SYMBOL: GBPUSD (M15)  |  NY TIME: 2024-09-20 03:00:00</text>
<text x="98" y="96" class="hud-txt">SESSION: LONDON_OPEN  |  DAY: Friday</text>
<text x="98" y="114" class="hud-txt">ASIAN RANGE: 29.9 pips [VALID_ACCUMULATION]</text>
<text x="98" y="132" class="hud-txt">ADR (14d): 87.2 pips  |  USED TODAY: 78.5%</text>
<text x="98" y="150" class="hud-txt">5/13 EMA CROSS: NONE</text>
<text x="98" y="168" class="hud-txt">TDI SHARK FIN: NONE</text>
<text x="85" y="28" fill="#d1d4dc" font-size="16" font-weight="600">MMM Benchmark CASE_15 — GBPUSD M15</text>
</svg>