<svg xmlns="http://www.w3.org/2000/svg" viewBox="0 0 1920 1080" width="1920" height="1080">
<defs>
<style>
text { font-family: -apple-system, BlinkMacSystemFont, "Segoe UI", Roboto, monospace; }
.grid { stroke: #1e222d; stroke-width: 1; }
.axis-txt { fill: #787b86; font-size: 11px; }
.hud-txt { fill: #d1d4dc; font-size: 13px; font-family: monospace; font-weight: 500; }
</style>
</defs>
<rect width="1920" height="1080" fill="#131722"/>
<rect x="70" y="40" width="1760" height="700" fill="#131722" stroke="#2a2e39" stroke-width="1"/>
<rect x="70" y="770" width="1760" height="259" fill="#131722" stroke="#2a2e39" stroke-width="1"/>
<line x1="70" y1="127.5" x2="1830" y2="127.5" class="grid"/>
<text x="1838" y="131.5" class="axis-txt">1.66305</text>
<line x1="70" y1="215.0" x2="1830" y2="215.0" class="grid"/>
<text x="1838" y="219.0" class="axis-txt">1.66157</text>
<line x1="70" y1="302.5" x2="1830" y2="302.5" class="grid"/>
<text x="1838" y="306.5" class="axis-txt">1.66010</text>
<line x1="70" y1="390.0" x2="1830" y2="390.0" class="grid"/>
<text x="1838" y="394.0" class="axis-txt">1.65862</text>
<line x1="70" y1="477.5" x2="1830" y2="477.5" class="grid"/>
<text x="1838" y="481.5" class="axis-txt">1.65715</text>
<line x1="70" y1="565.0" x2="1830" y2="565.0" class="grid"/>
<text x="1838" y="569.0" class="axis-txt">1.65568</text>
<line x1="70" y1="652.5" x2="1830" y2="652.5" class="grid"/>
<text x="1838" y="656.5" class="axis-txt">1.65420</text>
<rect x="678.2" y="556.4" width="175.1" height="135.3" fill="#2a2e39" fill-opacity="0.45" stroke="#787b86" stroke-dasharray="4,4"/>
<rect x="1562.8" y="289.4" width="175.1" height="173.9" fill="#2a2e39" fill-opacity="0.45" stroke="#787b86" stroke-dasharray="4,4"/>
<line x1="70" y1="284.6" x2="1830" y2="284.6" stroke="#29b6f6" stroke-width="1.5" opacity="0.85"/>
<line x1="70" y1="691.7" x2="1830" y2="691.7" stroke="#29b6f6" stroke-width="1.5" opacity="0.85"/>
<text x="1650" y="280.6" fill="#29b6f6" font-size="10">Blue Tracer (High)</text>
<line x1="70" y1="141.0" x2="1830" y2="141.0" stroke="#ab47bc" stroke-width="1.2" stroke-dasharray="2,3" opacity="0.75"/>
<line x1="70" y1="-7.3" x2="1830" y2="-7.3" stroke="#ab47bc" stroke-width="1.2" stroke-dasharray="2,3" opacity="0.75"/>
<line x1="70" y1="760.0" x2="1830" y2="760.0" stroke="#ab47bc" stroke-width="1.2" stroke-dasharray="2,3" opacity="0.75"/>
<line x1="70" y1="611.6" x2="1830" y2="611.6" stroke="#ab47bc" stroke-width="1.2" stroke-dasharray="2,3" opacity="0.75"/>
<line x1="70.0" y1="405.1" x2="70.0" y2="432.4" stroke="#f23645" stroke-width="1.2"/>
<rect x="67.0" y="424.1" width="6.0" height="2.4" fill="#f23645" stroke="#f23645"/>
<line x1="79.2" y1="407.5" x2="79.2" y2="438.9" stroke="#f23645" stroke-width="1.2"/>
<rect x="76.2" y="425.9" width="6.0" height="13.1" fill="#f23645" stroke="#f23645"/>
<line x1="88.4" y1="431.8" x2="88.4" y2="498.3" stroke="#f23645" stroke-width="1.2"/>
<rect x="85.5" y="438.3" width="6.0" height="39.8" fill="#f23645" stroke="#f23645"/>
<line x1="97.6" y1="444.9" x2="97.6" y2="482.8" stroke="#089981" stroke-width="1.2"/>
<rect x="94.7" y="473.3" width="6.0" height="5.3" fill="#089981" stroke="#089981"/>
<line x1="106.9" y1="446.6" x2="106.9" y2="494.1" stroke="#089981" stroke-width="1.2"/>
<rect x="103.9" y="466.8" width="6.0" height="7.1" fill="#089981" stroke="#089981"/>
<line x1="116.1" y1="455.0" x2="116.1" y2="477.5" stroke="#089981" stroke-width="1.2"/>
<rect x="113.1" y="457.9" width="6.0" height="8.3" fill="#089981" stroke="#089981"/>
<line x1="125.3" y1="458.5" x2="125.3" y2="482.8" stroke="#f23645" stroke-width="1.2"/>
<rect x="122.3" y="458.5" width="6.0" height="20.2" fill="#f23645" stroke="#f23645"/>
<line x1="134.5" y1="408.7" x2="134.5" y2="484.0" stroke="#089981" stroke-width="1.2"/>
<rect x="131.5" y="413.4" width="6.0" height="65.9" fill="#089981" stroke="#089981"/>
<line x1="143.7" y1="411.6" x2="143.7" y2="448.4" stroke="#f23645" stroke-width="1.2"/>
<rect x="140.7" y="414.0" width="6.0" height="19.0" fill="#f23645" stroke="#f23645"/>
<line x1="152.9" y1="421.7" x2="152.9" y2="439.5" stroke="#f23645" stroke-width="1.2"/>
<rect x="150.0" y="432.4" width="6.0" height="7.1" fill="#f23645" stroke="#f23645"/>
<line x1="162.1" y1="415.8" x2="162.1" y2="457.3" stroke="#f23645" stroke-width="1.2"/>
<rect x="159.2" y="438.9" width="6.0" height="14.8" fill="#f23645" stroke="#f23645"/>
<line x1="171.4" y1="441.9" x2="171.4" y2="461.5" stroke="#089981" stroke-width="1.2"/>
<rect x="168.4" y="444.3" width="6.0" height="8.9" fill="#089981" stroke="#089981"/>
<line x1="180.6" y1="444.9" x2="180.6" y2="474.5" stroke="#f23645" stroke-width="1.2"/>
<rect x="177.6" y="444.9" width="6.0" height="28.5" fill="#f23645" stroke="#f23645"/>
<line x1="189.8" y1="449.6" x2="189.8" y2="482.2" stroke="#f23645" stroke-width="1.2"/>
<rect x="186.8" y="473.9" width="6.0" height="8.3" fill="#f23645" stroke="#f23645"/>
<line x1="199.0" y1="460.3" x2="199.0" y2="487.6" stroke="#089981" stroke-width="1.2"/>
<rect x="196.0" y="475.7" width="6.0" height="7.1" fill="#089981" stroke="#089981"/>
<line x1="208.2" y1="457.3" x2="208.2" y2="484.0" stroke="#f23645" stroke-width="1.2"/>
<rect x="205.2" y="475.1" width="6.0" height="5.9" fill="#f23645" stroke="#f23645"/>
<line x1="217.4" y1="462.7" x2="217.4" y2="484.0" stroke="#089981" stroke-width="1.2"/>
<rect x="214.5" y="474.5" width="6.0" height="5.9" fill="#089981" stroke="#089981"/>
<line x1="226.6" y1="457.3" x2="226.6" y2="492.3" stroke="#f23645" stroke-width="1.2"/>
<rect x="223.7" y="473.9" width="6.0" height="13.6" fill="#f23645" stroke="#f23645"/>
<line x1="235.9" y1="478.7" x2="235.9" y2="493.5" stroke="#089981" stroke-width="1.2"/>
<rect x="232.9" y="481.7" width="6.0" height="4.2" fill="#089981" stroke="#089981"/>
<line x1="245.1" y1="444.9" x2="245.1" y2="488.8" stroke="#089981" stroke-width="1.2"/>
<rect x="242.1" y="466.2" width="6.0" height="16.6" fill="#089981" stroke="#089981"/>
<line x1="254.3" y1="416.4" x2="254.3" y2="497.1" stroke="#089981" stroke-width="1.2"/>
<rect x="251.3" y="438.9" width="6.0" height="27.9" fill="#089981" stroke="#089981"/>
<line x1="263.5" y1="390.9" x2="263.5" y2="444.3" stroke="#089981" stroke-width="1.2"/>
<rect x="260.5" y="395.6" width="6.0" height="42.7" fill="#089981" stroke="#089981"/>
<line x1="272.7" y1="374.2" x2="272.7" y2="415.8" stroke="#089981" stroke-width="1.2"/>
<rect x="269.7" y="387.9" width="6.0" height="7.1" fill="#089981" stroke="#089981"/>
<line x1="281.9" y1="355.3" x2="281.9" y2="403.9" stroke="#f23645" stroke-width="1.2"/>
<rect x="279.0" y="387.3" width="6.0" height="5.3" fill="#f23645" stroke="#f23645"/>
<line x1="291.2" y1="384.3" x2="291.2" y2="409.3" stroke="#089981" stroke-width="1.2"/>
<rect x="288.2" y="390.3" width="6.0" height="1.8" fill="#089981" stroke="#089981"/>
<line x1="300.4" y1="380.2" x2="300.4" y2="411.0" stroke="#f23645" stroke-width="1.2"/>
<rect x="297.4" y="390.9" width="6.0" height="5.3" fill="#f23645" stroke="#f23645"/>
<line x1="309.6" y1="396.8" x2="309.6" y2="446.1" stroke="#f23645" stroke-width="1.2"/>
<rect x="306.6" y="396.8" width="6.0" height="47.5" fill="#f23645" stroke="#f23645"/>
<line x1="318.8" y1="417.6" x2="318.8" y2="451.4" stroke="#089981" stroke-width="1.2"/>
<rect x="315.8" y="425.9" width="6.0" height="17.8" fill="#089981" stroke="#089981"/>
<line x1="328.0" y1="402.1" x2="328.0" y2="428.8" stroke="#089981" stroke-width="1.2"/>
<rect x="325.0" y="424.1" width="6.0" height="1.5" fill="#089981" stroke="#089981"/>
<line x1="337.2" y1="408.7" x2="337.2" y2="454.4" stroke="#f23645" stroke-width="1.2"/>
<rect x="334.2" y="423.5" width="6.0" height="29.7" fill="#f23645" stroke="#f23645"/>
<line x1="346.4" y1="439.5" x2="346.4" y2="472.2" stroke="#f23645" stroke-width="1.2"/>
<rect x="343.5" y="452.6" width="6.0" height="14.8" fill="#f23645" stroke="#f23645"/>
<line x1="355.7" y1="466.2" x2="355.7" y2="486.4" stroke="#f23645" stroke-width="1.2"/>
<rect x="352.7" y="468.0" width="6.0" height="16.0" fill="#f23645" stroke="#f23645"/>
<line x1="364.9" y1="472.2" x2="364.9" y2="497.7" stroke="#f23645" stroke-width="1.2"/>
<rect x="361.9" y="484.6" width="6.0" height="2.4" fill="#f23645" stroke="#f23645"/>
<line x1="374.1" y1="487.6" x2="374.1" y2="519.6" stroke="#f23645" stroke-width="1.2"/>
<rect x="371.1" y="488.2" width="6.0" height="11.9" fill="#f23645" stroke="#f23645"/>
<line x1="383.3" y1="501.2" x2="383.3" y2="516.1" stroke="#f23645" stroke-width="1.2"/>
<rect x="380.3" y="501.2" width="6.0" height="3.0" fill="#f23645" stroke="#f23645"/>
<line x1="392.5" y1="483.4" x2="392.5" y2="515.5" stroke="#089981" stroke-width="1.2"/>
<rect x="389.5" y="491.7" width="6.0" height="13.1" fill="#089981" stroke="#089981"/>
<line x1="401.7" y1="485.2" x2="401.7" y2="517.9" stroke="#f23645" stroke-width="1.2"/>
<rect x="398.7" y="490.0" width="6.0" height="22.5" fill="#f23645" stroke="#f23645"/>
<line x1="410.9" y1="510.1" x2="410.9" y2="539.8" stroke="#f23645" stroke-width="1.2"/>
<rect x="408.0" y="513.1" width="6.0" height="23.7" fill="#f23645" stroke="#f23645"/>
<line x1="420.2" y1="522.6" x2="420.2" y2="593.8" stroke="#f23645" stroke-width="1.2"/>
<rect x="417.2" y="536.3" width="6.0" height="53.4" fill="#f23645" stroke="#f23645"/>
<line x1="429.4" y1="562.4" x2="429.4" y2="631.8" stroke="#f23645" stroke-width="1.2"/>
<rect x="426.4" y="590.3" width="6.0" height="11.3" fill="#f23645" stroke="#f23645"/>
<line x1="438.6" y1="597.4" x2="438.6" y2="637.1" stroke="#f23645" stroke-width="1.2"/>
<rect x="435.6" y="599.7" width="6.0" height="37.4" fill="#f23645" stroke="#f23645"/>
<line x1="447.8" y1="612.2" x2="447.8" y2="641.9" stroke="#089981" stroke-width="1.2"/>
<rect x="444.8" y="630.6" width="6.0" height="7.7" fill="#089981" stroke="#089981"/>
<line x1="457.0" y1="615.8" x2="457.0" y2="641.9" stroke="#f23645" stroke-width="1.2"/>
<rect x="454.0" y="631.2" width="6.0" height="4.2" fill="#f23645" stroke="#f23645"/>
<line x1="466.2" y1="623.5" x2="466.2" y2="652.6" stroke="#f23645" stroke-width="1.2"/>
<rect x="463.3" y="638.9" width="6.0" height="4.7" fill="#f23645" stroke="#f23645"/>
<line x1="475.4" y1="615.2" x2="475.4" y2="647.8" stroke="#089981" stroke-width="1.2"/>
<rect x="472.5" y="615.2" width="6.0" height="29.1" fill="#089981" stroke="#089981"/>
<line x1="484.7" y1="614.6" x2="484.7" y2="628.2" stroke="#f23645" stroke-width="1.2"/>
<rect x="481.7" y="615.8" width="6.0" height="11.9" fill="#f23645" stroke="#f23645"/>
<line x1="493.9" y1="620.5" x2="493.9" y2="640.7" stroke="#089981" stroke-width="1.2"/>
<rect x="490.9" y="622.9" width="6.0" height="5.3" fill="#089981" stroke="#089981"/>
<line x1="503.1" y1="614.0" x2="503.1" y2="627.6" stroke="#089981" stroke-width="1.2"/>
<rect x="500.1" y="619.3" width="6.0" height="3.0" fill="#089981" stroke="#089981"/>
<line x1="512.3" y1="612.8" x2="512.3" y2="621.7" stroke="#f23645" stroke-width="1.2"/>
<rect x="509.3" y="619.9" width="6.0" height="1.5" fill="#f23645" stroke="#f23645"/>
<line x1="521.5" y1="618.1" x2="521.5" y2="644.3" stroke="#f23645" stroke-width="1.2"/>
<rect x="518.5" y="621.7" width="6.0" height="19.0" fill="#f23645" stroke="#f23645"/>
<line x1="530.7" y1="637.1" x2="530.7" y2="647.2" stroke="#089981" stroke-width="1.2"/>
<rect x="527.8" y="638.9" width="6.0" height="1.5" fill="#089981" stroke="#089981"/>
<line x1="539.9" y1="635.9" x2="539.9" y2="646.0" stroke="#f23645" stroke-width="1.2"/>
<rect x="537.0" y="639.5" width="6.0" height="6.5" fill="#f23645" stroke="#f23645"/>
<line x1="549.2" y1="644.8" x2="549.2" y2="653.2" stroke="#f23645" stroke-width="1.2"/>
<rect x="546.2" y="645.4" width="6.0" height="5.9" fill="#f23645" stroke="#f23645"/>
<line x1="558.4" y1="652.0" x2="558.4" y2="676.3" stroke="#f23645" stroke-width="1.2"/>
<rect x="555.4" y="652.0" width="6.0" height="23.1" fill="#f23645" stroke="#f23645"/>
<line x1="567.6" y1="650.2" x2="567.6" y2="675.1" stroke="#089981" stroke-width="1.2"/>
<rect x="564.6" y="669.8" width="6.0" height="4.2" fill="#089981" stroke="#089981"/>
<line x1="576.8" y1="659.7" x2="576.8" y2="672.1" stroke="#089981" stroke-width="1.2"/>
<rect x="573.8" y="671.5" width="6.0" height="1.5" fill="#089981" stroke="#089981"/>
<line x1="586.0" y1="660.3" x2="586.0" y2="673.9" stroke="#f23645" stroke-width="1.2"/>
<rect x="583.0" y="672.1" width="6.0" height="1.5" fill="#f23645" stroke="#f23645"/>
<line x1="595.2" y1="659.1" x2="595.2" y2="673.9" stroke="#089981" stroke-width="1.2"/>
<rect x="592.3" y="663.2" width="6.0" height="9.5" fill="#089981" stroke="#089981"/>
<line x1="604.5" y1="653.2" x2="604.5" y2="671.5" stroke="#f23645" stroke-width="1.2"/>
<rect x="601.5" y="664.4" width="6.0" height="5.3" fill="#f23645" stroke="#f23645"/>
<line x1="613.7" y1="653.7" x2="613.7" y2="671.5" stroke="#089981" stroke-width="1.2"/>
<rect x="610.7" y="653.7" width="6.0" height="16.6" fill="#089981" stroke="#089981"/>
<line x1="622.9" y1="641.3" x2="622.9" y2="659.1" stroke="#089981" stroke-width="1.2"/>
<rect x="619.9" y="643.1" width="6.0" height="11.9" fill="#089981" stroke="#089981"/>
<line x1="632.1" y1="634.2" x2="632.1" y2="650.2" stroke="#f23645" stroke-width="1.2"/>
<rect x="629.1" y="642.5" width="6.0" height="1.5" fill="#f23645" stroke="#f23645"/>
<line x1="641.3" y1="623.5" x2="641.3" y2="646.0" stroke="#f23645" stroke-width="1.2"/>
<rect x="638.3" y="640.7" width="6.0" height="1.8" fill="#f23645" stroke="#f23645"/>
<line x1="650.5" y1="638.9" x2="650.5" y2="652.0" stroke="#f23645" stroke-width="1.2"/>
<rect x="647.5" y="643.1" width="6.0" height="6.5" fill="#f23645" stroke="#f23645"/>
<line x1="659.7" y1="638.3" x2="659.7" y2="650.8" stroke="#089981" stroke-width="1.2"/>
<rect x="656.8" y="640.7" width="6.0" height="8.3" fill="#089981" stroke="#089981"/>
<line x1="669.0" y1="631.8" x2="669.0" y2="641.3" stroke="#089981" stroke-width="1.2"/>
<rect x="666.0" y="634.8" width="6.0" height="5.3" fill="#089981" stroke="#089981"/>
<line x1="678.2" y1="633.0" x2="678.2" y2="650.8" stroke="#f23645" stroke-width="1.2"/>
<rect x="675.2" y="634.2" width="6.0" height="7.1" fill="#f23645" stroke="#f23645"/>
<line x1="687.4" y1="635.3" x2="687.4" y2="663.2" stroke="#f23645" stroke-width="1.2"/>
<rect x="684.4" y="642.5" width="6.0" height="17.8" fill="#f23645" stroke="#f23645"/>
<line x1="696.6" y1="645.4" x2="696.6" y2="691.7" stroke="#f23645" stroke-width="1.2"/>
<rect x="693.6" y="659.7" width="6.0" height="2.4" fill="#f23645" stroke="#f23645"/>
<line x1="705.8" y1="647.8" x2="705.8" y2="680.4" stroke="#089981" stroke-width="1.2"/>
<rect x="702.8" y="647.8" width="6.0" height="12.5" fill="#089981" stroke="#089981"/>
<line x1="715.0" y1="625.3" x2="715.0" y2="650.2" stroke="#089981" stroke-width="1.2"/>
<rect x="712.0" y="629.4" width="6.0" height="17.2" fill="#089981" stroke="#089981"/>
<line x1="724.2" y1="627.0" x2="724.2" y2="648.4" stroke="#f23645" stroke-width="1.2"/>
<rect x="721.3" y="627.6" width="6.0" height="15.4" fill="#f23645" stroke="#f23645"/>
<line x1="733.5" y1="617.5" x2="733.5" y2="649.0" stroke="#089981" stroke-width="1.2"/>
<rect x="730.5" y="624.1" width="6.0" height="18.4" fill="#089981" stroke="#089981"/>
<line x1="742.7" y1="621.7" x2="742.7" y2="638.9" stroke="#f23645" stroke-width="1.2"/>
<rect x="739.7" y="624.7" width="6.0" height="5.3" fill="#f23645" stroke="#f23645"/>
<line x1="751.9" y1="619.3" x2="751.9" y2="638.9" stroke="#089981" stroke-width="1.2"/>
<rect x="748.9" y="624.7" width="6.0" height="6.5" fill="#089981" stroke="#089981"/>
<line x1="761.1" y1="623.5" x2="761.1" y2="629.4" stroke="#f23645" stroke-width="1.2"/>
<rect x="758.1" y="625.3" width="6.0" height="1.5" fill="#f23645" stroke="#f23645"/>
<line x1="770.3" y1="615.2" x2="770.3" y2="628.2" stroke="#089981" stroke-width="1.2"/>
<rect x="767.3" y="617.0" width="6.0" height="8.9" fill="#089981" stroke="#089981"/>
<line x1="779.5" y1="596.8" x2="779.5" y2="621.1" stroke="#089981" stroke-width="1.2"/>
<rect x="776.5" y="598.6" width="6.0" height="17.8" fill="#089981" stroke="#089981"/>
<line x1="788.7" y1="581.9" x2="788.7" y2="608.1" stroke="#089981" stroke-width="1.2"/>
<rect x="785.8" y="595.6" width="6.0" height="4.7" fill="#089981" stroke="#089981"/>
<line x1="798.0" y1="556.4" x2="798.0" y2="600.3" stroke="#089981" stroke-width="1.2"/>
<rect x="795.0" y="567.7" width="6.0" height="27.3" fill="#089981" stroke="#089981"/>
<line x1="807.2" y1="564.7" x2="807.2" y2="588.5" stroke="#f23645" stroke-width="1.2"/>
<rect x="804.2" y="568.3" width="6.0" height="10.7" fill="#f23645" stroke="#f23645"/>
<line x1="816.4" y1="576.0" x2="816.4" y2="592.6" stroke="#f23645" stroke-width="1.2"/>
<rect x="813.4" y="580.2" width="6.0" height="7.1" fill="#f23645" stroke="#f23645"/>
<line x1="825.6" y1="583.1" x2="825.6" y2="600.9" stroke="#f23645" stroke-width="1.2"/>
<rect x="822.6" y="587.9" width="6.0" height="8.3" fill="#f23645" stroke="#f23645"/>
<line x1="834.8" y1="588.5" x2="834.8" y2="609.2" stroke="#089981" stroke-width="1.2"/>
<rect x="831.8" y="591.4" width="6.0" height="5.3" fill="#089981" stroke="#089981"/>
<line x1="844.0" y1="584.3" x2="844.0" y2="602.7" stroke="#f23645" stroke-width="1.2"/>
<rect x="841.1" y="589.7" width="6.0" height="8.3" fill="#f23645" stroke="#f23645"/>
<line x1="853.2" y1="595.0" x2="853.2" y2="613.4" stroke="#f23645" stroke-width="1.2"/>
<rect x="850.3" y="598.6" width="6.0" height="7.7" fill="#f23645" stroke="#f23645"/>
<line x1="862.5" y1="603.9" x2="862.5" y2="627.0" stroke="#f23645" stroke-width="1.2"/>
<rect x="859.5" y="606.9" width="6.0" height="18.4" fill="#f23645" stroke="#f23645"/>
<line x1="871.7" y1="604.5" x2="871.7" y2="637.7" stroke="#f23645" stroke-width="1.2"/>
<rect x="868.7" y="624.7" width="6.0" height="7.7" fill="#f23645" stroke="#f23645"/>
<line x1="880.9" y1="611.0" x2="880.9" y2="635.3" stroke="#f23645" stroke-width="1.2"/>
<rect x="877.9" y="633.0" width="6.0" height="2.4" fill="#f23645" stroke="#f23645"/>
<line x1="890.1" y1="614.6" x2="890.1" y2="644.3" stroke="#089981" stroke-width="1.2"/>
<rect x="887.1" y="633.6" width="6.0" height="1.5" fill="#089981" stroke="#089981"/>
<line x1="899.3" y1="568.9" x2="899.3" y2="656.7" stroke="#089981" stroke-width="1.2"/>
<rect x="896.3" y="600.9" width="6.0" height="31.5" fill="#089981" stroke="#089981"/>
<line x1="908.5" y1="510.1" x2="908.5" y2="599.2" stroke="#089981" stroke-width="1.2"/>
<rect x="905.6" y="511.9" width="6.0" height="87.2" fill="#089981" stroke="#089981"/>
<line x1="917.7" y1="493.5" x2="917.7" y2="541.0" stroke="#f23645" stroke-width="1.2"/>
<rect x="914.8" y="512.5" width="6.0" height="11.3" fill="#f23645" stroke="#f23645"/>
<line x1="927.0" y1="479.3" x2="927.0" y2="533.9" stroke="#089981" stroke-width="1.2"/>
<rect x="924.0" y="482.8" width="6.0" height="40.4" fill="#089981" stroke="#089981"/>
<line x1="936.2" y1="466.2" x2="936.2" y2="495.3" stroke="#f23645" stroke-width="1.2"/>
<rect x="933.2" y="481.7" width="6.0" height="3.0" fill="#f23645" stroke="#f23645"/>
<line x1="945.4" y1="476.9" x2="945.4" y2="518.4" stroke="#f23645" stroke-width="1.2"/>
<rect x="942.4" y="484.0" width="6.0" height="33.8" fill="#f23645" stroke="#f23645"/>
<line x1="954.6" y1="492.9" x2="954.6" y2="519.0" stroke="#089981" stroke-width="1.2"/>
<rect x="951.6" y="507.2" width="6.0" height="11.3" fill="#089981" stroke="#089981"/>
<line x1="963.8" y1="475.7" x2="963.8" y2="511.9" stroke="#089981" stroke-width="1.2"/>
<rect x="960.8" y="481.7" width="6.0" height="24.9" fill="#089981" stroke="#089981"/>
<line x1="973.0" y1="480.5" x2="973.0" y2="516.7" stroke="#f23645" stroke-width="1.2"/>
<rect x="970.1" y="482.2" width="6.0" height="17.8" fill="#f23645" stroke="#f23645"/>
<line x1="982.3" y1="499.5" x2="982.3" y2="568.3" stroke="#f23645" stroke-width="1.2"/>
<rect x="979.3" y="501.2" width="6.0" height="51.6" fill="#f23645" stroke="#f23645"/>
<line x1="991.5" y1="533.3" x2="991.5" y2="592.0" stroke="#f23645" stroke-width="1.2"/>
<rect x="988.5" y="553.5" width="6.0" height="2.4" fill="#f23645" stroke="#f23645"/>
<line x1="1000.7" y1="519.0" x2="1000.7" y2="557.0" stroke="#089981" stroke-width="1.2"/>
<rect x="997.7" y="522.6" width="6.0" height="32.6" fill="#089981" stroke="#089981"/>
<line x1="1009.9" y1="490.6" x2="1009.9" y2="523.2" stroke="#089981" stroke-width="1.2"/>
<rect x="1006.9" y="493.5" width="6.0" height="29.7" fill="#089981" stroke="#089981"/>
<line x1="1019.1" y1="457.9" x2="1019.1" y2="513.1" stroke="#f23645" stroke-width="1.2"/>
<rect x="1016.1" y="494.7" width="6.0" height="11.3" fill="#f23645" stroke="#f23645"/>
<line x1="1028.3" y1="462.1" x2="1028.3" y2="506.0" stroke="#089981" stroke-width="1.2"/>
<rect x="1025.3" y="462.1" width="6.0" height="43.3" fill="#089981" stroke="#089981"/>
<line x1="1037.5" y1="457.9" x2="1037.5" y2="490.6" stroke="#f23645" stroke-width="1.2"/>
<rect x="1034.6" y="462.7" width="6.0" height="22.0" fill="#f23645" stroke="#f23645"/>
<line x1="1046.8" y1="446.1" x2="1046.8" y2="496.5" stroke="#089981" stroke-width="1.2"/>
<rect x="1043.8" y="457.9" width="6.0" height="27.3" fill="#089981" stroke="#089981"/>
<line x1="1056.0" y1="415.8" x2="1056.0" y2="464.4" stroke="#089981" stroke-width="1.2"/>
<rect x="1053.0" y="427.1" width="6.0" height="30.3" fill="#089981" stroke="#089981"/>
<line x1="1065.2" y1="418.2" x2="1065.2" y2="474.5" stroke="#f23645" stroke-width="1.2"/>
<rect x="1062.2" y="427.7" width="6.0" height="27.3" fill="#f23645" stroke="#f23645"/>
<line x1="1074.4" y1="428.2" x2="1074.4" y2="472.2" stroke="#089981" stroke-width="1.2"/>
<rect x="1071.4" y="442.5" width="6.0" height="11.3" fill="#089981" stroke="#089981"/>
<line x1="1083.6" y1="411.0" x2="1083.6" y2="447.2" stroke="#089981" stroke-width="1.2"/>
<rect x="1080.6" y="423.5" width="6.0" height="20.8" fill="#089981" stroke="#089981"/>
<line x1="1092.8" y1="351.1" x2="1092.8" y2="424.1" stroke="#089981" stroke-width="1.2"/>
<rect x="1089.8" y="379.0" width="6.0" height="45.1" fill="#089981" stroke="#089981"/>
<line x1="1102.0" y1="353.5" x2="1102.0" y2="382.6" stroke="#089981" stroke-width="1.2"/>
<rect x="1099.1" y="369.5" width="6.0" height="10.1" fill="#089981" stroke="#089981"/>
<line x1="1111.3" y1="284.6" x2="1111.3" y2="373.1" stroke="#089981" stroke-width="1.2"/>
<rect x="1108.3" y="361.8" width="6.0" height="7.1" fill="#089981" stroke="#089981"/>
<line x1="1120.5" y1="325.6" x2="1120.5" y2="384.9" stroke="#089981" stroke-width="1.2"/>
<rect x="1117.5" y="339.2" width="6.0" height="22.0" fill="#089981" stroke="#089981"/>
<line x1="1129.7" y1="327.4" x2="1129.7" y2="362.4" stroke="#f23645" stroke-width="1.2"/>
<rect x="1126.7" y="336.9" width="6.0" height="3.6" fill="#f23645" stroke="#f23645"/>
<line x1="1138.9" y1="330.3" x2="1138.9" y2="354.7" stroke="#f23645" stroke-width="1.2"/>
<rect x="1135.9" y="341.0" width="6.0" height="4.7" fill="#f23645" stroke="#f23645"/>
<line x1="1148.1" y1="284.6" x2="1148.1" y2="363.0" stroke="#089981" stroke-width="1.2"/>
<rect x="1145.1" y="317.3" width="6.0" height="29.1" fill="#089981" stroke="#089981"/>
<line x1="1157.3" y1="297.7" x2="1157.3" y2="332.1" stroke="#089981" stroke-width="1.2"/>
<rect x="1154.4" y="304.8" width="6.0" height="13.1" fill="#089981" stroke="#089981"/>
<line x1="1166.5" y1="294.1" x2="1166.5" y2="342.8" stroke="#f23645" stroke-width="1.2"/>
<rect x="1163.6" y="305.4" width="6.0" height="30.3" fill="#f23645" stroke="#f23645"/>
<line x1="1175.8" y1="334.5" x2="1175.8" y2="417.6" stroke="#f23645" stroke-width="1.2"/>
<rect x="1172.8" y="335.1" width="6.0" height="78.3" fill="#f23645" stroke="#f23645"/>
<line x1="1185.0" y1="376.6" x2="1185.0" y2="438.3" stroke="#089981" stroke-width="1.2"/>
<rect x="1182.0" y="381.4" width="6.0" height="31.5" fill="#089981" stroke="#089981"/>
<line x1="1194.2" y1="377.8" x2="1194.2" y2="417.0" stroke="#f23645" stroke-width="1.2"/>
<rect x="1191.2" y="380.8" width="6.0" height="19.6" fill="#f23645" stroke="#f23645"/>
<line x1="1203.4" y1="344.6" x2="1203.4" y2="402.1" stroke="#089981" stroke-width="1.2"/>
<rect x="1200.4" y="370.7" width="6.0" height="30.3" fill="#089981" stroke="#089981"/>
<line x1="1212.6" y1="327.4" x2="1212.6" y2="370.7" stroke="#089981" stroke-width="1.2"/>
<rect x="1209.6" y="342.2" width="6.0" height="27.9" fill="#089981" stroke="#089981"/>
<line x1="1221.8" y1="323.2" x2="1221.8" y2="424.7" stroke="#f23645" stroke-width="1.2"/>
<rect x="1218.9" y="342.8" width="6.0" height="69.4" fill="#f23645" stroke="#f23645"/>
<line x1="1231.0" y1="395.6" x2="1231.0" y2="443.7" stroke="#f23645" stroke-width="1.2"/>
<rect x="1228.1" y="411.6" width="6.0" height="10.1" fill="#f23645" stroke="#f23645"/>
<line x1="1240.3" y1="412.2" x2="1240.3" y2="453.2" stroke="#f23645" stroke-width="1.2"/>
<rect x="1237.3" y="421.1" width="6.0" height="22.5" fill="#f23645" stroke="#f23645"/>
<line x1="1249.5" y1="430.0" x2="1249.5" y2="469.8" stroke="#f23645" stroke-width="1.2"/>
<rect x="1246.5" y="443.1" width="6.0" height="8.9" fill="#f23645" stroke="#f23645"/>
<line x1="1258.7" y1="451.4" x2="1258.7" y2="492.3" stroke="#f23645" stroke-width="1.2"/>
<rect x="1255.7" y="451.4" width="6.0" height="29.1" fill="#f23645" stroke="#f23645"/>
<line x1="1267.9" y1="457.9" x2="1267.9" y2="482.2" stroke="#089981" stroke-width="1.2"/>
<rect x="1264.9" y="469.8" width="6.0" height="11.9" fill="#089981" stroke="#089981"/>
<line x1="1277.1" y1="467.4" x2="1277.1" y2="482.8" stroke="#089981" stroke-width="1.2"/>
<rect x="1274.1" y="469.2" width="6.0" height="1.5" fill="#089981" stroke="#089981"/>
<line x1="1286.3" y1="452.0" x2="1286.3" y2="472.2" stroke="#089981" stroke-width="1.2"/>
<rect x="1283.4" y="457.3" width="6.0" height="11.3" fill="#089981" stroke="#089981"/>
<line x1="1295.5" y1="445.5" x2="1295.5" y2="459.7" stroke="#089981" stroke-width="1.2"/>
<rect x="1292.6" y="447.8" width="6.0" height="10.1" fill="#089981" stroke="#089981"/>
<line x1="1304.8" y1="436.0" x2="1304.8" y2="452.0" stroke="#089981" stroke-width="1.2"/>
<rect x="1301.8" y="443.7" width="6.0" height="3.6" fill="#089981" stroke="#089981"/>
<line x1="1314.0" y1="422.3" x2="1314.0" y2="449.6" stroke="#089981" stroke-width="1.2"/>
<rect x="1311.0" y="429.4" width="6.0" height="14.8" fill="#089981" stroke="#089981"/>
<line x1="1323.2" y1="406.9" x2="1323.2" y2="436.6" stroke="#089981" stroke-width="1.2"/>
<rect x="1320.2" y="422.3" width="6.0" height="7.7" fill="#089981" stroke="#089981"/>
<line x1="1332.4" y1="417.0" x2="1332.4" y2="437.7" stroke="#f23645" stroke-width="1.2"/>
<rect x="1329.4" y="421.7" width="6.0" height="6.5" fill="#f23645" stroke="#f23645"/>
<line x1="1341.6" y1="424.7" x2="1341.6" y2="456.7" stroke="#f23645" stroke-width="1.2"/>
<rect x="1338.6" y="426.5" width="6.0" height="16.0" fill="#f23645" stroke="#f23645"/>
<line x1="1350.8" y1="412.2" x2="1350.8" y2="443.1" stroke="#089981" stroke-width="1.2"/>
<rect x="1347.9" y="433.0" width="6.0" height="9.5" fill="#089981" stroke="#089981"/>
<line x1="1360.1" y1="432.4" x2="1360.1" y2="450.2" stroke="#f23645" stroke-width="1.2"/>
<rect x="1357.1" y="432.4" width="6.0" height="8.3" fill="#f23645" stroke="#f23645"/>
<line x1="1369.3" y1="420.5" x2="1369.3" y2="452.0" stroke="#089981" stroke-width="1.2"/>
<rect x="1366.3" y="435.4" width="6.0" height="5.9" fill="#089981" stroke="#089981"/>
<line x1="1378.5" y1="436.0" x2="1378.5" y2="454.4" stroke="#f23645" stroke-width="1.2"/>
<rect x="1375.5" y="436.0" width="6.0" height="7.1" fill="#f23645" stroke="#f23645"/>
<line x1="1387.7" y1="441.3" x2="1387.7" y2="452.0" stroke="#f23645" stroke-width="1.2"/>
<rect x="1384.7" y="446.1" width="6.0" height="3.6" fill="#f23645" stroke="#f23645"/>
<line x1="1396.9" y1="446.1" x2="1396.9" y2="449.6" stroke="#089981" stroke-width="1.2"/>
<rect x="1393.9" y="449.0" width="6.0" height="1.5" fill="#089981" stroke="#089981"/>
<line x1="1406.1" y1="448.4" x2="1406.1" y2="478.1" stroke="#f23645" stroke-width="1.2"/>
<rect x="1403.1" y="449.6" width="6.0" height="20.2" fill="#f23645" stroke="#f23645"/>
<line x1="1415.3" y1="456.7" x2="1415.3" y2="472.8" stroke="#089981" stroke-width="1.2"/>
<rect x="1412.4" y="460.3" width="6.0" height="11.9" fill="#089981" stroke="#089981"/>
<line x1="1424.6" y1="450.8" x2="1424.6" y2="461.5" stroke="#089981" stroke-width="1.2"/>
<rect x="1421.6" y="453.8" width="6.0" height="5.9" fill="#089981" stroke="#089981"/>
<line x1="1433.8" y1="444.3" x2="1433.8" y2="460.9" stroke="#f23645" stroke-width="1.2"/>
<rect x="1430.8" y="453.2" width="6.0" height="1.8" fill="#f23645" stroke="#f23645"/>
<line x1="1443.0" y1="451.4" x2="1443.0" y2="460.9" stroke="#f23645" stroke-width="1.2"/>
<rect x="1440.0" y="455.5" width="6.0" height="4.2" fill="#f23645" stroke="#f23645"/>
<line x1="1452.2" y1="456.7" x2="1452.2" y2="478.7" stroke="#f23645" stroke-width="1.2"/>
<rect x="1449.2" y="457.9" width="6.0" height="10.1" fill="#f23645" stroke="#f23645"/>
<line x1="1461.4" y1="458.5" x2="1461.4" y2="478.1" stroke="#089981" stroke-width="1.2"/>
<rect x="1458.4" y="463.3" width="6.0" height="5.9" fill="#089981" stroke="#089981"/>
<line x1="1470.6" y1="460.3" x2="1470.6" y2="476.9" stroke="#f23645" stroke-width="1.2"/>
<rect x="1467.6" y="462.1" width="6.0" height="6.5" fill="#f23645" stroke="#f23645"/>
<line x1="1479.8" y1="468.6" x2="1479.8" y2="476.3" stroke="#f23645" stroke-width="1.2"/>
<rect x="1476.9" y="469.2" width="6.0" height="1.5" fill="#f23645" stroke="#f23645"/>
<line x1="1489.1" y1="465.0" x2="1489.1" y2="475.7" stroke="#f23645" stroke-width="1.2"/>
<rect x="1486.1" y="469.8" width="6.0" height="2.4" fill="#f23645" stroke="#f23645"/>
<line x1="1498.3" y1="467.4" x2="1498.3" y2="478.7" stroke="#089981" stroke-width="1.2"/>
<rect x="1495.3" y="467.4" width="6.0" height="4.2" fill="#089981" stroke="#089981"/>
<line x1="1507.5" y1="463.3" x2="1507.5" y2="470.4" stroke="#089981" stroke-width="1.2"/>
<rect x="1504.5" y="464.4" width="6.0" height="2.4" fill="#089981" stroke="#089981"/>
<line x1="1516.7" y1="462.7" x2="1516.7" y2="471.0" stroke="#f23645" stroke-width="1.2"/>
<rect x="1513.7" y="462.7" width="6.0" height="4.7" fill="#f23645" stroke="#f23645"/>
<line x1="1525.9" y1="465.0" x2="1525.9" y2="469.8" stroke="#089981" stroke-width="1.2"/>
<rect x="1522.9" y="468.0" width="6.0" height="1.5" fill="#089981" stroke="#089981"/>
<line x1="1535.1" y1="463.9" x2="1535.1" y2="471.6" stroke="#f23645" stroke-width="1.2"/>
<rect x="1532.2" y="467.4" width="6.0" height="3.0" fill="#f23645" stroke="#f23645"/>
<line x1="1544.3" y1="468.0" x2="1544.3" y2="473.9" stroke="#089981" stroke-width="1.2"/>
<rect x="1541.4" y="469.8" width="6.0" height="1.5" fill="#089981" stroke="#089981"/>
<line x1="1553.6" y1="462.7" x2="1553.6" y2="473.9" stroke="#089981" stroke-width="1.2"/>
<rect x="1550.6" y="462.7" width="6.0" height="7.7" fill="#089981" stroke="#089981"/>
<line x1="1562.8" y1="451.4" x2="1562.8" y2="463.3" stroke="#089981" stroke-width="1.2"/>
<rect x="1559.8" y="457.9" width="6.0" height="4.2" fill="#089981" stroke="#089981"/>
<line x1="1572.0" y1="428.2" x2="1572.0" y2="460.3" stroke="#089981" stroke-width="1.2"/>
<rect x="1569.0" y="437.7" width="6.0" height="20.8" fill="#089981" stroke="#089981"/>
<line x1="1581.2" y1="392.6" x2="1581.2" y2="441.3" stroke="#089981" stroke-width="1.2"/>
<rect x="1578.2" y="398.0" width="6.0" height="40.9" fill="#089981" stroke="#089981"/>
<line x1="1590.4" y1="377.2" x2="1590.4" y2="406.9" stroke="#089981" stroke-width="1.2"/>
<rect x="1587.4" y="390.3" width="6.0" height="7.1" fill="#089981" stroke="#089981"/>
<line x1="1599.6" y1="341.6" x2="1599.6" y2="392.6" stroke="#089981" stroke-width="1.2"/>
<rect x="1596.7" y="387.3" width="6.0" height="3.0" fill="#089981" stroke="#089981"/>
<line x1="1608.8" y1="389.7" x2="1608.8" y2="420.5" stroke="#f23645" stroke-width="1.2"/>
<rect x="1605.9" y="389.7" width="6.0" height="15.4" fill="#f23645" stroke="#f23645"/>
<line x1="1618.1" y1="339.8" x2="1618.1" y2="404.5" stroke="#089981" stroke-width="1.2"/>
<rect x="1615.1" y="373.7" width="6.0" height="30.9" fill="#089981" stroke="#089981"/>
<line x1="1627.3" y1="330.9" x2="1627.3" y2="386.7" stroke="#089981" stroke-width="1.2"/>
<rect x="1624.3" y="332.7" width="6.0" height="40.4" fill="#089981" stroke="#089981"/>
<line x1="1636.5" y1="333.3" x2="1636.5" y2="360.6" stroke="#f23645" stroke-width="1.2"/>
<rect x="1633.5" y="333.9" width="6.0" height="7.7" fill="#f23645" stroke="#f23645"/>
<line x1="1645.7" y1="333.9" x2="1645.7" y2="363.6" stroke="#f23645" stroke-width="1.2"/>
<rect x="1642.7" y="341.6" width="6.0" height="9.5" fill="#f23645" stroke="#f23645"/>
<line x1="1654.9" y1="347.5" x2="1654.9" y2="373.1" stroke="#f23645" stroke-width="1.2"/>
<rect x="1651.9" y="349.3" width="6.0" height="21.4" fill="#f23645" stroke="#f23645"/>
<line x1="1664.1" y1="359.4" x2="1664.1" y2="378.4" stroke="#089981" stroke-width="1.2"/>
<rect x="1661.2" y="363.0" width="6.0" height="8.3" fill="#089981" stroke="#089981"/>
<line x1="1673.4" y1="329.1" x2="1673.4" y2="380.8" stroke="#089981" stroke-width="1.2"/>
<rect x="1670.4" y="333.3" width="6.0" height="29.1" fill="#089981" stroke="#089981"/>
<line x1="1682.6" y1="298.3" x2="1682.6" y2="342.2" stroke="#089981" stroke-width="1.2"/>
<rect x="1679.6" y="303.6" width="6.0" height="32.0" fill="#089981" stroke="#089981"/>
<line x1="1691.8" y1="289.4" x2="1691.8" y2="323.8" stroke="#f23645" stroke-width="1.2"/>
<rect x="1688.8" y="304.2" width="6.0" height="14.2" fill="#f23645" stroke="#f23645"/>
<line x1="1701.0" y1="311.3" x2="1701.0" y2="335.1" stroke="#f23645" stroke-width="1.2"/>
<rect x="1698.0" y="317.9" width="6.0" height="10.7" fill="#f23645" stroke="#f23645"/>
<line x1="1710.2" y1="321.4" x2="1710.2" y2="339.8" stroke="#f23645" stroke-width="1.2"/>
<rect x="1707.2" y="328.0" width="6.0" height="1.5" fill="#f23645" stroke="#f23645"/>
<line x1="1719.4" y1="322.6" x2="1719.4" y2="335.1" stroke="#f23645" stroke-width="1.2"/>
<rect x="1716.4" y="328.0" width="6.0" height="3.0" fill="#f23645" stroke="#f23645"/>
<line x1="1728.6" y1="326.2" x2="1728.6" y2="337.5" stroke="#089981" stroke-width="1.2"/>
<rect x="1725.7" y="331.5" width="6.0" height="1.5" fill="#089981" stroke="#089981"/>
<line x1="1737.9" y1="319.1" x2="1737.9" y2="332.7" stroke="#089981" stroke-width="1.2"/>
<rect x="1734.9" y="322.6" width="6.0" height="9.5" fill="#089981" stroke="#089981"/>
<line x1="1747.1" y1="316.1" x2="1747.1" y2="325.0" stroke="#089981" stroke-width="1.2"/>
<rect x="1744.1" y="321.4" width="6.0" height="1.8" fill="#089981" stroke="#089981"/>
<line x1="1756.3" y1="300.1" x2="1756.3" y2="325.0" stroke="#089981" stroke-width="1.2"/>
<rect x="1753.3" y="309.0" width="6.0" height="13.6" fill="#089981" stroke="#089981"/>
<line x1="1765.5" y1="300.7" x2="1765.5" y2="332.1" stroke="#f23645" stroke-width="1.2"/>
<rect x="1762.5" y="307.8" width="6.0" height="20.8" fill="#f23645" stroke="#f23645"/>
<line x1="1774.7" y1="328.6" x2="1774.7" y2="380.8" stroke="#f23645" stroke-width="1.2"/>
<rect x="1771.7" y="329.1" width="6.0" height="49.3" fill="#f23645" stroke="#f23645"/>
<line x1="1783.9" y1="333.3" x2="1783.9" y2="379.0" stroke="#089981" stroke-width="1.2"/>
<rect x="1780.9" y="352.9" width="6.0" height="24.3" fill="#089981" stroke="#089981"/>
<line x1="1793.1" y1="337.5" x2="1793.1" y2="367.1" stroke="#089981" stroke-width="1.2"/>
<rect x="1790.2" y="351.1" width="6.0" height="2.4" fill="#089981" stroke="#089981"/>
<line x1="1802.4" y1="349.3" x2="1802.4" y2="375.4" stroke="#f23645" stroke-width="1.2"/>
<rect x="1799.4" y="349.9" width="6.0" height="19.0" fill="#f23645" stroke="#f23645"/>
<line x1="1811.6" y1="367.7" x2="1811.6" y2="383.1" stroke="#f23645" stroke-width="1.2"/>
<rect x="1808.6" y="369.5" width="6.0" height="3.6" fill="#f23645" stroke="#f23645"/>
<line x1="1820.8" y1="341.6" x2="1820.8" y2="415.8" stroke="#089981" stroke-width="1.2"/>
<rect x="1817.8" y="367.7" width="6.0" height="7.7" fill="#089981" stroke="#089981"/>
<line x1="1830.0" y1="357.0" x2="1830.0" y2="409.3" stroke="#f23645" stroke-width="1.2"/>
<rect x="1827.0" y="367.1" width="6.0" height="29.1" fill="#f23645" stroke="#f23645"/>
<polyline points="70.0,421.2 79.2,427.1 88.4,444.1 97.6,453.9 106.9,458.2 116.1,458.1 125.3,465.0 134.5,447.8 143.7,442.8 152.9,441.7 162.1,445.7 171.4,445.3 180.6,454.6 189.8,463.8 199.0,467.8 208.2,472.2 217.4,473.0 226.6,477.9 235.9,479.1 245.1,474.8 254.3,462.9 263.5,440.4 272.7,422.9 281.9,412.8 291.2,405.3 300.4,402.3 309.6,416.3 318.8,419.5 328.0,421.0 337.2,431.7 346.4,443.6 355.7,457.1 364.9,467.1 374.1,478.1 383.3,486.8 392.5,488.4 401.7,496.5 410.9,509.9 420.2,536.5 429.4,558.2 438.6,584.5 447.8,599.9 457.0,611.7 466.2,622.3 475.4,620.0 484.7,622.5 493.9,622.6 503.1,621.5 512.3,621.2 521.5,627.7 530.7,631.4 539.9,636.3 549.2,641.3 558.4,652.6 567.6,658.3 576.8,662.7 586.0,666.3 595.2,665.3 604.5,666.8 613.7,662.4 622.9,656.0 632.1,651.7 641.3,648.6 650.5,648.9 659.7,646.2 669.0,642.4 678.2,642.0 687.4,648.1 696.6,652.8 705.8,651.1 715.0,643.9 724.2,643.6 733.5,637.1 742.7,634.7 751.9,631.4 761.1,629.7 770.3,625.5 779.5,616.5 788.7,609.5 798.0,595.6 807.2,590.1 816.4,589.1 825.6,591.5 834.8,591.5 844.0,593.6 853.2,597.8 862.5,607.0 871.7,615.5 880.9,622.1 890.1,625.9 899.3,617.6 908.5,582.4 917.7,562.8 927.0,536.2 936.2,519.0 945.4,518.6 954.6,514.8 963.8,503.8 973.0,502.5 982.3,519.3 991.5,531.5 1000.7,528.5 1009.9,516.9 1019.1,513.2 1028.3,496.2 1037.5,492.3 1046.8,480.9 1056.0,462.9 1065.2,460.3 1074.4,454.3 1083.6,444.1 1092.8,422.4 1102.0,404.7 1111.3,390.4 1120.5,373.4 1129.7,362.4 1138.9,356.8 1148.1,343.7 1157.3,330.7 1166.5,332.4 1175.8,359.4 1185.0,366.7 1194.2,377.9 1203.4,375.5 1212.6,364.4 1221.8,380.3 1231.0,394.1 1240.3,410.7 1249.5,424.4 1258.7,443.1 1267.9,452.0 1277.1,457.7 1286.3,457.6 1295.5,454.3 1304.8,450.8 1314.0,443.7 1323.2,436.6 1332.4,433.8 1341.6,436.7 1350.8,435.5 1360.1,437.2 1369.3,436.6 1378.5,438.8 1387.7,442.4 1396.9,444.6 1406.1,453.0 1415.3,455.4 1424.6,454.9 1433.8,454.9 1443.0,456.5 1452.2,460.3 1461.4,461.3 1470.6,463.7 1479.8,466.0 1489.1,468.0 1498.3,467.8 1507.5,466.7 1516.7,466.9 1525.9,467.3 1535.1,468.3 1544.3,468.8 1553.6,466.8 1562.8,463.8 1572.0,455.1 1581.2,436.1 1590.4,420.8 1599.6,409.6 1608.8,408.1 1618.1,396.6 1627.3,375.3 1636.5,364.1 1645.7,359.8 1654.9,363.4 1664.1,363.3 1673.4,353.3 1682.6,336.7 1691.8,330.6 1701.0,329.9 1710.2,329.5 1719.4,330.0 1728.6,330.5 1737.9,327.9 1747.1,325.7 1756.3,320.1 1765.5,322.9 1774.7,341.4 1783.9,345.2 1793.1,347.2 1802.4,354.4 1811.6,360.6 1820.8,363.0 1830.0,374.1" fill="none" stroke="#ffff00" stroke-width="1.2"/>
<polyline points="70.0,406.1 79.2,410.8 88.4,420.4 97.6,428.0 106.9,433.5 116.1,437.0 125.3,443.0 134.5,438.7 143.7,437.9 152.9,438.2 162.1,440.4 171.4,440.9 180.6,445.6 189.8,450.8 199.0,454.4 208.2,458.2 217.4,460.5 226.6,464.4 235.9,466.9 245.1,466.8 254.3,462.8 263.5,453.2 272.7,443.9 281.9,436.5 291.2,429.9 300.4,425.1 309.6,427.9 318.8,427.6 328.0,427.1 337.2,430.8 346.4,436.0 355.7,442.9 364.9,449.2 374.1,456.5 383.3,463.3 392.5,467.3 401.7,473.8 410.9,482.8 420.2,498.1 429.4,512.8 438.6,530.6 447.8,544.9 457.0,557.8 466.2,570.1 475.4,576.5 484.7,583.8 493.9,589.4 503.1,593.7 512.3,597.5 521.5,603.7 530.7,608.7 539.9,614.0 549.2,619.4 558.4,627.3 567.6,633.4 576.8,638.8 586.0,643.8 595.2,646.6 604.5,649.9 613.7,650.4 622.9,649.4 632.1,648.5 641.3,647.6 650.5,647.9 659.7,646.9 669.0,645.1 678.2,644.6 687.4,646.8 696.6,649.0 705.8,648.8 715.0,646.1 724.2,645.6 733.5,642.6 742.7,640.8 751.9,638.5 761.1,636.7 770.3,633.9 779.5,628.9 788.7,624.1 798.0,616.1 807.2,610.8 816.4,607.4 825.6,605.8 834.8,603.7 844.0,602.9 853.2,603.4 862.5,606.5 871.7,610.2 880.9,613.8 890.1,616.6 899.3,614.4 908.5,599.8 917.7,588.9 927.0,573.7 936.2,561.0 945.4,554.8 954.6,548.0 963.8,538.6 973.0,533.1 982.3,535.9 991.5,538.7 1000.7,536.4 1009.9,530.3 1019.1,526.8 1028.3,517.6 1037.5,512.9 1046.8,505.0 1056.0,493.9 1065.2,488.3 1074.4,481.8 1083.6,473.4 1092.8,460.0 1102.0,447.0 1111.3,434.9 1120.5,421.2 1129.7,409.7 1138.9,400.5 1148.1,388.6 1157.3,376.7 1166.5,370.8 1175.8,376.9 1185.0,377.5 1194.2,380.8 1203.4,379.4 1212.6,374.0 1221.8,379.5 1231.0,385.5 1240.3,393.8 1249.5,402.1 1258.7,413.3 1267.9,421.4 1277.1,428.2 1286.3,432.4 1295.5,434.6 1304.8,435.9 1314.0,435.0 1323.2,433.2 1332.4,432.5 1341.6,433.9 1350.8,433.8 1360.1,434.8 1369.3,434.8 1378.5,436.0 1387.7,438.0 1396.9,439.5 1406.1,443.9 1415.3,446.2 1424.6,447.3 1433.8,448.4 1443.0,450.0 1452.2,452.6 1461.4,454.1 1470.6,456.2 1479.8,458.2 1489.1,460.2 1498.3,461.2 1507.5,461.7 1516.7,462.5 1525.9,463.3 1535.1,464.3 1544.3,465.1 1553.6,464.7 1562.8,463.8 1572.0,460.0 1581.2,451.2 1590.4,442.5 1599.6,434.6 1608.8,430.4 1618.1,422.3 1627.3,409.5 1636.5,399.8 1645.7,392.8 1654.9,389.7 1664.1,385.9 1673.4,378.3 1682.6,367.7 1691.8,360.6 1701.0,356.1 1710.2,352.1 1719.4,349.1 1728.6,346.6 1737.9,343.2 1747.1,340.1 1756.3,335.6 1765.5,334.6 1774.7,340.9 1783.9,342.6 1793.1,343.8 1802.4,347.4 1811.6,351.1 1820.8,353.4 1830.0,359.5" fill="none" stroke="#ff0000" stroke-width="1.2"/>
<polyline points="70.0,415.7 79.2,416.6 88.4,419.1 97.6,421.2 106.9,423.0 116.1,424.3 125.3,426.5 134.5,426.0 143.7,426.2 152.9,426.8 162.1,427.8 171.4,428.5 180.6,430.2 189.8,432.3 199.0,434.0 208.2,435.8 217.4,437.3 226.6,439.3 235.9,441.0 245.1,442.0 254.3,441.8 263.5,440.0 272.7,438.0 281.9,436.2 291.2,434.4 300.4,432.9 309.6,433.4 318.8,433.1 328.0,432.7 337.2,433.5 346.4,434.8 355.7,436.8 364.9,438.7 374.1,441.1 383.3,443.6 392.5,445.5 401.7,448.1 410.9,451.6 420.2,457.0 429.4,462.7 438.6,469.5 447.8,475.8 457.0,482.1 466.2,488.4 475.4,493.4 484.7,498.7 493.9,503.5 503.1,508.1 512.3,512.5 521.5,517.5 530.7,522.3 539.9,527.1 549.2,532.0 558.4,537.6 567.6,542.8 576.8,547.8 586.0,552.8 595.2,557.1 604.5,561.5 613.7,565.1 622.9,568.2 632.1,571.1 641.3,573.9 650.5,576.9 659.7,579.4 669.0,581.6 678.2,583.9 687.4,586.9 696.6,589.8 705.8,592.1 715.0,593.6 724.2,595.5 733.5,596.6 742.7,598.0 751.9,599.0 761.1,600.1 770.3,600.7 779.5,600.7 788.7,600.5 798.0,599.2 807.2,598.4 816.4,597.9 825.6,597.9 834.8,597.6 844.0,597.6 853.2,598.0 862.5,599.0 871.7,600.4 880.9,601.7 890.1,603.0 899.3,602.9 908.5,599.3 917.7,596.4 927.0,591.9 936.2,587.7 945.4,585.0 954.6,581.9 963.8,578.0 973.0,574.9 982.3,574.1 991.5,573.3 1000.7,571.4 1009.9,568.3 1019.1,565.9 1028.3,561.8 1037.5,558.8 1046.8,554.8 1056.0,549.8 1065.2,546.1 1074.4,542.0 1083.6,537.4 1092.8,531.2 1102.0,524.8 1111.3,518.4 1120.5,511.4 1129.7,504.7 1138.9,498.5 1148.1,491.4 1157.3,484.0 1166.5,478.2 1175.8,475.7 1185.0,472.0 1194.2,469.2 1203.4,465.3 1212.6,460.5 1221.8,458.6 1231.0,457.1 1240.3,456.6 1249.5,456.4 1258.7,457.4 1267.9,457.9 1277.1,458.3 1286.3,458.3 1295.5,457.9 1304.8,457.3 1314.0,456.2 1323.2,454.9 1332.4,453.8 1341.6,453.4 1350.8,452.6 1360.1,452.1 1369.3,451.5 1378.5,451.1 1387.7,451.1 1396.9,451.0 1406.1,451.7 1415.3,452.1 1424.6,452.1 1433.8,452.2 1443.0,452.5 1452.2,453.1 1461.4,453.5 1470.6,454.1 1479.8,454.8 1489.1,455.5 1498.3,455.9 1507.5,456.3 1516.7,456.7 1525.9,457.1 1535.1,457.7 1544.3,458.1 1553.6,458.3 1562.8,458.3 1572.0,457.5 1581.2,455.2 1590.4,452.6 1599.6,450.1 1608.8,448.3 1618.1,445.4 1627.3,440.9 1636.5,437.0 1645.7,433.7 1654.9,431.2 1664.1,428.5 1673.4,424.8 1682.6,420.0 1691.8,416.1 1701.0,412.6 1710.2,409.3 1719.4,406.3 1728.6,403.3 1737.9,400.2 1747.1,397.1 1756.3,393.6 1765.5,391.1 1774.7,390.6 1783.9,389.1 1793.1,387.6 1802.4,386.9 1811.6,386.3 1820.8,385.6 1830.0,386.0" fill="none" stroke="#00e5ff" stroke-width="1.6"/>
<polyline points="70.0,428.7 79.2,428.8 88.4,429.3 97.6,429.8 106.9,430.1 116.1,430.4 125.3,430.9 134.5,430.7 143.7,430.7 152.9,430.8 162.1,431.1 171.4,431.2 180.6,431.6 189.8,432.1 199.0,432.6 208.2,433.0 217.4,433.4 226.6,434.0 235.9,434.5 245.1,434.8 254.3,434.8 263.5,434.4 272.7,434.0 281.9,433.6 291.2,433.1 300.4,432.8 309.6,432.9 318.8,432.8 328.0,432.7 337.2,432.9 346.4,433.3 355.7,433.8 364.9,434.3 374.1,435.0 383.3,435.6 392.5,436.2 401.7,437.0 410.9,438.0 420.2,439.5 429.4,441.1 438.6,443.0 447.8,444.9 457.0,446.8 466.2,448.7 475.4,450.4 484.7,452.2 493.9,453.9 503.1,455.5 512.3,457.2 521.5,459.0 530.7,460.8 539.9,462.6 549.2,464.5 558.4,466.6 567.6,468.6 576.8,470.6 586.0,472.6 595.2,474.5 604.5,476.5 613.7,478.2 622.9,479.9 632.1,481.5 641.3,483.1 650.5,484.8 659.7,486.3 669.0,487.8 678.2,489.3 687.4,491.0 696.6,492.7 705.8,494.3 715.0,495.6 724.2,497.1 733.5,498.3 742.7,499.7 751.9,500.9 761.1,502.1 770.3,503.3 779.5,504.2 788.7,505.1 798.0,505.8 807.2,506.5 816.4,507.3 825.6,508.2 834.8,509.0 844.0,509.9 853.2,510.9 862.5,512.0 871.7,513.2 880.9,514.4 890.1,515.6 899.3,516.4 908.5,516.4 917.7,516.5 927.0,516.1 936.2,515.8 945.4,515.8 954.6,515.8 963.8,515.4 973.0,515.3 982.3,515.6 991.5,516.0 1000.7,516.1 1009.9,515.9 1019.1,515.8 1028.3,515.2 1037.5,514.9 1046.8,514.4 1056.0,513.5 1065.2,512.9 1074.4,512.2 1083.6,511.3 1092.8,510.0 1102.0,508.6 1111.3,507.2 1120.5,505.5 1129.7,503.9 1138.9,502.3 1148.1,500.4 1157.3,498.5 1166.5,496.9 1175.8,496.0 1185.0,494.9 1194.2,494.0 1203.4,492.7 1212.6,491.2 1221.8,490.4 1231.0,489.8 1240.3,489.3 1249.5,488.9 1258.7,488.9 1267.9,488.7 1277.1,488.5 1286.3,488.2 1295.5,487.8 1304.8,487.3 1314.0,486.7 1323.2,486.1 1332.4,485.5 1341.6,485.1 1350.8,484.6 1360.1,484.1 1369.3,483.7 1378.5,483.3 1387.7,482.9 1396.9,482.6 1406.1,482.5 1415.3,482.2 1424.6,482.0 1433.8,481.7 1443.0,481.5 1452.2,481.3 1461.4,481.1 1470.6,481.0 1479.8,480.9 1489.1,480.8 1498.3,480.7 1507.5,480.5 1516.7,480.4 1525.9,480.3 1535.1,480.2 1544.3,480.1 1553.6,479.9 1562.8,479.7 1572.0,479.3 1581.2,478.5 1590.4,477.6 1599.6,476.7 1608.8,476.0 1618.1,475.0 1627.3,473.5 1636.5,472.2 1645.7,471.0 1654.9,470.0 1664.1,469.0 1673.4,467.6 1682.6,466.0 1691.8,464.5 1701.0,463.2 1710.2,461.8 1719.4,460.5 1728.6,459.2 1737.9,457.9 1747.1,456.5 1756.3,455.0 1765.5,453.8 1774.7,453.0 1783.9,452.0 1793.1,451.0 1802.4,450.2 1811.6,449.5 1820.8,448.6 1830.0,448.1" fill="none" stroke="#ffffff" stroke-width="2.0"/>
<polyline points="70.0,88.3 79.2,89.2 88.4,90.1 97.6,91.1 106.9,92.0 116.1,92.9 125.3,93.9 134.5,94.7 143.7,95.5 152.9,96.4 162.1,97.3 171.4,98.2 180.6,99.1 189.8,100.0 199.0,101.0 208.2,101.9 217.4,102.9 226.6,103.8 235.9,104.8 245.1,105.7 254.3,106.5 263.5,107.2 272.7,107.9 281.9,108.6 291.2,109.3 300.4,110.1 309.6,110.9 318.8,111.7 328.0,112.5 337.2,113.3 346.4,114.2 355.7,115.1 364.9,116.0 374.1,117.0 383.3,118.0 392.5,118.9 401.7,119.9 410.9,120.9 420.2,122.1 429.4,123.3 438.6,124.6 447.8,125.8 457.0,127.1 466.2,128.4 475.4,129.6 484.7,130.9 493.9,132.1 503.1,133.3 512.3,134.5 521.5,135.8 530.7,137.0 539.9,138.3 549.2,139.6 558.4,140.9 567.6,142.3 576.8,143.6 586.0,144.9 595.2,146.2 604.5,147.5 613.7,148.8 622.9,150.0 632.1,151.2 641.3,152.5 650.5,153.7 659.7,154.9 669.0,156.1 678.2,157.3 687.4,158.6 696.6,159.8 705.8,161.1 715.0,162.2 724.2,163.4 733.5,164.6 742.7,165.7 751.9,166.9 761.1,168.0 770.3,169.2 779.5,170.2 788.7,171.3 798.0,172.3 807.2,173.3 816.4,174.3 825.6,175.4 834.8,176.4 844.0,177.5 853.2,178.5 862.5,179.7 871.7,180.8 880.9,181.9 890.1,183.0 899.3,184.1 908.5,184.9 917.7,185.8 927.0,186.5 936.2,187.2 945.4,188.1 954.6,188.9 963.8,189.6 973.0,190.4 982.3,191.3 991.5,192.2 1000.7,193.0 1009.9,193.8 1019.1,194.5 1028.3,195.2 1037.5,195.9 1046.8,196.6 1056.0,197.2 1065.2,197.8 1074.4,198.4 1083.6,199.0 1092.8,199.4 1102.0,199.9 1111.3,200.3 1120.5,200.6 1129.7,201.0 1138.9,201.3 1148.1,201.6 1157.3,201.9 1166.5,202.2 1175.8,202.7 1185.0,203.2 1194.2,203.7 1203.4,204.1 1212.6,204.4 1221.8,204.9 1231.0,205.5 1240.3,206.1 1249.5,206.7 1258.7,207.4 1267.9,208.0 1277.1,208.7 1286.3,209.3 1295.5,209.9 1304.8,210.5 1314.0,211.0 1323.2,211.6 1332.4,212.1 1341.6,212.7 1350.8,213.2 1360.1,213.8 1369.3,214.3 1378.5,214.9 1387.7,215.5 1396.9,216.1 1406.1,216.7 1415.3,217.3 1424.6,217.9 1433.8,218.5 1443.0,219.1 1452.2,219.7 1461.4,220.3 1470.6,221.0 1479.8,221.6 1489.1,222.2 1498.3,222.8 1507.5,223.4 1516.7,224.0 1525.9,224.6 1535.1,225.3 1544.3,225.9 1553.6,226.5 1562.8,227.0 1572.0,227.6 1581.2,228.0 1590.4,228.4 1599.6,228.8 1608.8,229.2 1618.1,229.6 1627.3,229.8 1636.5,230.1 1645.7,230.4 1654.9,230.8 1664.1,231.1 1673.4,231.4 1682.6,231.5 1691.8,231.8 1701.0,232.0 1710.2,232.2 1719.4,232.5 1728.6,232.7 1737.9,233.0 1747.1,233.2 1756.3,233.4 1765.5,233.6 1774.7,234.0 1783.9,234.3 1793.1,234.6 1802.4,234.9 1811.6,235.2 1820.8,235.6 1830.0,236.0" fill="none" stroke="#2962ff" stroke-width="2.4"/>
<line x1="70" y1="821.8" x2="1830" y2="821.8" stroke="#f23645" stroke-width="1" opacity="0.6" stroke-dasharray="4,4"/>
<text x="1838" y="825.8" class="axis-txt">68</text>
<line x1="70" y1="843.4" x2="1830" y2="843.4" stroke="#ffa726" stroke-width="1" opacity="0.6" stroke-dasharray="2,2"/>
<text x="1838" y="847.4" class="axis-txt">63</text>
<line x1="70" y1="899.5" x2="1830" y2="899.5" stroke="#787b86" stroke-width="1" opacity="0.6" />
<text x="1838" y="903.5" class="axis-txt">50</text>
<line x1="70" y1="955.6" x2="1830" y2="955.6" stroke="#ffa726" stroke-width="1" opacity="0.6" stroke-dasharray="2,2"/>
<text x="1838" y="959.6" class="axis-txt">37</text>
<line x1="70" y1="977.2" x2="1830" y2="977.2" stroke="#089981" stroke-width="1" opacity="0.6" stroke-dasharray="4,4"/>
<text x="1838" y="981.2" class="axis-txt">32</text>
<polyline points="70.0,795.5 79.2,798.0 88.4,799.6 97.6,800.0 106.9,800.9 116.1,802.5 125.3,804.1 134.5,805.7 143.7,805.9 152.9,806.5 162.1,808.1 171.4,810.6 180.6,813.4 189.8,816.1 199.0,819.5 208.2,823.7 217.4,829.0 226.6,834.0 235.9,838.7 245.1,843.4 254.3,848.5 263.5,852.5 272.7,854.4 281.9,856.0 291.2,856.9 300.4,856.3 309.6,857.8 318.8,860.9 328.0,863.1 337.2,865.6 346.4,866.9 355.7,866.9 364.9,866.9 374.1,866.8 383.3,866.8 392.5,866.7 401.7,866.7 410.9,866.5 420.2,864.7 429.4,861.6 438.6,858.1 447.8,855.1 457.0,854.2 466.2,853.1 475.4,852.8 484.7,853.2 493.9,853.5 503.1,853.5 512.3,853.7 521.5,853.9 530.7,854.1 539.9,854.3 549.2,854.5 558.4,855.1 567.6,857.0 576.8,861.8 586.0,869.4 595.2,878.0 604.5,887.5 613.7,897.9 622.9,905.1 632.1,910.7 641.3,918.1 650.5,924.6 659.7,928.8 669.0,930.8 678.2,931.9 687.4,933.3 696.6,934.9 705.8,936.3 715.0,935.2 724.2,931.9 733.5,927.3 742.7,921.8 751.9,917.2 761.1,913.0 770.3,908.6 779.5,902.8 788.7,895.6 798.0,886.8 807.2,878.0 816.4,871.7 825.6,867.1 834.8,863.2 844.0,859.9 853.2,857.8 862.5,857.1 871.7,857.7 880.9,859.0 890.1,860.4 899.3,861.5 908.5,858.0 917.7,851.1 927.0,844.1 936.2,835.7 945.4,830.3 954.6,827.0 963.8,823.2 973.0,819.9 982.3,819.0 991.5,819.4 1000.7,820.2 1009.9,821.2 1019.1,821.9 1028.3,821.2 1037.5,820.4 1046.8,819.7 1056.0,818.0 1065.2,816.8 1074.4,816.3 1083.6,815.4 1092.8,813.1 1102.0,809.8 1111.3,806.5 1120.5,803.0 1129.7,799.1 1138.9,795.9 1148.1,792.7 1157.3,789.1 1166.5,787.1 1175.8,788.5 1185.0,791.4 1194.2,795.6 1203.4,800.8 1212.6,804.5 1221.8,804.3 1231.0,803.4 1240.3,802.6 1249.5,802.5 1258.7,800.9 1267.9,799.0 1277.1,798.2 1286.3,797.9 1295.5,797.2 1304.8,796.9 1314.0,796.6 1323.2,796.7 1332.4,796.8 1341.6,797.1 1350.8,797.5 1360.1,798.0 1369.3,799.2 1378.5,800.4 1387.7,801.1 1396.9,802.4 1406.1,804.7 1415.3,808.1 1424.6,812.4 1433.8,817.9 1443.0,824.5 1452.2,831.3 1461.4,839.6 1470.6,851.0 1479.8,862.4 1489.1,867.1 1498.3,869.4 1507.5,872.4 1516.7,875.8 1525.9,882.4 1535.1,887.2 1544.3,888.6 1553.6,889.3 1562.8,889.5 1572.0,888.1 1581.2,881.6 1590.4,871.7 1599.6,863.1 1608.8,857.7 1618.1,852.9 1627.3,844.8 1636.5,836.7 1645.7,831.1 1654.9,827.6 1664.1,825.1 1673.4,821.6 1682.6,816.4 1691.8,811.6 1701.0,808.4 1710.2,805.9 1719.4,803.7 1728.6,802.0 1737.9,800.2 1747.1,798.2 1756.3,796.2 1765.5,795.2 1774.7,795.8 1783.9,796.5 1793.1,797.5 1802.4,798.8 1811.6,799.8 1820.8,800.6 1830.0,801.2" fill="none" stroke="#2962ff" stroke-width="1.0"/>
<polyline points="70.0,974.7 79.2,969.2 88.4,966.0 97.6,965.3 106.9,963.8 116.1,960.7 125.3,957.7 134.5,954.4 143.7,953.2 152.9,954.8 162.1,956.8 171.4,958.4 180.6,960.3 189.8,962.8 199.0,964.9 208.2,966.2 217.4,966.7 226.6,967.2 235.9,967.7 245.1,967.4 254.3,965.8 263.5,963.8 272.7,962.6 281.9,961.7 291.2,961.2 300.4,961.5 309.6,961.0 318.8,959.9 328.0,959.0 337.2,958.3 346.4,958.5 355.7,959.1 364.9,959.8 374.1,961.2 383.3,963.1 392.5,964.3 401.7,964.4 410.9,964.8 420.2,968.1 429.4,974.1 438.6,980.9 447.8,988.4 457.0,995.0 466.2,1001.4 475.4,1005.9 484.7,1009.0 493.9,1011.9 503.1,1014.1 512.3,1016.2 521.5,1018.6 530.7,1021.2 539.9,1023.8 549.2,1026.5 558.4,1029.8 567.6,1032.9 576.8,1034.5 586.0,1034.2 595.2,1032.7 604.5,1029.9 613.7,1025.7 622.9,1022.5 632.1,1019.9 641.3,1015.9 650.5,1012.4 659.7,1010.2 669.0,1009.0 678.2,1008.5 687.4,1007.8 696.6,1007.2 705.8,1006.5 715.0,1007.2 724.2,1008.9 733.5,1010.8 742.7,1012.1 751.9,1012.2 761.1,1011.5 770.3,1010.9 779.5,1010.7 788.7,1012.1 798.0,1014.8 807.2,1017.1 816.4,1017.8 825.6,1017.4 834.8,1016.1 844.0,1014.1 853.2,1011.4 862.5,1007.8 871.7,1003.2 880.9,998.0 890.1,992.9 899.3,986.9 908.5,983.2 917.7,981.6 927.0,980.4 936.2,980.9 945.4,979.6 954.6,977.1 963.8,974.2 973.0,971.1 982.3,967.7 991.5,964.3 1000.7,959.3 1009.9,952.7 1019.1,946.7 1028.3,943.0 1037.5,939.5 1046.8,936.2 1056.0,933.7 1065.2,930.8 1074.4,927.8 1083.6,925.1 1092.8,923.8 1102.0,923.6 1111.3,924.1 1120.5,924.8 1129.7,925.0 1138.9,924.2 1148.1,923.2 1157.3,922.0 1166.5,919.3 1175.8,914.7 1185.0,908.6 1194.2,901.1 1203.4,892.4 1212.6,885.8 1221.8,886.4 1231.0,890.3 1240.3,894.8 1249.5,899.6 1258.7,905.3 1267.9,910.9 1277.1,915.7 1286.3,919.8 1295.5,922.4 1304.8,923.4 1314.0,924.5 1323.2,925.9 1332.4,927.3 1341.6,929.3 1350.8,931.3 1360.1,933.2 1369.3,935.1 1378.5,936.9 1387.7,939.0 1396.9,941.0 1406.1,943.2 1415.3,944.9 1424.6,945.5 1433.8,945.1 1443.0,944.0 1452.2,942.8 1461.4,940.3 1470.6,935.1 1479.8,929.5 1489.1,928.6 1498.3,928.9 1507.5,928.5 1516.7,927.7 1525.9,924.4 1535.1,922.3 1544.3,922.5 1553.6,922.7 1562.8,922.7 1572.0,922.9 1581.2,926.5 1590.4,932.4 1599.6,937.1 1608.8,939.3 1618.1,941.2 1627.3,945.3 1636.5,949.3 1645.7,951.5 1654.9,952.1 1664.1,952.0 1673.4,952.4 1682.6,953.4 1691.8,954.1 1701.0,953.5 1710.2,952.4 1719.4,950.6 1728.6,948.3 1737.9,946.4 1747.1,944.4 1756.3,942.2 1765.5,939.1 1774.7,936.2 1783.9,934.1 1793.1,930.9 1802.4,927.8 1811.6,925.5 1820.8,923.6 1830.0,922.5" fill="none" stroke="#2962ff" stroke-width="1.0"/>
<polyline points="70.0,885.1 79.2,883.6 88.4,882.8 97.6,882.7 106.9,882.3 116.1,881.6 125.3,880.9 134.5,880.1 143.7,879.6 152.9,880.6 162.1,882.4 171.4,884.5 180.6,886.8 189.8,889.4 199.0,892.2 208.2,895.0 217.4,897.8 226.6,900.6 235.9,903.2 245.1,905.4 254.3,907.1 263.5,908.1 272.7,908.5 281.9,908.9 291.2,909.1 300.4,908.9 309.6,909.4 318.8,910.4 328.0,911.1 337.2,911.9 346.4,912.7 355.7,913.0 364.9,913.4 374.1,914.0 383.3,914.9 392.5,915.5 401.7,915.5 410.9,915.6 420.2,916.4 429.4,917.9 438.6,919.5 447.8,921.8 457.0,924.6 466.2,927.2 475.4,929.3 484.7,931.1 493.9,932.7 503.1,933.8 512.3,934.9 521.5,936.2 530.7,937.7 539.9,939.1 549.2,940.5 558.4,942.4 567.6,945.0 576.8,948.1 586.0,951.8 595.2,955.3 604.5,958.7 613.7,961.8 622.9,963.8 632.1,965.3 641.3,967.0 650.5,968.5 659.7,969.5 669.0,969.9 678.2,970.2 687.4,970.5 696.6,971.0 705.8,971.4 715.0,971.2 724.2,970.4 733.5,969.0 742.7,967.0 751.9,964.7 761.1,962.3 770.3,959.8 779.5,956.8 788.7,953.8 798.0,950.8 807.2,947.6 816.4,944.8 825.6,942.3 834.8,939.7 844.0,937.0 853.2,934.6 862.5,932.4 871.7,930.4 880.9,928.5 890.1,926.7 899.3,924.2 908.5,920.6 917.7,916.4 927.0,912.3 936.2,908.3 945.4,905.0 954.6,902.0 963.8,898.7 973.0,895.5 982.3,893.4 991.5,891.8 1000.7,889.7 1009.9,886.9 1019.1,884.3 1028.3,882.1 1037.5,879.9 1046.8,878.0 1056.0,875.8 1065.2,873.8 1074.4,872.1 1083.6,870.2 1092.8,868.5 1102.0,866.7 1111.3,865.3 1120.5,863.9 1129.7,862.1 1138.9,860.1 1148.1,857.9 1157.3,855.5 1166.5,853.2 1175.8,851.6 1185.0,850.0 1194.2,848.3 1203.4,846.6 1212.6,845.1 1221.8,845.3 1231.0,846.9 1240.3,848.7 1249.5,851.0 1258.7,853.1 1267.9,854.9 1277.1,857.0 1286.3,858.9 1295.5,859.8 1304.8,860.1 1314.0,860.5 1323.2,861.3 1332.4,862.0 1341.6,863.2 1350.8,864.4 1360.1,865.6 1369.3,867.1 1378.5,868.6 1387.7,870.0 1396.9,871.7 1406.1,873.9 1415.3,876.5 1424.6,879.0 1433.8,881.5 1443.0,884.2 1452.2,887.0 1461.4,889.9 1470.6,893.0 1479.8,895.9 1489.1,897.8 1498.3,899.2 1507.5,900.4 1516.7,901.7 1525.9,903.4 1535.1,904.8 1544.3,905.6 1553.6,906.0 1562.8,906.1 1572.0,905.5 1581.2,904.1 1590.4,902.1 1599.6,900.1 1608.8,898.5 1618.1,897.1 1627.3,895.1 1636.5,893.0 1645.7,891.3 1654.9,889.9 1664.1,888.6 1673.4,887.0 1682.6,884.9 1691.8,882.8 1701.0,880.9 1710.2,879.1 1719.4,877.2 1728.6,875.2 1737.9,873.3 1747.1,871.3 1756.3,869.2 1765.5,867.1 1774.7,866.0 1783.9,865.3 1793.1,864.2 1802.4,863.3 1811.6,862.6 1820.8,862.1 1830.0,861.8" fill="none" stroke="#ffd600" stroke-width="1.5"/>
<polyline points="70.0,900.3 79.2,906.9 88.4,915.9 97.6,924.2 106.9,928.1 116.1,930.1 125.3,933.3 134.5,934.2 143.7,931.3 152.9,927.0 162.1,922.0 171.4,918.0 180.6,915.9 189.8,915.1 199.0,917.1 208.2,921.9 217.4,925.3 226.6,927.8 235.9,930.5 245.1,930.9 254.3,927.2 263.5,919.9 272.7,910.4 281.9,901.0 291.2,891.6 300.4,882.2 309.6,877.2 318.8,876.4 328.0,878.2 337.2,883.6 346.4,891.2 355.7,899.9 364.9,909.2 374.1,916.1 383.3,922.1 392.5,928.5 401.7,933.6 410.9,938.5 420.2,944.7 429.4,952.0 438.6,959.9 447.8,967.6 457.0,975.6 466.2,983.8 475.4,988.5 484.7,989.2 493.9,987.9 503.1,984.8 512.3,981.1 521.5,978.4 530.7,975.9 539.9,975.2 549.2,976.3 558.4,978.3 567.6,981.2 576.8,983.9 586.0,986.0 595.2,986.8 604.5,986.9 613.7,985.5 622.9,980.9 632.1,975.2 641.3,969.8 650.5,964.6 659.7,959.8 669.0,954.3 678.2,949.8 687.4,948.9 696.6,949.9 705.8,949.8 715.0,946.6 724.2,943.1 733.5,940.3 742.7,936.7 751.9,931.5 761.1,925.0 770.3,919.1 779.5,913.9 788.7,907.9 798.0,900.6 807.2,893.5 816.4,888.0 825.6,884.0 834.8,880.9 844.0,880.0 853.2,881.7 862.5,887.1 871.7,895.1 880.9,902.2 890.1,908.1 899.3,911.1 908.5,907.1 917.7,898.6 927.0,887.5 936.2,873.5 945.4,861.0 954.6,850.1 963.8,840.6 973.0,838.0 982.3,842.6 991.5,850.5 1000.7,858.6 1009.9,862.3 1019.1,863.9 1028.3,865.9 1037.5,867.4 1046.8,865.5 1056.0,859.1 1065.2,854.3 1074.4,852.7 1083.6,850.6 1092.8,847.6 1102.0,843.7 1111.3,839.1 1120.5,835.4 1129.7,830.9 1138.9,825.8 1148.1,821.2 1157.3,817.3 1166.5,816.1 1175.8,820.4 1185.0,827.9 1194.2,835.6 1203.4,842.8 1212.6,848.8 1221.8,857.5 1231.0,867.6 1240.3,873.7 1249.5,878.2 1258.7,884.0 1267.9,890.5 1277.1,898.1 1286.3,903.6 1295.5,905.6 1304.8,906.0 1314.0,904.9 1323.2,901.9 1332.4,898.4 1341.6,896.1 1350.8,894.4 1360.1,893.5 1369.3,893.1 1378.5,893.6 1387.7,895.4 1396.9,897.5 1406.1,899.7 1415.3,902.2 1424.6,903.9 1433.8,905.3 1443.0,906.8 1452.2,908.3 1461.4,909.7 1470.6,910.2 1479.8,910.6 1489.1,912.1 1498.3,913.6 1507.5,914.2 1516.7,914.2 1525.9,914.2 1535.1,914.5 1544.3,914.4 1553.6,913.5 1562.8,911.9 1572.0,908.8 1581.2,901.8 1590.4,891.7 1599.6,880.9 1608.8,871.4 1618.1,862.4 1627.3,851.3 1636.5,841.2 1645.7,836.5 1654.9,836.8 1664.1,838.6 1673.4,837.5 1682.6,834.2 1691.8,834.1 1701.0,836.6 1710.2,838.4 1719.4,838.2 1728.6,837.1 1737.9,837.3 1747.1,839.3 1756.3,840.6 1765.5,841.3 1774.7,846.0 1783.9,852.4 1793.1,857.3 1802.4,863.5 1811.6,871.3 1820.8,879.7 1830.0,888.4" fill="none" stroke="#f23645" stroke-width="1.4"/>
<polyline points="70.0,911.6 79.2,918.3 88.4,937.5 97.6,949.0 106.9,943.2 116.1,935.3 125.3,938.1 134.5,918.2 143.7,897.9 152.9,907.0 162.1,914.0 171.4,915.1 180.6,920.7 189.8,932.6 199.0,932.6 208.2,931.6 217.4,930.4 226.6,931.8 235.9,933.4 245.1,924.0 254.3,906.4 263.5,881.4 272.7,865.1 281.9,864.8 291.2,866.0 300.4,867.8 309.6,888.8 318.8,900.8 328.0,893.9 337.2,903.2 346.4,917.6 355.7,927.0 364.9,932.9 374.1,937.5 383.3,942.6 392.5,938.3 401.7,939.1 410.9,951.9 420.2,970.3 429.4,984.3 438.6,992.9 447.8,996.2 457.0,994.2 466.2,996.5 475.4,985.1 484.7,974.8 493.9,975.3 503.1,971.6 512.3,970.3 521.5,975.3 530.7,979.1 539.9,979.9 549.2,982.8 558.4,989.4 567.6,991.8 576.8,989.3 586.0,990.1 595.2,984.6 604.5,980.4 613.7,972.8 622.9,957.7 632.1,951.8 641.3,951.5 650.5,953.7 659.7,950.9 669.0,942.0 678.2,941.2 687.4,951.0 696.6,958.9 705.8,950.6 715.0,931.4 724.2,926.7 733.5,922.6 742.7,915.3 751.9,915.1 761.1,913.2 770.3,909.0 779.5,895.1 788.7,884.8 798.0,871.6 807.2,865.9 816.4,876.3 825.6,885.2 834.8,887.5 844.0,888.8 853.2,896.4 862.5,909.6 871.7,921.8 880.9,926.2 890.1,926.5 899.3,908.3 908.5,861.1 917.7,836.7 927.0,832.4 936.2,823.4 945.4,838.7 954.6,850.3 963.8,841.4 973.0,842.8 982.3,868.8 991.5,888.2 1000.7,880.2 1009.9,864.2 1019.1,861.4 1028.3,855.8 1037.5,853.4 1046.8,855.2 1056.0,843.6 1065.2,846.5 1074.4,852.8 1083.6,846.7 1092.8,835.1 1102.0,825.7 1111.3,822.9 1120.5,818.0 1129.7,814.9 1138.9,817.3 1148.1,814.6 1157.3,807.8 1166.5,817.5 1175.8,852.8 1185.0,870.1 1194.2,868.7 1203.4,867.9 1212.6,856.8 1221.8,868.9 1231.0,888.3 1240.3,895.2 1249.5,901.7 1258.7,909.5 1267.9,913.0 1277.1,910.3 1286.3,907.2 1295.5,901.9 1304.8,898.5 1314.0,893.9 1323.2,888.5 1332.4,888.4 1341.6,894.2 1350.8,895.6 1360.1,895.3 1369.3,896.0 1378.5,896.9 1387.7,901.4 1396.9,903.2 1406.1,909.7 1415.3,913.0 1424.6,907.2 1433.8,905.3 1443.0,907.4 1452.2,912.2 1461.4,913.2 1470.6,913.2 1479.8,915.9 1489.1,917.3 1498.3,915.7 1507.5,911.9 1516.7,911.8 1525.9,913.5 1535.1,914.9 1544.3,915.7 1553.6,911.1 1562.8,904.1 1572.0,890.4 1581.2,862.6 1590.4,843.0 1599.6,839.2 1608.8,849.0 1618.1,848.7 1627.3,826.2 1636.5,819.7 1645.7,829.7 1654.9,844.8 1664.1,852.3 1673.4,841.3 1682.6,825.4 1691.8,825.4 1701.0,837.4 1710.2,842.2 1719.4,843.4 1728.6,844.8 1737.9,842.4 1747.1,839.2 1756.3,834.9 1765.5,841.9 1774.7,875.2 1783.9,888.5 1793.1,879.0 1802.4,885.5 1811.6,894.3 1820.8,893.8 1830.0,902.7" fill="none" stroke="#00e676" stroke-width="1.8"/>
<line x1="70.0" y1="1029" x2="70.0" y2="1035" stroke="#787b86"/>
<text x="70.0" y="1049" class="axis-txt" text-anchor="middle">08/26 03:30</text>
<line x1="245.1" y1="1029" x2="245.1" y2="1035" stroke="#787b86"/>
<text x="245.1" y="1049" class="axis-txt" text-anchor="middle">08/26 08:15</text>
<line x1="420.2" y1="1029" x2="420.2" y2="1035" stroke="#787b86"/>
<text x="420.2" y="1049" class="axis-txt" text-anchor="middle">08/26 13:00</text>
<line x1="595.2" y1="1029" x2="595.2" y2="1035" stroke="#787b86"/>
<text x="595.2" y="1049" class="axis-txt" text-anchor="middle">08/26 17:45</text>
<line x1="770.3" y1="1029" x2="770.3" y2="1035" stroke="#787b86"/>
<text x="770.3" y="1049" class="axis-txt" text-anchor="middle">08/26 22:30</text>
<line x1="945.4" y1="1029" x2="945.4" y2="1035" stroke="#787b86"/>
<text x="945.4" y="1049" class="axis-txt" text-anchor="middle">08/27 03:15</text>
<line x1="1120.5" y1="1029" x2="1120.5" y2="1035" stroke="#787b86"/>
<text x="1120.5" y="1049" class="axis-txt" text-anchor="middle">08/27 08:00</text>
<line x1="1295.5" y1="1029" x2="1295.5" y2="1035" stroke="#787b86"/>
<text x="1295.5" y="1049" class="axis-txt" text-anchor="middle">08/27 12:45</text>
<line x1="1470.6" y1="1029" x2="1470.6" y2="1035" stroke="#787b86"/>
<text x="1470.6" y="1049" class="axis-txt" text-anchor="middle">08/27 17:30</text>
<line x1="1645.7" y1="1029" x2="1645.7" y2="1035" stroke="#787b86"/>
<text x="1645.7" y="1049" class="axis-txt" text-anchor="middle">08/27 22:15</text>
<line x1="1820.8" y1="1029" x2="1820.8" y2="1035" stroke="#787b86"/>
<text x="1820.8" y="1049" class="axis-txt" text-anchor="middle">08/28 03:00</text>
<rect x="85" y="55" width="480" height="135" fill="#1e222d" fill-opacity="0.92" stroke="#363a45" rx="6"/>
<text x="98" y="78" class="hud-txt">SYMBOL: GBPUSD (M15)  |  NY TIME: 2014-08-28 03:15:00</text>
<text x="98" y="96" class="hud-txt">SESSION: LONDON_OPEN  |  DAY: Thursday</text>
<text x="98" y="114" class="hud-txt">ASIAN RANGE: 29.3 pips [VALID_ACCUMULATION]</text>
<text x="98" y="132" class="hud-txt">ADR (14d): 61.6 pips  |  USED TODAY: 51.8%</text>
<text x="98" y="150" class="hud-txt">5/13 EMA CROSS: BEARISH (6 bars ago)</text>
<text x="98" y="168" class="hud-txt">TDI SHARK FIN: NONE</text>
<text x="85" y="28" fill="#d1d4dc" font-size="16" font-weight="600">MMM Benchmark CASE_09 — GBPUSD M15</text>
</svg>