<svg xmlns="http://www.w3.org/2000/svg" width="900" height="420" viewBox="0 0 900 420"><rect width="900" height="420" fill="#f7f7f7"/><line x1="57.1" y1="166.2" x2="57.1" y2="271.6" stroke="#1a7f37" stroke-width="1"/><rect x="46.8" y="195.7" width="20.5" height="42.8" fill="#1a7f37"/><line x1="91.2" y1="137.6" x2="91.2" y2="214.8" stroke="#1a7f37" stroke-width="1"/><rect x="81.0" y="179.9" width="20.5" height="16.2" fill="#1a7f37"/><line x1="125.4" y1="154.6" x2="125.4" y2="236.8" stroke="#1a7f37" stroke-width="1"/><rect x="115.2" y="161.2" width="20.5" height="19.1" fill="#1a7f37"/><line x1="159.6" y1="76.9" x2="159.6" y2="161.6" stroke="#1a7f37" stroke-width="1"/><rect x="149.3" y="83.2" width="20.5" height="78.5" fill="#1a7f37"/><line x1="193.8" y1="79.4" x2="193.8" y2="109.7" stroke="#b32424" stroke-width="1"/><rect x="183.5" y="84.0" width="20.5" height="19.9" fill="#b32424"/><line x1="227.9" y1="56.6" x2="227.9" y2="158.3" stroke="#1a7f37" stroke-width="1"/><rect x="217.7" y="82.3" width="20.5" height="22.4" fill="#1a7f37"/><line x1="262.1" y1="40.0" x2="262.1" y2="100.6" stroke="#b32424" stroke-width="1"/><rect x="251.8" y="82.3" width="20.5" height="2.5" fill="#b32424"/><line x1="296.2" y1="77.8" x2="296.2" y2="115.1" stroke="#b32424" stroke-width="1"/><rect x="286.0" y="84.4" width="20.5" height="21.2" fill="#b32424"/><line x1="330.4" y1="104.3" x2="330.4" y2="137.1" stroke="#b32424" stroke-width="1"/><rect x="320.2" y="106.0" width="20.5" height="12.0" fill="#b32424"/><line x1="364.6" y1="88.2" x2="364.6" y2="140.0" stroke="#1a7f37" stroke-width="1"/><rect x="354.3" y="93.1" width="20.5" height="24.9" fill="#1a7f37"/><line x1="398.7" y1="91.1" x2="398.7" y2="133.8" stroke="#b32424" stroke-width="1"/><rect x="388.5" y="92.3" width="20.5" height="7.9" fill="#b32424"/><line x1="432.9" y1="97.3" x2="432.9" y2="153.3" stroke="#b32424" stroke-width="1"/><rect x="422.7" y="99.8" width="20.5" height="51.9" fill="#b32424"/><line x1="467.1" y1="152.5" x2="467.1" y2="212.7" stroke="#b32424" stroke-width="1"/><rect x="456.8" y="152.5" width="20.5" height="51.9" fill="#b32424"/><line x1="501.2" y1="179.1" x2="501.2" y2="212.7" stroke="#b32424" stroke-width="1"/><rect x="491.0" y="204.8" width="20.5" height="3.7" fill="#b32424"/><line x1="535.4" y1="209.4" x2="535.4" y2="257.1" stroke="#b32424" stroke-width="1"/><rect x="525.2" y="209.4" width="20.5" height="27.4" fill="#b32424"/><line x1="569.6" y1="217.3" x2="569.6" y2="249.2" stroke="#1a7f37" stroke-width="1"/><rect x="559.3" y="225.6" width="20.5" height="11.2" fill="#1a7f37"/><line x1="603.8" y1="219.3" x2="603.8" y2="294.5" stroke="#b32424" stroke-width="1"/><rect x="593.5" y="224.3" width="20.5" height="56.9" fill="#b32424"/><line x1="637.9" y1="249.2" x2="637.9" y2="296.1" stroke="#1a7f37" stroke-width="1"/><rect x="627.7" y="262.5" width="20.5" height="17.9" fill="#1a7f37"/><line x1="672.1" y1="240.9" x2="672.1" y2="270.8" stroke="#1a7f37" stroke-width="1"/><rect x="661.8" y="243.4" width="20.5" height="19.9" fill="#1a7f37"/><line x1="706.2" y1="242.2" x2="706.2" y2="295.3" stroke="#1a7f37" stroke-width="1"/><rect x="696.0" y="244.7" width="20.5" height="1.0" fill="#1a7f37"/><line x1="740.4" y1="226.0" x2="740.4" y2="292.8" stroke="#b32424" stroke-width="1"/><rect x="730.2" y="244.7" width="20.5" height="14.5" fill="#b32424"/><line x1="774.6" y1="216.4" x2="774.6" y2="286.6" stroke="#b32424" stroke-width="1"/><rect x="764.3" y="260.0" width="20.5" height="7.9" fill="#b32424"/><line x1="808.8" y1="265.4" x2="808.8" y2="323.5" stroke="#b32424" stroke-width="1"/><rect x="798.5" y="268.3" width="20.5" height="25.3" fill="#b32424"/><line x1="842.9" y1="286.6" x2="842.9" y2="380.0" stroke="#b32424" stroke-width="1"/><rect x="832.7" y="293.7" width="20.5" height="84.7" fill="#b32424"/><line x1="40" y1="344.7" x2="860" y2="344.7" stroke="#0b5fff" stroke-dasharray="4,3" stroke-width="1"/><text x="40" y="20" font-family="monospace" font-size="13">V08 flashcard 01 — GBP/USD M15 — HARD RIGHT EDGE at 2015-09-28 09:15 — entry 1.51674</text><text x="40" y="408" font-family="monospace" font-size="12">nothing after the right edge is shown. TARGET +50 / STOP -16.67</text></svg>